<?xml version="1.0" standalone="no"?>
<!DOCTYPE svg PUBLIC "-//W3C//DTD SVG 20010904//EN"
 "http://www.w3.org/TR/2001/REC-SVG-20010904/DTD/svg10.dtd">
<svg version="1.0" xmlns="http://www.w3.org/2000/svg"
 width="4129.000000pt" height="3132.000000pt" viewBox="0 0 4129.000000 3132.000000"
 preserveAspectRatio="xMidYMid meet">

<g transform="translate(0.000000,3132.000000) scale(0.100000,-0.100000)"
fill="#000000" stroke="none">
<path d="M22231 30973 c-212 -132 -317 -243 -341 -360 -22 -106 -18 -114 136
-269 77 -76 153 -157 171 -180 l32 -41 -137 -58 c-266 -114 -1095 -540 -1252
-644 -46 -30 -55 -41 -55 -65 0 -35 27 -56 51 -41 13 8 29 5 64 -12 94 -45
343 -105 590 -143 69 -11 276 -33 460 -50 491 -45 710 -80 710 -115 0 -22
-211 -235 -375 -380 -82 -72 -244 -209 -360 -305 -290 -240 -422 -359 -620
-561 -272 -277 -544 -608 -609 -741 -25 -50 -27 -61 -17 -91 7 -19 89 -126
184 -239 95 -112 242 -292 328 -399 308 -382 483 -569 752 -804 l137 -120
-1182 -6 c-651 -3 -2038 -7 -3084 -8 -1822 -3 -2211 -8 -2372 -31 -116 -16
-162 -48 -181 -127 -9 -33 -13 -1307 -16 -4796 -3 -2614 -7 -5303 -9 -5977 -5
-1427 -1 -1526 66 -1638 26 -42 69 -64 137 -68 31 -2 550 -6 1154 -10 997 -6
1097 -8 1097 -23 2 -117 -93 -7417 -96 -7420 -2 -3 -755 19 -1672 48 -1581 49
-1671 51 -1710 35 -116 -46 -122 -208 -10 -263 41 -19 102 -22 1653 -71 886
-28 1682 -51 1770 -51 l160 0 47 53 c26 29 52 62 57 73 7 15 104 7224 101
7574 l0 44 1592 -7 c876 -4 1593 -8 1594 -9 0 -1 27 -1692 59 -3757 l57 -3755
30 -60 c16 -33 42 -76 58 -95 l29 -35 1678 3 c1585 4 1680 5 1719 22 112 49
121 199 15 258 l-39 22 -1593 0 -1594 0 -3 77 c-3 108 -112 7105 -112 7226 l0
97 1218 0 c853 -1 1238 2 1287 10 124 20 181 61 219 158 15 40 16 467 16 6085
0 3323 -3 6105 -6 6182 -7 157 -16 200 -47 218 -17 9 -246 13 -1012 15 l-990
2 -30 34 c-16 19 -91 88 -165 154 -243 215 -434 422 -715 772 -82 102 -219
268 -305 370 -85 102 -168 200 -183 219 -34 41 -32 51 38 156 111 169 358 458
590 690 168 169 306 292 570 510 360 297 549 468 677 609 85 94 89 101 86 140
-3 38 -7 43 -50 64 -80 40 -297 72 -763 112 -365 31 -627 74 -843 136 -89 26
-178 61 -171 68 14 13 318 176 569 304 319 163 563 279 733 348 l107 45 63
-52 c116 -97 237 -136 381 -121 83 8 100 26 117 117 21 112 -9 229 -120 474
-98 217 -198 369 -314 479 -73 68 -88 68 -206 -5z m1901 -5701 c11 -11 13
-1140 16 -6195 l2 -6183 -22 -44 c-32 -63 -81 -87 -198 -100 -92 -9 -487 -8
-6185 9 -2543 8 -2364 3 -2394 66 -32 66 -42 160 -47 440 -2 154 0 2834 4
5955 5 3121 5 5692 0 5713 -9 42 5 184 25 245 10 32 19 39 63 54 109 36 323
39 3969 47 4487 10 4750 10 4767 -7z"/>
<path d="M23074 24852 c-117 -41 -201 -117 -257 -232 -30 -61 -32 -70 -32
-180 0 -109 2 -119 32 -183 82 -172 239 -264 437 -255 80 3 101 8 169 40 94
45 167 115 206 198 108 228 21 475 -208 588 -71 35 -81 37 -185 40 -87 2 -122
-2 -162 -16z"/>
<path d="M17081 23969 c-80 -16 -103 -52 -120 -194 -14 -120 -18 -4525 -4
-4592 14 -64 27 -89 57 -108 21 -14 317 -16 2751 -15 1500 0 2753 3 2784 6 68
7 96 19 107 48 5 11 7 1061 4 2356 -6 2638 3 2392 -85 2431 -52 23 -171 50
-230 51 -80 3 -4894 28 -5055 27 -91 -1 -185 -5 -209 -10z m1865 -820 c65 -12
84 -23 84 -49 0 -27 -23 -31 -113 -18 -123 16 -356 4 -504 -27 -145 -30 -337
-91 -437 -139 -73 -35 -166 -100 -166 -116 0 -5 17 -10 38 -12 32 -3 37 -6 37
-28 0 -23 -4 -25 -58 -28 -70 -4 -87 8 -87 56 0 109 308 267 655 337 66 13
136 26 155 28 79 9 340 6 396 -4z m2249 -33 c357 -75 655 -229 655 -338 0 -48
-17 -60 -87 -56 -54 3 -58 5 -58 28 0 22 5 25 38 28 20 2 37 7 37 12 0 16 -93
81 -166 116 -100 48 -292 109 -437 139 -148 31 -381 43 -504 27 -90 -13 -113
-9 -113 18 0 47 75 60 320 55 161 -3 216 -8 315 -29z m-2385 -584 c46 -23 59
-36 84 -84 32 -63 37 -102 56 -423 6 -99 15 -263 21 -365 12 -205 5 -963 -11
-1226 -33 -539 -50 -745 -61 -766 -5 -10 -16 -18 -25 -18 -8 0 -41 -9 -73 -20
-171 -57 -432 5 -503 120 -60 97 -76 270 -88 970 -5 272 -14 565 -22 650 -7
85 -13 290 -13 455 0 405 15 467 144 596 53 52 82 72 146 99 104 43 136 50
220 44 49 -3 86 -13 125 -32z m2307 -19 c73 -30 100 -48 154 -102 129 -129
144 -191 144 -596 0 -165 -6 -370 -13 -455 -8 -85 -17 -378 -22 -650 -12 -700
-28 -873 -88 -970 -71 -115 -332 -177 -503 -120 -32 11 -65 20 -73 20 -9 0
-20 8 -25 18 -11 21 -28 227 -61 766 -16 263 -23 1021 -11 1226 43 734 41 714
75 785 62 126 232 158 423 78z"/>
<path d="M18674 18262 c-5 -4 -100 -140 -211 -302 -110 -162 -305 -450 -435
-640 -129 -190 -349 -514 -490 -720 -1000 -1470 -1310 -1924 -1328 -1947 -29
-37 -26 -69 8 -87 15 -8 106 -69 202 -135 96 -67 184 -121 195 -121 28 0 34 6
84 80 24 36 73 107 107 158 35 50 94 136 131 190 37 53 81 117 98 142 17 25
76 110 130 190 174 254 193 283 271 395 41 61 95 139 119 175 25 36 78 115
120 175 42 61 110 160 151 220 41 61 129 189 195 285 66 96 149 218 185 270
36 52 121 176 189 275 68 99 167 243 219 320 93 137 167 246 271 395 28 41 81
118 117 170 35 52 81 118 101 146 20 28 37 59 37 68 0 17 -428 307 -452 306
-2 0 -8 -4 -14 -8z"/>
<path d="M21070 18201 c-77 -16 -149 -71 -211 -162 -22 -32 -43 -68 -48 -81
-5 -13 -222 -338 -483 -723 -260 -385 -743 -1100 -1073 -1588 -622 -921 -695
-1030 -695 -1051 0 -6 95 -78 210 -160 190 -133 213 -147 237 -139 21 7 107
128 376 524 787 1159 931 1370 1332 1962 328 483 422 614 431 605 7 -7 149
-213 316 -458 168 -245 356 -519 418 -610 62 -91 201 -293 308 -450 108 -157
239 -348 292 -425 53 -77 244 -356 425 -620 181 -264 336 -490 344 -502 21
-29 38 -35 62 -22 50 27 415 272 421 283 4 6 3 28 -1 47 -7 33 -48 94 -346
524 -72 105 -284 411 -470 680 -186 270 -382 553 -435 630 -126 181 -632 914
-770 1115 -59 85 -128 196 -155 245 -147 275 -320 410 -485 376z"/>
<path d="M12365 23586 c-27 -13 -71 -46 -97 -73 -91 -99 -197 -358 -255 -630
l-28 -128 1 -495 c0 -521 11 -752 45 -948 10 -63 19 -119 19 -124 0 -6 -37 25
-83 69 -111 106 -157 128 -267 127 -98 -1 -146 -18 -244 -88 -130 -93 -348
-358 -547 -666 -190 -294 -269 -471 -320 -715 -34 -161 -32 -361 5 -500 32
-121 81 -229 131 -283 20 -23 71 -63 113 -90 108 -69 430 -229 536 -266 l88
-31 72 -128 c90 -161 141 -227 211 -274 l56 -37 -43 -16 c-269 -104 -289 -113
-308 -140 -11 -16 -20 -37 -20 -47 0 -24 139 -346 187 -433 72 -132 158 -232
297 -347 164 -137 261 -202 390 -264 139 -66 255 -93 366 -84 124 10 224 31
385 81 79 24 191 55 249 69 58 14 147 38 199 55 51 16 180 52 285 80 302 79
595 197 707 287 64 51 166 193 222 310 27 56 60 154 86 250 41 154 42 162 42
318 0 171 -11 236 -51 316 -55 110 -131 163 -234 164 -36 0 -80 -3 -98 -7 -31
-7 -32 -7 -25 20 5 15 8 77 7 137 0 97 -4 124 -38 235 -118 393 -199 574 -344
767 -53 71 -76 88 -103 78 -8 -3 -26 3 -40 12 -175 117 -230 177 -354 384
-226 382 -347 770 -444 1434 -17 116 -42 287 -56 380 -14 94 -32 216 -40 272
-15 109 -30 174 -101 433 -49 177 -68 223 -142 334 -129 195 -169 226 -293
226 -57 0 -86 -6 -124 -24z m201 -55 c44 -20 82 -65 166 -197 68 -105 74 -121
117 -271 70 -244 102 -385 121 -528 10 -77 25 -180 34 -230 8 -49 18 -117 21
-150 11 -106 74 -490 101 -617 69 -331 153 -599 249 -797 66 -134 165 -311
193 -343 19 -22 18 -22 -46 2 -77 30 -210 28 -277 -4 -98 -46 -189 -168 -236
-316 -38 -123 -47 -202 -37 -323 10 -127 30 -212 72 -302 73 -157 161 -259
302 -352 224 -145 478 -224 821 -255 l137 -12 -43 -18 c-23 -10 -99 -29 -169
-44 -70 -15 -203 -53 -295 -85 -292 -101 -501 -145 -997 -209 -289 -37 -629
-91 -785 -124 -83 -17 -114 -12 -199 33 -81 43 -162 143 -235 289 l-31 62 82
0 c46 0 128 7 182 15 55 8 116 15 137 15 61 0 181 43 261 94 42 27 134 105
215 184 159 154 184 194 239 382 39 135 38 225 -3 350 -17 52 -48 151 -68 220
-113 381 -202 615 -305 803 -37 68 -70 135 -73 149 -4 14 -22 51 -41 82 -89
149 -125 506 -129 1284 -1 348 1 386 20 492 55 289 164 572 260 667 67 67 162
89 239 54z m-759 -2232 c25 -12 92 -66 151 -120 90 -84 114 -113 152 -184 25
-46 61 -112 81 -147 73 -128 92 -165 135 -269 83 -202 301 -888 290 -914 -7
-19 -32 -19 -139 0 -194 34 -348 111 -532 265 -226 191 -384 351 -534 545 -87
111 -237 332 -250 367 -16 43 232 332 355 413 102 68 209 84 291 44z m-597
-654 c186 -280 335 -451 595 -683 173 -155 252 -211 380 -273 128 -61 225 -88
348 -96 82 -5 97 -9 97 -23 0 -25 -59 -217 -85 -275 -24 -56 -109 -152 -199
-227 l-58 -49 -82 6 c-147 12 -431 121 -640 245 -332 198 -624 496 -776 793
-27 54 -50 105 -50 113 0 56 350 639 371 617 3 -5 48 -71 99 -148z m2311 -317
c53 -24 222 -132 335 -213 31 -22 66 -38 85 -40 31 -2 41 -12 102 -101 119
-173 190 -341 296 -699 40 -137 52 -219 42 -282 -13 -85 -16 -87 -161 -80
-406 19 -820 177 -994 378 -50 59 -111 164 -142 246 -33 88 -57 249 -50 338 6
87 58 255 97 316 39 62 130 147 165 154 16 4 34 8 39 11 30 11 135 -4 186 -28z
m-2686 -466 c162 -243 408 -475 671 -635 221 -135 499 -247 655 -265 l64 -8
-45 -29 c-67 -43 -159 -78 -215 -81 -27 -2 -92 -11 -142 -20 -68 -12 -129 -15
-230 -12 -164 6 -201 17 -448 140 -296 148 -380 210 -429 318 -100 220 -111
459 -34 743 l21 79 43 -82 c24 -45 64 -111 89 -148z m3782 -1033 c15 -5 43
-25 61 -42 73 -69 102 -171 102 -358 0 -109 -4 -143 -34 -265 -19 -77 -47
-172 -61 -210 -51 -134 -167 -306 -248 -365 -118 -86 -404 -198 -690 -269 -67
-17 -178 -49 -247 -70 -69 -22 -174 -51 -235 -65 -60 -14 -157 -41 -215 -60
-143 -48 -267 -74 -380 -81 -80 -6 -108 -3 -175 15 -153 42 -337 147 -513 293
-167 140 -228 212 -314 368 -51 93 -171 379 -165 394 6 15 302 126 397 150
170 41 610 114 955 156 436 54 623 93 935 196 124 40 277 84 340 98 63 13 144
36 180 51 182 77 241 89 307 64z"/>
<path d="M28535 21426 c-131 -33 -258 -129 -521 -391 -301 -300 -541 -582
-805 -945 -154 -211 -162 -225 -156 -257 5 -27 2 -29 -55 -47 -33 -10 -72 -29
-87 -40 -14 -12 -39 -30 -56 -40 -72 -45 -168 -133 -225 -207 -52 -67 -65 -78
-76 -67 -29 30 -127 233 -178 371 -30 81 -74 183 -97 227 -77 144 -233 305
-348 358 -73 34 -180 29 -261 -13 -79 -40 -171 -138 -213 -227 -85 -177 -112
-340 -111 -668 0 -247 11 -361 60 -629 57 -311 216 -859 333 -1146 22 -54 38
-101 36 -103 -2 -2 -58 1 -124 7 -148 15 -182 9 -220 -35 -66 -75 -67 -177 -6
-513 12 -66 28 -109 71 -190 31 -58 64 -117 73 -131 9 -14 23 -38 31 -54 8
-16 49 -63 90 -105 67 -68 101 -91 325 -218 327 -186 414 -226 695 -321 419
-141 682 -210 945 -246 61 -8 163 -24 228 -36 204 -35 261 -26 343 51 28 28
63 67 77 87 38 55 68 156 70 233 2 57 -2 72 -21 96 -12 15 -44 57 -70 93 -85
118 -356 372 -444 416 -75 38 -224 90 -336 118 -104 26 -275 91 -467 179 -436
199 -579 268 -767 366 -116 62 -234 119 -262 128 -28 9 -55 20 -60 24 -6 5
-18 9 -28 9 -10 0 -18 5 -18 11 0 6 -16 25 -35 44 -40 37 -80 132 -163 385
-259 792 -345 1393 -267 1850 40 234 137 400 272 467 116 56 203 31 336 -96
133 -127 182 -207 262 -426 52 -143 171 -385 218 -443 40 -50 166 -308 211
-434 97 -268 166 -654 166 -924 l0 -134 24 0 c19 0 27 8 37 37 25 78 -7 418
-68 708 -45 217 -128 444 -238 650 l-54 100 27 31 c15 17 39 47 54 66 15 19
60 61 102 92 41 31 77 64 80 74 9 26 103 80 193 110 129 42 203 37 393 -28 85
-29 183 -66 218 -82 69 -33 96 -33 100 -2 4 26 -50 69 -113 91 -25 8 -47 19
-51 24 -3 5 -16 9 -29 9 -13 0 -48 9 -77 20 -118 43 -217 62 -308 58 l-88 -3
10 24 c11 31 262 370 392 530 161 198 409 472 592 652 343 336 470 396 654
308 103 -49 168 -112 256 -246 133 -201 153 -263 199 -614 l5 -35 -143 -39
c-263 -70 -488 -160 -842 -336 -249 -124 -330 -174 -330 -204 0 -35 41 -29
123 18 203 117 609 307 819 383 134 49 363 115 374 108 10 -6 12 -895 3 -931
-4 -16 -17 -23 -47 -28 -143 -25 -436 -183 -579 -314 -67 -61 -86 -94 -68
-116 7 -8 16 -15 21 -15 5 0 37 27 70 60 117 113 372 267 517 310 40 12 75 21
76 19 4 -4 10 -785 8 -894 l-2 -70 -52 -19 c-72 -25 -196 -94 -207 -114 -20
-40 23 -57 68 -26 12 9 57 34 99 55 l77 39 3 -123 c1 -67 -1 -172 -7 -233 -7
-94 -13 -120 -37 -160 -60 -106 -167 -218 -249 -261 -20 -11 -20 -7 -23 135
-3 151 -11 180 -44 167 -14 -5 -17 -31 -20 -153 -4 -135 -6 -153 -33 -217 -37
-88 -184 -286 -284 -380 -40 -38 -94 -92 -119 -120 -92 -100 -160 -161 -250
-225 -68 -47 -92 -70 -92 -86 0 -29 25 -37 59 -19 61 31 236 177 296 246 35
41 94 101 131 134 82 72 248 279 289 358 28 54 36 61 105 96 41 20 87 45 102
55 43 29 164 180 197 248 29 59 32 76 43 228 6 91 12 449 13 795 1 347 4 844
6 1105 3 506 -2 596 -52 844 -29 145 -113 310 -238 469 -119 153 -315 240
-456 203z m-2870 -3886 c61 -6 133 -17 160 -25 28 -8 75 -21 105 -30 30 -8
163 -71 295 -140 132 -70 301 -153 375 -187 74 -33 209 -95 300 -138 229 -108
469 -205 570 -228 96 -23 275 -84 331 -113 75 -38 366 -304 395 -362 8 -15 37
-52 64 -83 60 -65 64 -96 25 -213 -21 -63 -36 -86 -82 -135 -65 -67 -84 -76
-156 -76 -124 0 -681 102 -902 166 -289 83 -655 213 -790 279 -133 65 -402
213 -510 280 -77 48 -165 152 -242 285 -107 185 -108 189 -149 479 -17 118 -8
189 28 228 24 26 33 27 183 13z"/>
</g>
</svg>
