<?xml version="1.0" encoding="UTF-8" standalone="no"?>
<!DOCTYPE svg PUBLIC "-//W3C//DTD SVG 1.1//EN" "http://www.w3.org/Graphics/SVG/1.1/DTD/svg11.dtd">
<svg width="100%" height="100%" viewBox="0 0 2233 1024" version="1.1" xmlns="http://www.w3.org/2000/svg" xmlns:xlink="http://www.w3.org/1999/xlink" xml:space="preserve" xmlns:serif="http://www.serif.com/" style="fill-rule:evenodd;clip-rule:evenodd;stroke-linejoin:round;stroke-miterlimit:1.5;">
    <g transform="matrix(1,0,0,1,-2661.02,-6981.08)">
        <g id="ArtBoard10" transform="matrix(1.74421,0,0,1,2661.02,6981.08)">
            <rect x="0" y="0" width="1280" height="1024" style="fill:none;"/>
            <g transform="matrix(0.899171,0,0,0.899171,83.1021,51.8848)">
                <g transform="matrix(0.393669,0,0,0.686642,-479.92,-2230.29)">
                    <path d="M3977.12,3779.93C3977.12,3757.05 3958.55,3738.48 3935.67,3738.48L3327.78,3738.48C3304.91,3738.48 3286.34,3757.05 3286.34,3779.93L3286.34,4387.82C3286.34,4410.69 3304.91,4429.26 3327.78,4429.26L3935.67,4429.26C3958.55,4429.26 3977.12,4410.69 3977.12,4387.82L3977.12,3779.93Z" style="fill:rgb(103,234,148);"/>
                    <path d="M3977.12,3779.93C3977.12,3757.05 3958.55,3738.48 3935.67,3738.48L3327.78,3738.48C3304.91,3738.48 3286.34,3757.05 3286.34,3779.93L3286.34,4387.82C3286.34,4410.69 3304.91,4429.26 3327.78,4429.26L3935.67,4429.26C3958.55,4429.26 3977.12,4410.69 3977.12,4387.82L3977.12,3779.93ZM3975.05,3779.93L3975.05,4387.82C3975.05,4409.55 3957.41,4427.19 3935.67,4427.19C3935.67,4427.19 3327.78,4427.19 3327.78,4427.19C3306.05,4427.19 3288.41,4409.55 3288.41,4387.82C3288.41,4387.82 3288.41,3779.93 3288.41,3779.93C3288.41,3758.19 3306.05,3740.55 3327.78,3740.55L3935.67,3740.55C3957.41,3740.55 3975.05,3758.19 3975.05,3779.93Z" style="fill-opacity:0.27;"/>
                </g>
                <g transform="matrix(0.393669,0,0,0.686642,-550.724,-2358.37)">
                    <path d="M3977.12,3779.93C3977.12,3757.05 3958.55,3738.48 3935.67,3738.48L3327.78,3738.48C3304.91,3738.48 3286.34,3757.05 3286.34,3779.93L3286.34,4387.82C3286.34,4410.69 3304.91,4429.26 3327.78,4429.26L3935.67,4429.26C3958.55,4429.26 3977.12,4410.69 3977.12,4387.82L3977.12,3779.93Z" style="fill:rgb(44,45,60);"/>
                </g>
                <g transform="matrix(0.502329,0,0,0.876167,-1497.88,-3065.98)">
                    <path d="M3977.12,3807.56C3977.12,3769.43 3946.17,3738.48 3908.04,3738.48L3355.42,3738.48C3317.29,3738.48 3286.34,3769.43 3286.34,3807.56L3286.34,4360.18C3286.34,4398.31 3317.29,4429.26 3355.42,4429.26L3908.04,4429.26C3946.17,4429.26 3977.12,4398.31 3977.12,4360.18L3977.12,3807.56Z" style="fill:rgb(103,234,148);"/>
                    <path d="M3977.12,3807.56C3977.12,3769.43 3946.17,3738.48 3908.04,3738.48L3355.42,3738.48C3317.29,3738.48 3286.34,3769.43 3286.34,3807.56L3286.34,4360.18C3286.34,4398.31 3317.29,4429.26 3355.42,4429.26L3908.04,4429.26C3946.17,4429.26 3977.12,4398.31 3977.12,4360.18L3977.12,3807.56ZM3975.05,3807.56L3975.05,4360.18C3975.05,4397.17 3945.03,4427.19 3908.04,4427.19C3908.04,4427.19 3355.42,4427.19 3355.42,4427.19C3318.43,4427.19 3288.41,4397.17 3288.41,4360.18L3288.41,3807.56C3288.41,3770.58 3318.43,3740.55 3355.42,3740.55C3355.42,3740.55 3908.04,3740.55 3908.04,3740.55C3945.03,3740.55 3975.05,3770.58 3975.05,3807.56Z" style="fill-opacity:0.27;"/>
                </g>
                <g transform="matrix(0.774971,0,0,0.774971,-121.595,245.12)">
                    <g transform="matrix(1.33412,0,0,2.32699,285.645,-512.07)">
                        <path d="M187.032,410.85L250.896,317.192L314.907,410.702" style="fill:none;stroke:rgb(44,45,60);stroke-width:14.75px;"/>
                    </g>
                    <g transform="matrix(1.34172,0,0,2.34023,341.038,-907.17)">
                        <path d="M81.582,577.266L148.698,478.845" style="fill:none;stroke:rgb(44,45,60);stroke-width:14.67px;"/>
                    </g>
                </g>
            </g>
        </g>
    </g>
</svg>
