<?xml version="1.0" encoding="UTF-8" standalone="no"?>
<!DOCTYPE svg PUBLIC "-//W3C//DTD SVG 1.1//EN" "http://www.w3.org/Graphics/SVG/1.1/DTD/svg11.dtd">
<svg width="100%" height="100%" viewBox="0 0 2233 1024" version="1.1" xmlns="http://www.w3.org/2000/svg" xmlns:xlink="http://www.w3.org/1999/xlink" xml:space="preserve" xmlns:serif="http://www.serif.com/" style="fill-rule:evenodd;clip-rule:evenodd;stroke-miterlimit:10;">
    <g transform="matrix(1,0,0,1,-2661.02,-1071.66)">
        <g id="ArtBoard5" transform="matrix(1.74421,0,0,1,2661.02,1071.66)">
            <rect x="0" y="0" width="1280" height="1024" style="fill:none;"/>
            <clipPath id="_clip1">
                <rect x="0" y="0" width="1280" height="1024"/>
            </clipPath>
            <g clip-path="url(#_clip1)">
                <g transform="matrix(1,0,0,1,553.902,83.122)">
                    <g transform="matrix(1.40256,0,0,2.44636,80.1201,-455.816)">
                        <path d="M250.905,326.97L191.589,413.957L182.475,407.742L246.339,314.085C247.365,312.58 249.069,311.678 250.891,311.677C252.713,311.675 254.418,312.573 255.447,314.077L319.459,407.587L310.356,413.818L250.905,326.97Z"/>
                    </g>
                    <g transform="matrix(1.39424,0,0,2.43184,143.581,-854.762)">
                        <path d="M86.181,580.402L153.296,481.981L144.099,475.709L76.984,574.13L86.181,580.402Z"/>
                    </g>
                </g>
                <g transform="matrix(1,0,0,1,-193.6,83.122)">
                    <g transform="matrix(1.40256,0,0,2.44636,80.1201,-458.102)">
                        <path d="M250.905,326.97L191.589,413.957L182.475,407.742L246.339,314.085C247.365,312.58 249.069,311.678 250.891,311.677C252.713,311.675 254.418,312.573 255.447,314.077L319.459,407.587L310.356,413.818L250.905,326.97Z" style="fill-opacity:0.18;"/>
                    </g>
                    <g transform="matrix(1.39424,0,0,2.43184,143.581,-854.667)">
                        <path d="M86.181,580.402L153.296,481.981L144.099,475.709L76.984,574.13L86.181,580.402Z" style="fill-opacity:0.18;"/>
                    </g>
                </g>
                <g transform="matrix(0.573325,0,0,1,-1366.17,-988.105)">
                    <g transform="matrix(1,-0,-0,1,2382.88,988.105)">
                        <path d="M670.307,394.569L662.166,386.428L654.024,394.569" style="fill:none;stroke:rgb(13,121,242);stroke-width:3.05px;"/>
                        <path d="M670.322,502.041L662.166,510.197L654.009,502.041" style="fill:none;stroke:rgb(13,121,242);stroke-width:3.05px;"/>
                        <path d="M662.166,386.428L662.166,510.197" style="fill:none;stroke:rgb(13,121,242);stroke-width:3.05px;stroke-linejoin:bevel;stroke-miterlimit:1.8;"/>
                    </g>
                </g>
                <g transform="matrix(0.573325,0,0,1,-839.231,-730.392)">
                    <g transform="matrix(1,-0,-0,1,1463.79,730.392)">
                        <path d="M1589.39,652.282L1581.25,644.14L1573.11,652.282" style="fill:none;stroke:rgb(13,121,242);stroke-width:3.05px;"/>
                        <path d="M1589.41,759.754L1581.25,767.91L1573.1,759.754" style="fill:none;stroke:rgb(13,121,242);stroke-width:3.05px;"/>
                        <path d="M1581.25,644.14L1581.25,767.91" style="fill:none;stroke:rgb(13,121,242);stroke-width:3.05px;stroke-linejoin:bevel;stroke-miterlimit:1.8;"/>
                    </g>
                </g>
                <g transform="matrix(0.573325,0,0,1,-840.793,-1114.12)">
                    <g transform="matrix(1,-0,-0,1,1466.52,1114.12)">
                        <path d="M1586.67,268.559L1578.53,260.417L1570.38,268.559" style="fill:none;stroke:rgb(13,121,242);stroke-width:3.05px;"/>
                        <path d="M1586.68,376.03L1578.53,384.186L1570.37,376.03" style="fill:none;stroke:rgb(13,121,242);stroke-width:3.05px;"/>
                        <path d="M1578.53,260.417L1578.53,384.186" style="fill:none;stroke:rgb(13,121,242);stroke-width:3.05px;stroke-linejoin:bevel;stroke-miterlimit:1.8;"/>
                    </g>
                </g>
                <g transform="matrix(5.25545e-17,1.49702,-0.723376,7.7258e-17,2168.69,-4039.1)">
                    <g transform="matrix(4.09028e-17,-0.792569,0.667993,4.85309e-17,2698.09,2998.01)">
                        <path d="M2040.8,527.538L2048.94,519.396L2040.8,511.254" style="fill:none;stroke:rgb(13,121,242);stroke-width:3.05px;"/>
                        <path d="M1899.8,527.552L1891.64,519.396L1899.8,511.24" style="fill:none;stroke:rgb(13,121,242);stroke-width:3.05px;"/>
                        <path d="M2048.94,519.396L1891.64,519.396" style="fill:none;stroke:rgb(13,121,242);stroke-width:3.05px;stroke-linejoin:bevel;stroke-miterlimit:1.8;"/>
                    </g>
                </g>
                <g transform="matrix(5.25545e-17,1.49702,-0.723376,7.7258e-17,1794.69,-4039.1)">
                    <g transform="matrix(4.09028e-17,-0.792569,0.667993,4.85309e-17,2698.09,2480.99)">
                        <path d="M1388.47,527.538L1396.61,519.396L1388.47,511.254" style="fill:none;stroke:rgb(13,121,242);stroke-width:3.05px;"/>
                        <path d="M1247.47,527.552L1239.32,519.396L1247.47,511.24" style="fill:none;stroke:rgb(13,121,242);stroke-width:3.05px;"/>
                        <path d="M1396.61,519.396L1239.32,519.396" style="fill:none;stroke:rgb(13,121,242);stroke-width:3.05px;stroke-linejoin:bevel;stroke-miterlimit:1.8;"/>
                    </g>
                </g>
                <g transform="matrix(1.59828,0,0,2.78774,-3646.18,-3411.11)">
                    <path d="M2669.71,1361.77L3131.92,1361.77" style="fill:none;stroke:black;stroke-opacity:0.33;stroke-width:0.66px;stroke-linejoin:bevel;stroke-miterlimit:1.8;"/>
                </g>
                <g transform="matrix(1.59828,0,0,2.78774,-3646.18,-3155.36)">
                    <path d="M2669.71,1361.77L3131.92,1361.77" style="fill:none;stroke:black;stroke-opacity:0.33;stroke-width:0.66px;stroke-linejoin:bevel;stroke-miterlimit:1.8;"/>
                </g>
                <g transform="matrix(1.59828,0,0,2.78774,-3646.18,-3539.09)">
                    <path d="M2669.71,1361.77L3131.92,1361.77" style="fill:none;stroke:black;stroke-opacity:0.33;stroke-width:0.66px;stroke-linejoin:bevel;stroke-miterlimit:1.8;"/>
                </g>
                <g transform="matrix(8.17002e-17,-2.32724,0.732025,7.81817e-17,85.4685,7274.44)">
                    <path d="M2669.71,1361.77L3131.92,1361.77" style="fill:none;stroke:black;stroke-opacity:0.33;stroke-width:0.99px;stroke-linejoin:bevel;stroke-miterlimit:1.8;"/>
                </g>
                <g transform="matrix(8.00443e-17,-2.28007,1.27396,1.36062e-16,-1026.52,7136.25)">
                    <path d="M2669.71,1361.77L3131.92,1361.77" style="fill:none;stroke:black;stroke-opacity:0.33;stroke-width:0.82px;stroke-linejoin:bevel;stroke-miterlimit:1.8;"/>
                </g>
                <g transform="matrix(8.17002e-17,-2.32724,0.732025,7.81817e-17,180.585,7274.44)">
                    <path d="M2669.71,1361.77L3131.92,1361.77" style="fill:none;stroke:black;stroke-opacity:0.33;stroke-width:0.99px;stroke-linejoin:bevel;stroke-miterlimit:1.8;"/>
                </g>
                <g transform="matrix(8.07687e-17,-2.30071,1.28549,1.37293e-16,-947.103,7196.79)">
                    <path d="M2669.71,1361.77L3131.92,1361.77" style="fill:none;stroke:black;stroke-opacity:0.33;stroke-width:0.81px;stroke-linejoin:bevel;stroke-miterlimit:1.8;"/>
                </g>
                <g transform="matrix(0.997816,0,0,1.85509,-2723.21,-2014.1)">
                    <path d="M2669.71,1361.77L3131.92,1361.77" style="fill:none;stroke:black;stroke-opacity:0.27;stroke-width:1.03px;stroke-linejoin:bevel;stroke-miterlimit:1.8;"/>
                </g>
                <g transform="matrix(0.997816,0,0,1.85509,-2723.21,-2142.19)">
                    <path d="M2669.71,1361.77L3131.92,1361.77" style="fill:none;stroke:black;stroke-opacity:0.27;stroke-width:1.03px;stroke-linejoin:bevel;stroke-miterlimit:1.8;"/>
                </g>
                <g transform="matrix(1.60098,0,0,2.79245,-3653.4,-3034.24)">
                    <path d="M2669.71,1361.77L3131.92,1361.77" style="fill:none;stroke:black;stroke-opacity:0.33;stroke-width:0.66px;stroke-linejoin:bevel;stroke-miterlimit:1.8;"/>
                </g>
                <g transform="matrix(0.573325,0,0,1,-1880.87,-991.375)">
                    <g transform="matrix(0.997582,0,0,1,9.65718,0)">
                        <text x="3993.96px" y="1435.1px" style="font-family:'ArialMT', 'Arial', sans-serif;font-size:30px;fill:rgb(13,121,242);">Base unit:</text>
                    </g>
                    <g transform="matrix(0.997582,0,0,1,9.65718,0)">
                        <text x="3993.96px" y="1466.09px" style="font-family:'ArialMT', 'Arial', sans-serif;font-size:30px;fill:rgb(13,121,242);">50% of logo height</text>
                    </g>
                </g>
                <g transform="matrix(0.573325,0,0,1,-1353.29,-733.426)">
                    <g transform="matrix(0.997582,0,0,1,9.65718,0)">
                        <text x="3993.96px" y="1435.1px" style="font-family:'ArialMT', 'Arial', sans-serif;font-size:30px;fill:rgb(13,121,242);">Bottom Margin:</text>
                    </g>
                    <g transform="matrix(0.997582,0,0,1,9.65718,0)">
                        <text x="3993.96px" y="1466.09px" style="font-family:'ArialMT', 'Arial', sans-serif;font-size:30px;fill:rgb(13,121,242);">1u</text>
                    </g>
                </g>
                <g transform="matrix(0.573325,0,0,1,-1353.29,-1120.6)">
                    <g transform="matrix(0.997582,0,0,1,9.65718,0)">
                        <text x="3993.96px" y="1435.1px" style="font-family:'ArialMT', 'Arial', sans-serif;font-size:30px;fill:rgb(13,121,242);">T<tspan x="4008.95px 4025.64px " y="1435.1px 1435.1px ">op</tspan> Margin:</text>
                    </g>
                    <g transform="matrix(0.997582,0,0,1,9.65718,0)">
                        <text x="3993.96px" y="1466.09px" style="font-family:'ArialMT', 'Arial', sans-serif;font-size:30px;fill:rgb(13,121,242);">1u</text>
                    </g>
                </g>
                <g transform="matrix(0.573325,0,0,1,-1154.79,-857.228)">
                    <g transform="matrix(0.997582,0,0,1,9.65718,0)">
                        <text x="3993.96px" y="1435.1px" style="font-family:'ArialMT', 'Arial', sans-serif;font-size:30px;fill:rgb(13,121,242);">Right Margin:</text>
                    </g>
                    <g transform="matrix(0.997582,0,0,1,9.65718,0)">
                        <text x="3993.96px" y="1466.09px" style="font-family:'ArialMT', 'Arial', sans-serif;font-size:30px;fill:rgb(13,121,242);">1.3u</text>
                    </g>
                </g>
                <g transform="matrix(0.573325,0,0,1,-1629.16,-856.138)">
                    <g transform="matrix(0.997582,0,0,1,9.65718,0)">
                        <text x="3993.96px" y="1435.1px" style="font-family:'ArialMT', 'Arial', sans-serif;font-size:30px;fill:rgb(13,121,242);">Left Margin:</text>
                    </g>
                    <g transform="matrix(0.997582,0,0,1,9.65718,0)">
                        <text x="3993.96px" y="1466.09px" style="font-family:'ArialMT', 'Arial', sans-serif;font-size:30px;fill:rgb(13,121,242);">1.3u</text>
                    </g>
                </g>
                <g transform="matrix(0.573325,0,0,1,-1572.84,-959.489)">
                    <path d="M3068.57,1471.57L3148.59,1354.23C3151.1,1350.54 3155.26,1348.34 3159.72,1348.33C3164.18,1348.33 3168.35,1350.53 3170.87,1354.2L3251.21,1471.57L3218.51,1471.57L3159.76,1385.75L3101.23,1471.57L3068.57,1471.57Z"/>
                </g>
                <g transform="matrix(0.573325,0,0,1,-1572.84,-959.489)">
                    <path d="M2920.34,1470.95L3007.07,1343.76L3029.43,1359.02L2953.1,1470.95L2920.34,1470.95Z"/>
                </g>
            </g>
        </g>
    </g>
</svg>
