<svg data-name="Layer 1" xmlns="http://www.w3.org/2000/svg" viewBox="0 0 999.98883392 965.77392148">
  <path d="M94.02571623 0H906.4328295c51.63496446 0 93.55600441 41.92103995 93.55600441 93.55600441v492.87820263H.46971182V93.55600441C.46971181 41.92103995 42.39075175 0 94.02571621 0Z" fill="#67ea94"/>
  <path d="M0 586.43420704h999.98883392v285.72276127c0 51.668603-41.94835017 93.61695317-93.61695317 93.61695317H93.61695317C41.94835017 965.77392148 0 923.82557131 0 872.15696831V586.43420704Zm618.3777082-399.16738602c-5.3772583 7.61123658-10.86776734 15.31230927-16.28649903 23.06357575-63.5640564 90.92436218-127.11730957 181.8564148-190.67449951 272.78567505-2.57666016 3.68614196-5.21365357 7.33122253-7.7307129 11.05741882-2.11047363 3.12428284-4.4967041 3.4553833-7.5991516 1.36560059-14.09225464-9.49255371-28.30471802-18.8083191-42.32528687-28.40501404-5.18875122-3.55155945-5.2151184-5.17643738-1.07546997-11.102417 21.89382934-31.34074401 43.82373047-62.6563568 65.76589966-93.96327209 35.99588012-51.35884094 72.01721191-102.69978332 108.0152893-154.0569992 21.08267212-30.07784272 42.14501953-60.169899 63.2088318-90.2609253 14.48638915-20.69499206 42.915802-19.50565338 54.99554442-2.13283539 12.12121582 17.4324646 24.80181885 34.47468567 37.07043457 51.80605317 68.28671265 96.46566009 136.52389527 192.96631622 204.7730713 289.4585495 4.83398437 6.83450317 4.75012206 7.29377746-2.44189454 12.20274352-10.73217773 7.32559205-21.49291992 14.60897828-32.24285888 21.90856934-2.89416504 1.965271-5.75006104 3.99124146-8.69897461 5.87095642-4.70306397 2.99775696-5.7923584 2.85314942-9.11407471-1.8668518-9.05941773-12.87350464-17.99404907-25.83485413-26.99331665-38.75083924-61.4230957-88.1558075-122.84664917-176.31124878-184.30307007-264.44373321-1.09762573-1.57406617-1.72393799-3.6506424-4.34326172-4.53625489ZM158.50339328 497.81948673c-.94995118-.6002655-2.02084351-1.23509216-3.04888916-1.93304443-13.6303711-9.25309753-27.30532837-18.44174194-40.8562317-27.80996704-5.65786743-3.9115448-5.6852417-4.70787048-1.49990844-10.69386292 44.36773681-63.45606994 88.7614746-126.8939209 133.1437683-190.33973693 38.798584-55.46374512 77.59167481-110.931427 116.38842774-166.39645386.85858155-1.22744751 1.72164917-2.45217133 2.60211182-3.66394043 1.0862732-1.49487305 2.37478638-1.59171295 3.84658813-.5487671 1.22195435.86599732 2.48181153 1.67857362 3.7112732 2.5341568 12.91644287 8.9878235 25.85861206 17.939003 38.73156738 26.98871613 5.69503784 4.00360108 5.65429688 4.11161042 1.6690979 9.81170655-31.48590088 45.0342636-62.98114014 90.0619812-94.47427368 135.09118652-38.07806397 54.44425964-76.15557861 108.88897705-114.2359314 163.33158875-13.8866272 19.85325622-27.77627563 39.70445251-41.68112182 59.54493713-1.11419678 1.58995056-1.84744263 3.6130371-4.29647827 4.08348083Z" fill="#2c2d3c"/>
  <path d="M137.89637624 696.70525091c20.96875 0 37.06689453 3.79101562 48.29785156 11.36816406 11.22802734 7.58105469 16.84326172 19.99316406 16.84326172 37.234375 0 17.38476563-5.6821289 29.93261719-17.04638672 37.65039063-11.36425781 7.71875-27.59863281 11.57714843-48.70361328 11.57714843h-9.94283113c-.00029174 0-.00052825.0002365-.00052825.00052825v48.3924982c0 .00029174-.0002365.00052824-.00052824.00052824H95.68694355c-.00029175 0-.00052825-.0002365-.00052825-.00052825l-6e-8-142.46778481c0-.00025342.00017693-.0004723.00042536-.0005223 6.89977712-1.38862654 14.20529948-2.36320732 21.91656689-2.91983651 7.71142578-.5546875 14.47460937-.83496094 20.29296875-.83496094Zm2.02929687 27.74316406c-2.30175781 0-4.56591797.07128906-6.79833984.20898438-2.2317392.13963627-4.15982035.28024894-5.78274755.41695605-.00027315.00002301-.00046607.00025034-.00046607.00052446l.0000105 41.71675617c0 .00029213.00023681.00052894.00052894.00052894h9.94283043c10.9584961 0 19.20898437-1.52832031 24.7578125-4.58886719 5.54589844-3.05664062 8.3203125-8.76074218 8.3203125-17.10449218 0-4.03125-.71044922-7.36914063-2.13085938-10.01269532-1.42041015-2.63964843-3.44970703-4.76171875-6.08789062-6.36132812-2.6381836-1.59765625-5.85351563-2.71191406-9.63916016-3.33789063-3.78955078-.62597656-7.984375-.93847656-12.58203125-.93847656Zm181.62402344 63.41210938c0 8.62402343-1.21777344 16.51464843-3.65283203 23.67480468-2.4350586 7.1640625-5.95507813 13.28222657-10.55273438 18.35644532-4.60058593 5.078125-10.11474609 9.00585937-16.53857422 11.78515625-6.42724609 2.78027343-13.63134765 4.171875-21.61230468 4.171875-7.84765625 0-14.98535157-1.39160157-21.40966797-4.171875-6.42675781-2.77929688-11.94091797-6.70703125-16.53857422-11.78515625-4.60107422-5.07421875-8.18701172-11.19238282-10.7553711-18.35644532-2.57177734-7.16015625-3.85595703-15.05078125-3.85595703-23.67480468 0-8.62109375 1.31933594-16.47851563 3.95703125-23.57128907 2.6381836-7.09179687 6.29101563-13.140625 10.9584961-18.14746093 4.66748047-5.00585938 10.2133789-8.89746094 16.640625-11.68066407 6.42382812-2.78027343 13.42529297-4.171875 21.00341797-4.171875 7.71142578 0 14.7788086 1.39160157 21.20605468 4.171875 6.42431641 2.78320313 11.93847657 6.6748047 16.5390625 11.68066407 4.59765625 5.00683593 8.18408204 11.05566406 10.7553711 18.14746093 2.56835937 7.09277344 3.85595703 14.95019532 3.85595703 23.57128907Zm-30.84570313 0c0-9.59570313-1.86132812-17.13769532-5.5805664-22.6328125-3.72265625-5.49121094-9.03076172-8.23925782-15.93017578-8.23925782-6.89990235 0-12.24560547 2.74804688-16.03173828 8.23925782-3.7890625 5.49511718-5.68212891 13.03710937-5.68212891 22.6328125 0 9.59472656 1.8930664 17.20898437 5.6821289 22.84082031 3.78613282 5.63183594 9.13183594 8.44824219 16.03173829 8.44824219 6.89941406 0 12.20751953-2.81640625 15.93017578-8.44824219 3.71923828-5.63183594 5.5805664-13.24609375 5.5805664-22.84082031Zm117.19410668-7.92385149c-.00020084-.00078497-.0012947-.00078332-.00149579.00000158-2.70778619 10.56932973-5.5805853 21.06640777-8.62425151 31.49513897-3.0439098 10.4295658-6.25871403 20.93041898-9.63904558 31.4967019-.0000699.00021848-.00027361.00036792-.00050301.00036792l-23.5392961.00001198c-.00020684 0-.00039149-.00011905-.00047125-.00030988-2.4413693-5.84073135-5.08928163-12.79279186-7.93640672-20.8590766-2.85058593-8.06347657-5.80273437-16.86035157-8.85302734-26.38671876-3.05322266-9.5234375-6.17333984-19.60742187-9.36328125-30.24609375-3.18987528-10.63747479-6.27477444-21.38041396-9.25860077-32.22686729-.0000926-.00033662.00016097-.00067084.0005101-.00067084l31.85922896-.0000195c.0002455 0 .00045643.00016498.00050854.00040487 1.08737038 5.00571346 2.27679961 10.4655641 3.57022817 16.3746137 1.29345703 5.91210937 2.6538086 11.99414062 4.08398437 18.25097656 1.43017579 6.2578125 2.92675782 12.55175781 4.49316407 18.87792969 1.56298815 6.33007762 3.16113255 12.41113184 4.79736321 18.25195198 1.7563479-6.11718696 3.48144546-12.37499917 5.17480476-18.77343636 1.6899414-6.39453125 3.31347656-12.68847656 4.87011718-18.87792968 1.55371094-6.18554688 3.04394532-12.16601563 4.46484375-17.93847657 1.42037722-5.76842092 2.66937567-11.1599062 3.75381065-16.16562012.00005272-.00024336.00026652-.00041126.00051553-.00041126l21.91614611.00001155c.00024924 0 .00046334.0001683.00051595.00041193 1.08102897 5.00573535 2.29877394 10.39720498 3.65225395 16.1656079 1.35107422 5.77246094 2.77148438 11.7529297 4.26171875 17.93847657 1.48730469 6.18945312 3.04394531 12.48339843 4.66748047 18.87792968 1.6235315 6.39842307 3.31346894 12.65622177 5.07323046 18.77343746 1.63281652-5.84079159 3.26612116-11.92186003 4.8989375-18.25195308 1.6328125-6.32617188 3.16455079-12.62011719 4.59472657-18.87792969 1.42675781-6.25683594 2.78710938-12.33886719 4.0805664-18.25097656 1.29395167-5.90920869 2.48292183-11.36919421 3.5737346-16.37501842-.00000399.00001841 31.42791898.00001935 31.45407743.00001935.00034823 0-.00007547.0003334-.00016792.00066914-2.98675606 10.8464539-6.07165538 21.58939364-9.26153082 32.226869-3.1899414 10.63867187-6.3100586 20.72265624-9.36035156 30.24609374-3.05322266 9.52636719-6.03710938 18.32324219-8.95410157 26.38671875-2.91743618 8.0662838-5.59659834 15.01834361-8.0379676 20.85907558-.00007996.0001913-.000265.00031056-.00047235.00031056l-23.53929769-.00001184c-.0002299 0-.0004339-.0001496-.00050402-.00036855-3.38326175-10.56628304-6.69669872-21.06713575-9.943731-31.49670106-3.24677268-10.4287315-6.22357533-20.92580986-8.92796362-31.49514055Zm86.95530739 8.96682024c0-9.73242188 1.45214843-18.25195313 4.36328125-25.55273438 2.90722656-7.30078125 6.72851562-13.3828125 11.46582031-18.25195312 4.73339844-4.86621094 10.17773437-8.55175782 16.3359375-11.05566407 6.15429687-2.50292968 12.48046875-3.75390625 18.97363281-3.75390625 15.15039063 0 27.12304688 4.76464844 35.91894531 14.28808594 8.79296875 9.52734375 13.1904297 23.53808594 13.1904297 42.03125 0 1.80957031-.06933595 3.79101563-.20214845 5.9453125-.13670706 2.15704213-.27341412 4.0670562-.40621539 5.73586675-.00002183.00027435-.00025001.00047249-.00052523.00047249l-68.58970316-.00000138c-.00030357 0-.00054415.00027478-.0005123.00057667.67487702 6.3972001 3.58305853 11.47219028 8.72547171 15.22695266 5.140625 3.75390625 12.04003906 5.63183594 20.69921875 5.63183594 5.54589844 0 10.99023437-.52148438 16.3359375-1.56445313 5.34248347-1.04291214 9.70558108-2.32700905 13.0882604-3.8591397.00032085-.00014533.00067184.00005782.00072778.00040558l4.05939714 25.23918908c.00003632.00022577-.00006534.00044494-.00026875.0005494-1.62395354.83393605-3.78987483 1.66787215-6.4938197 2.5027847-2.7080078.83398438-5.71679687 1.56445313-9.03027343 2.1904297-3.31738282.625-6.86816407 1.14648437-10.65429688 1.56445312-3.7890625.41699218-7.578125.625-11.36425781.625-9.60742188 0-17.95898438-1.45996094-25.06152344-4.37988282-7.10351562-2.92089843-12.98828125-6.91601562-17.65527344-11.99414062-4.66796875-5.07519531-8.1171875-11.08789063-10.34960937-18.04296875-2.23242188-6.95214844-3.34863281-14.46191406-3.34863281-22.52832031Zm71.02579579-11.88964862c.00030703 0 .00055521-.00026352.00053933-.00057014-.13675016-2.64042569-.57716986-5.2144538-1.31930387-7.71720312-.74511719-2.50390625-1.89550782-4.7265625-3.44921875-6.67578125-1.55761719-1.9453125-3.52050782-3.54589844-5.88574219-4.796875-2.36816406-1.25195312-5.31054688-1.87792969-8.82714844-1.87792969-3.38378906 0-6.29101562.59375-8.7265625 1.7734375-2.43457031 1.1826172-4.46386719 2.74707032-6.08789062 4.69335938-1.62304688 1.94921875-2.87597657 4.20800781-3.75390625 6.77929687-.88176701 2.57401754-1.52236079 5.181233-1.92763528 7.82164698-.00004962.0003233.00020394.00061846.00053102.00061846h39.97633755Zm117.29463834-16.27104218c-.00005878.00029725-.00033972.00048716-.00063322.00041188-2.7068832-.69429673-5.88446296-1.4237493-9.53659779-2.19030702-3.65332031-.76269531-7.578125-1.14648438-11.77050781-1.14648438-1.89550781 0-4.16015625.17578125-6.79785156.52148438-2.63850055.34861018-4.63548285.72944273-5.98599835 1.14640688-.00022118.00006828-.00035201.0002683-.00035201.00049977l.00002223 83.8535424c0 .00029134-.00023617.00052751-.0005275.00052751h-30.2362484c-.00029204 0-.00052879-.00023675-.00052879-.00052879l-.00002033-103.87799311c0-.00020877.00012594-.00039385.00032239-.00046453 5.40906754-1.94626357 11.8015653-3.78705506 19.17645576-5.52824013 7.37304687-1.73632813 15.59179687-2.60644531 24.65625-2.60644531 1.62402343 0 3.58300781.10351562 5.88574218.3125 2.29882813.20898437 4.59765625.48925781 6.89941407.83398437 2.29882812.34863281 4.59765625.76660156 6.89941406 1.25195313 2.29864484.4892188 4.26140575 1.0790075 5.88534983 1.77229629.00023383.00009982.00035726.00034831.00030793.00059773l-5.07401269 25.65625893Zm14.61120649 28.1606908c0-9.73242188 1.45214844-18.25195313 4.36328125-25.55273438 2.90722656-7.30078125 6.72851563-13.3828125 11.46582031-18.25195312 4.73339844-4.86621094 10.17773438-8.55175782 16.3359375-11.05566407 6.15429688-2.50292968 12.48046875-3.75390625 18.97363282-3.75390625 15.15039062 0 27.12304687 4.76464844 35.91894531 14.28808594 8.79296875 9.52734375 13.19042969 23.53808594 13.19042969 42.03125 0 1.80957031-.06933594 3.79101563-.20214844 5.9453125-.13670706 2.15704213-.27341412 4.0670562-.4062154 5.73586675-.00002183.00027435-.00025.00047249-.00052522.00047249l-68.58970317-.00000138c-.00030357 0-.00054414.00027478-.0005123.00057667.67487703 6.3972001 3.58305854 11.47219028 8.72547171 15.22695266 5.140625 3.75390625 12.04003907 5.63183594 20.69921875 5.63183594 5.54589844 0 10.99023438-.52148438 16.3359375-1.56445313 5.34248348-1.04291214 9.70558108-2.32700905 13.0882604-3.8591397.00032085-.00014533.00067185.00005782.00072778.00040558l4.05939715 25.23918908c.00003631.00022577-.00006535.00044494-.00026876.0005494-1.62395354.83393605-3.78987482 1.66787215-6.49381969 2.5027847-2.70800781.83398438-5.71679688 1.56445313-9.03027344 2.1904297-3.31738281.625-6.86816406 1.14648437-10.65429687 1.56445312-3.7890625.41699218-7.578125.625-11.36425782.625-9.60742187 0-17.95898437-1.45996094-25.06152343-4.37988282-7.10351563-2.92089843-12.98828125-6.91601562-17.65527344-11.99414062-4.66796875-5.07519531-8.1171875-11.08789063-10.34960938-18.04296875-2.23242187-6.95214844-3.3486328-14.46191406-3.3486328-22.52832031Zm71.02579579-11.88964862c.00030703 0 .00055522-.00026352.00053934-.00057014-.13675017-2.64042569-.57716986-5.2144538-1.31930388-7.71720312-.74511719-2.50390625-1.89550781-4.7265625-3.44921875-6.67578125-1.55761719-1.9453125-3.52050781-3.54589844-5.88574219-4.796875-2.36816406-1.25195312-5.31054687-1.87792969-8.82714843-1.87792969-3.38378907 0-6.29101563.59375-8.7265625 1.7734375-2.43457032 1.1826172-4.46386719 2.74707032-6.08789063 4.69335938-1.62304687 1.94921875-2.87597656 4.20800781-3.75390625 6.77929687-.881767 2.57401754-1.52236078 5.181233-1.92763527 7.82164698-.00004962.0003233.00020394.00061846.00053102.00061846h39.97633754Zm147.12557973 62.36874151c0 .00022966-.00014237.0004309-.00036185.00049852-2.70692947.83395002-5.81814812 1.63567382-9.33460742 2.39833827-3.51953125.76660157-7.203125 1.4248047-11.05957031 1.98144532-3.85546875.5546875-7.78125 1.0078125-11.76953125 1.35644531-3.9921875.34570312-7.81347656.52148437-11.46582031.52148437-8.79589844 0-16.640625-1.32324218-23.54003907-3.96386718-6.89941406-2.63964844-12.71875-6.4296875-17.45214843-11.36816407-4.73730469-4.9345703-8.35546875-10.91503906-10.85742188-17.93847656-2.50488281-7.02050781-3.75390625-14.91503906-3.75390625-23.67578125 0-8.89746094 1.08105469-16.92871094 3.24707031-24.09179687 2.16210938-7.16113282 5.2763672-13.24609375 9.33496094-18.25195313 4.05859375-5.00683594 9.03027344-8.82910156 14.91503906-11.47265625 5.8857422-2.63964844 12.61425782-3.96289062 20.19238282-3.96289062 4.19140625 0 7.9453125.41699218 11.26269531 1.25097656 3.31323444.83392343 6.66064356 2.01740515 10.04418046 3.545567.00034721.00015682.00074129-.0000913.00074129-.00047228l1.2e-7-49.64327956c0-.00025844.000187-.00047894.00044196-.00052116l30.23527145-5.00666096c.00032191-.0000533.00061472.000195.00061472.0005213l.00000833 158.32124324Zm-68.38770364-52.1480382c0 9.59570312 2.09570312 17.31347656 6.29101562 23.15429687 4.19140625 5.83984375 10.41601563 8.76074219 18.66992188 8.76074219 2.70410156 0 5.20605468-.10449219 7.5078125-.31347657 2.2986249-.20798942 4.19204803-.4491761 5.6822054-.72941946.00025166-.00004732.0004173-.00026522.0004173-.00052128l.00001297-56.52753893c0-.00016391-.00007829-.00031537-.00021508-.00040568-1.89641017-1.25193202-4.36316017-2.2948697-7.40702997-3.1288334-3.04394531-.83496093-6.12304687-1.25195312-9.23339844-1.25195312-14.34179687 0-21.51074218 10.01269531-21.51074218 30.03710937Z" fill="#fff" stroke="#2c2d3c" stroke-miterlimit="10" stroke-width="4"/>
</svg>
