<?xml version="1.0" encoding="utf-8"?>
<!-- Generator: Fusion 360, Shaper Origin Export Add-In, Version 1.6.3  -->
<svg xmlns="http://www.w3.org/2000/svg" xmlns:xlink="http://www.w3.org/1999/xlink" xmlns:shaper="http://www.shapertools.com/namespaces/shaper" shaper:fusionaddin="version:1.6.3" width="2.4889103cm" height="2.4063027cm" version="1.1" x="0cm" y="0cm" viewBox="0 0 2.4889103 2.4063027" enable-background="new 0 0 2.4889103 2.4063027" xml:space="preserve"><path d="M1.8315136,-0.5116417 L1.8315136,-0.5116417 1.8324722,-0.5275281 1.8335251,-0.5352886 1.8352663,-0.5428295 1.837799,-0.5499082 1.8410307,-0.5566052 1.8448881,-0.5633009 1.8492976,-0.5703756 1.8492976,-0.5703756 1.8599627,-0.5797872 1.8654308,-0.5836436 1.8713116,-0.5867134 1.877691,-0.5888599 1.884415,-0.5902285 1.8984375,-0.5916695 1.8984375,-0.5916695 1.9101091,-0.5914242 1.9216035,-0.5904995 1.9216035,-0.5904995 1.9372815,-0.5879255 1.9372815,-0.4475257 1.9372815,-0.4475257 1.9277147,-0.4421391 1.9173915,-0.4379318 1.9173915,-0.4379318 1.9043685,-0.4345616 1.8909495,-0.4334858 1.8909495,-0.4334858 1.8795134,-0.4345106 1.8687263,-0.4368735 1.8637277,-0.4390008 1.8583247,-0.442484 1.8520382,-0.4480259 1.8457876,-0.4545457 1.8457876,-0.4545457 1.8422008,-0.4616304 1.8390831,-0.4682758 1.8364845,-0.4748612 1.834455,-0.4817659 1.8322369,-0.4965058 1.8315136,-0.5116417z" transform="matrix(1,0,0,-1,0.2,1.3573335)" fill="rgb(0,0,0)" shaper:cutDepth="0" stroke-linecap="round" stroke-linejoin="round" /><path d="M0.2262762,-0.3581379 L0.2262762,-0.3581379 0.2075998,-0.3584176 0.1987001,-0.3588733 0.1893042,-0.3595419 0.1893042,-0.4699897 0.2178522,-0.4699897 0.2178522,-0.4699897 0.2349476,-0.4695167 0.2517822,-0.4677283 0.2597113,-0.4660357 0.2672869,-0.4638443 0.2750076,-0.4611768 0.2833721,-0.4580557 0.2833721,-0.4580557 0.2917604,-0.4511694 0.2987971,-0.4435565 0.3015416,-0.4389395 0.3028379,-0.4358096 0.3040063,-0.4319167 0.3055603,-0.4226319 0.306304,-0.4128938 0.306304,-0.4128938 0.3059477,-0.4059217 0.3049762,-0.3990955 0.3030036,-0.3927152 0.30022,-0.3862178 0.30022,-0.3862178 0.2968124,-0.3812015 0.2929661,-0.3766239 0.2883884,-0.3727775 0.2833721,-0.3693699 0.2833721,-0.3693699 0.2710214,-0.3639608 0.2578661,-0.3607119 0.2578661,-0.3607119 0.2421408,-0.3587438 0.2262762,-0.3581379z" transform="matrix(1,0,0,-1,0.2,1.3573335)" fill="rgb(0,0,0)" shaper:cutDepth="0" stroke-linecap="round" stroke-linejoin="round" /><path d="M1.6705218,-0.4882417 L1.6705218,-0.4882417 1.6697272,-0.4769989 1.6672459,-0.4660117 1.6672459,-0.4660117 1.6633299,-0.4564125 1.6576519,-0.4477598 1.6576519,-0.4477598 1.6505975,-0.4408296 1.6422079,-0.4355918 1.6422079,-0.4355918 1.6316199,-0.4321355 1.620446,-0.4311458 1.620446,-0.4311458 1.6086628,-0.4322651 1.6031261,-0.433861 1.597514,-0.4360598 1.597514,-0.4360598 1.5885512,-0.4416531 1.5809,-0.4489297 1.5809,-0.4489297 1.5748124,-0.4575783 1.57037,-0.4671817 1.57037,-0.4671817 1.5672169,-0.4775703 1.565222,-0.4882417 1.6705218,-0.4882417z" transform="matrix(1,0,0,-1,0.2,1.3573335)" fill="rgb(0,0,0)" shaper:cutDepth="0" stroke-linecap="round" stroke-linejoin="round" /><path d="M0.5824236,-0.5121096 L0.5824236,-0.5121096 0.5816011,-0.4966755 0.5806808,-0.489104 0.5791499,-0.4817075 0.5769188,-0.474725 0.5740676,-0.4680821 0.5706565,-0.461403 0.5667457,-0.4543117 0.5667457,-0.4543117 0.5574635,-0.4449731 0.5525641,-0.4410793 0.5472349,-0.4379882 0.5414411,-0.4358555 0.5354132,-0.4345036 0.5229877,-0.4330178 0.5229877,-0.4330178 0.5112164,-0.4343929 0.5055725,-0.4355717 0.5002188,-0.4373399 0.495165,-0.4399299 0.4900011,-0.4437017 0.4792298,-0.4543117 0.4792298,-0.4543117 0.4753189,-0.461403 0.4719078,-0.4680821 0.4690566,-0.474725 0.4668255,-0.4817075 0.4652946,-0.489104 0.4643744,-0.4966755 0.4635518,-0.5121096 0.4635518,-0.5121096 0.4643678,-0.5277153 0.4652858,-0.5353738 0.4668155,-0.542859 0.4690461,-0.5499269 0.471898,-0.5566527 0.4753122,-0.5634193 0.4792298,-0.5706096 0.4792298,-0.5706096 0.4884749,-0.5800257 0.4933697,-0.5839633 0.4986976,-0.5870913 0.5044943,-0.5892507 0.51053,-0.5906222 0.5229877,-0.5921375 0.5229877,-0.5921375 0.5348544,-0.5907239 0.5405372,-0.589513 0.5459194,-0.5876972 0.5509899,-0.5850399 0.5561378,-0.5812068 0.5667457,-0.5706096 0.5667457,-0.5706096 0.5706633,-0.5634193 0.5740775,-0.5566527 0.5769293,-0.5499269 0.5791599,-0.542859 0.5806897,-0.5353738 0.5816076,-0.5277153 0.5824236,-0.5121096z" transform="matrix(1,0,0,-1,0.2,1.3573335)" fill="rgb(0,0,0)" shaper:cutDepth="0" stroke-linecap="round" stroke-linejoin="round" /><path d="M1.2146905,-0.4882417 L1.2146905,-0.4882417 1.2138959,-0.4769989 1.2114146,-0.4660117 1.2114146,-0.4660117 1.2074987,-0.4564125 1.2018206,-0.4477598 1.2018206,-0.4477598 1.1947662,-0.4408296 1.1863766,-0.4355918 1.1863766,-0.4355918 1.1757886,-0.4321355 1.1646147,-0.4311458 1.1646147,-0.4311458 1.1528315,-0.4322651 1.1472948,-0.433861 1.1416827,-0.4360598 1.1416827,-0.4360598 1.1327198,-0.4416531 1.1250687,-0.4489297 1.1250687,-0.4489297 1.1189811,-0.4575783 1.1145387,-0.4671817 1.1145387,-0.4671817 1.1113857,-0.4775703 1.1093908,-0.4882417 1.2146905,-0.4882417z" transform="matrix(1,0,0,-1,0.2,1.3573335)" fill="rgb(0,0,0)" shaper:cutDepth="0" stroke-linecap="round" stroke-linejoin="round" /><path d="M0.1,1.3573335 A0.3,0.3 90 0,1 -0.2,1.0573335 L-0.2,-0.7489692 A0.3,0.3 180 0,1 0.1,-1.0489692 L1.9889103,-1.0489692 A0.3,0.3 270 0,1 2.2889103,-0.7489692 L2.2889103,1.0573335 A0.3,0.3 0 0,1 1.9889103,1.3573335 L0.1,1.3573335z" transform="matrix(1,0,0,-1,0.2,1.3573335)" fill="rgb(0,0,0)" shaper:cutDepth="0" stroke-linecap="round" stroke-linejoin="round" /><path d="M2.0889103,0 L2.0889103,1.0073335 A0.15,0.15 0 0,1 1.9389103,1.1573335 L0.15,1.1573335 A0.15,0.15 90 0,1 -0,1.0073335 L0,0 2.0889103,0z" transform="matrix(1,0,0,-1,0.2,1.3573335)" fill="rgb(0,0,0)" shaper:cutDepth="0" stroke-linecap="round" stroke-linejoin="round" /><path d="M2.0889103,-0.1 L0,-0.1 0,-0.6989692 A0.15,0.15 180 0,1 0.15,-0.8489692 L1.9389103,-0.8489692 A0.15,0.15 270 0,1 2.0889103,-0.6989692 L2.0889103,-0.1z" transform="matrix(1,0,0,-1,0.2,1.3573335)" fill="rgb(0,0,0)" shaper:cutDepth="0" stroke-linecap="round" stroke-linejoin="round" /><path d="M0.15,1.2573335 L1.9389103,1.2573335 A0.25,0.25 90 0,0 2.1889103,1.0073335 L2.1889103,-0.6989692 A0.25,0.25 0 0,0 1.9389103,-0.9489692 L0.15,-0.9489692 A0.25,0.25 270 0,0 -0.1,-0.6989692 L-0.1,1.0073335 A0.25,0.25 180 0,0 0.15,1.2573335z" transform="matrix(1,0,0,-1,0.2,1.3573335)" fill="rgb(255,255,255)" stroke="rgb(0,0,0)" stroke-width="0.0010cm" stroke-linecap="round" stroke-linejoin="round" shaper:cutDepth="0" /><path d="M0.2898468,0.1390712 L0.1748035,0.2193667 0.7563476,1.0525732 0.8713909,0.9722777 0.2898468,0.1390712z" transform="matrix(1,0,0,-1,0.2,1.3573335)" fill="rgb(255,255,255)" stroke="rgb(0,0,0)" stroke-width="0.0010cm" stroke-linecap="round" stroke-linejoin="round" shaper:cutDepth="0" /><path d="M1.3962292,1.0033805 L1.942044,0.2200667 1.8189746,0.1343117 1.3225036,0.8468108 0.8275572,0.133144 0.7042987,0.2186269 1.2484324,1.0032173 A0.09,0.09 145.2576902 0,0 1.3962292,1.0033805z" transform="matrix(1,0,0,-1,0.2,1.3573335)" fill="rgb(255,255,255)" stroke="rgb(0,0,0)" stroke-width="0.0010cm" stroke-linecap="round" stroke-linejoin="round" shaper:cutDepth="0" /><path d="M0.6404555,-0.5121096 L0.6404555,-0.5121096 0.6398843,-0.5255952 0.638493,-0.5389476 0.6357528,-0.5518589 0.6320316,-0.5649936 0.6320316,-0.5649936 0.6274743,-0.576013 0.6221591,-0.5865854 0.6156436,-0.5962783 0.6081636,-0.6057095 0.6081636,-0.6057095 0.5997966,-0.6136702 0.5909694,-0.6208059 0.581225,-0.6267321 0.5709576,-0.6319175 0.5709576,-0.6319175 0.559181,-0.6360074 0.5474755,-0.6390571 0.5353209,-0.6406184 0.5229877,-0.6412775 0.5229877,-0.6412775 0.5107082,-0.6406249 0.4986089,-0.6390678 0.4869737,-0.6360195 0.4752518,-0.6319175 0.4752518,-0.6319175 0.4650522,-0.626712 0.4553716,-0.6207754 0.4465899,-0.6136396 0.4382799,-0.6057095 0.4382799,-0.6057095 0.430771,-0.5962655 0.4242141,-0.5865707 0.4188257,-0.5760026 0.4141779,-0.5649936 0.4141779,-0.5649936 0.4103568,-0.5518753 0.4075401,-0.5389662 0.4061089,-0.5256082 0.4055199,-0.5121096 0.4055199,-0.5121096 0.4061032,-0.4986653 0.4075308,-0.4853626 0.4103465,-0.4725231 0.4141779,-0.4594597 0.4141779,-0.4594597 0.4188732,-0.448493 0.4243161,-0.4379781 0.4309483,-0.4283343 0.4385138,-0.4189778 0.4385138,-0.4189778 0.4468776,-0.4111031 0.4557303,-0.4040073 0.4654662,-0.3981351 0.4757198,-0.3930038 0.4757198,-0.3930038 0.4873277,-0.3890227 0.4988713,-0.3860484 0.5108436,-0.384524 0.5229877,-0.3838779 0.5229877,-0.3838779 0.5351858,-0.3845304 0.5472136,-0.3860589 0.5588279,-0.3890348 0.5704897,-0.3930038 0.5704897,-0.3930038 0.5807697,-0.3980996 0.5905194,-0.4039536 0.5993446,-0.4110488 0.6076956,-0.4189778 0.6076956,-0.4189778 0.6151792,-0.4283638 0.6217355,-0.4380119 0.6271325,-0.4485167 0.6317975,-0.4594597 0.6317975,-0.4594597 0.635629,-0.4725231 0.6384446,-0.4853626 0.6398722,-0.4986653 0.6404555,-0.5121096z" transform="matrix(1,0,0,-1,0.2,1.3573335)" fill="rgb(255,255,255)" stroke="rgb(0,0,0)" stroke-width="0.0010cm" stroke-linecap="round" stroke-linejoin="round" shaper:cutDepth="0" /><path d="M1.9372815,-0.3983858 L1.9372815,-0.280918 1.9939093,-0.271558 1.9939093,-0.6272375 1.9939093,-0.6272375 1.9832336,-0.6301149 1.9730459,-0.6325644 1.9515554,-0.6365975 1.9515554,-0.6365975 1.9248607,-0.6397996 1.8979695,-0.6408095 1.8979695,-0.6408095 1.8846731,-0.6402262 1.8715298,-0.6387696 1.8589005,-0.6358804 1.8460216,-0.6319175 1.8460216,-0.6319175 1.8352951,-0.6269969 1.8250839,-0.6212897 1.8158099,-0.614312 1.8069437,-0.6064115 1.8069437,-0.6064115 1.7991936,-0.5971843 1.7924091,-0.5876208 1.7868813,-0.5771356 1.7821396,-0.5661636 1.7821396,-0.5661636 1.7782896,-0.55297 1.7754757,-0.5400349 1.7740545,-0.526611 1.7734817,-0.5130457 1.7734817,-0.5130457 1.7739612,-0.4996748 1.7751516,-0.4864041 1.7775091,-0.4735517 1.7807356,-0.4603957 1.7807356,-0.4603957 1.7846816,-0.4495336 1.7893667,-0.4390632 1.7952195,-0.4294003 1.8020297,-0.4199138 1.8020297,-0.4199138 1.8095545,-0.4120673 1.8176239,-0.404971 1.8266304,-0.3990894 1.8361936,-0.3939398 1.8361936,-0.3939398 1.8475959,-0.3898644 1.8588166,-0.3868999 1.8705804,-0.3854078 1.8825255,-0.3848139 1.8825255,-0.3848139 1.8984118,-0.3857512 1.9138815,-0.3890258 1.9138815,-0.3890258 1.9258332,-0.3931967 1.9372815,-0.3983858z" transform="matrix(1,0,0,-1,0.2,1.3573335)" fill="rgb(255,255,255)" stroke="rgb(0,0,0)" stroke-width="0.0010cm" stroke-linecap="round" stroke-linejoin="round" shaper:cutDepth="0" /><path d="M1.4692823,-0.3901958 L1.4692823,-0.3901958 1.4805142,-0.3932378 1.4706863,-0.4409738 1.4706863,-0.4409738 1.4611768,-0.4382827 1.4512643,-0.4360598 1.4512643,-0.4360598 1.4369937,-0.4340494 1.4224823,-0.4334858 1.4224823,-0.4334858 1.4125073,-0.4339838 1.4025923,-0.4353578 1.4025923,-0.4353578 1.3949463,-0.4368159 1.3878504,-0.4386338 1.3878504,-0.6347255 1.3312225,-0.6347255 1.3312225,-0.4016618 1.3312225,-0.4016618 1.3415102,-0.3982377 1.3513583,-0.3952713 1.3721724,-0.3901958 1.3721724,-0.3901958 1.3859031,-0.3877926 1.3992369,-0.3860443 1.4266943,-0.3848139 1.4266943,-0.3848139 1.4397983,-0.3855158 1.4397983,-0.3855158 1.4547743,-0.3873879 1.4547743,-0.3873879 1.4692823,-0.3901958z" transform="matrix(1,0,0,-1,0.2,1.3573335)" fill="rgb(255,255,255)" stroke="rgb(0,0,0)" stroke-width="0.0010cm" stroke-linecap="round" stroke-linejoin="round" shaper:cutDepth="0" /><path d="M1.7262137,-0.5298936 L1.564754,-0.5298936 1.564754,-0.5298936 1.5668565,-0.5427914 1.5684229,-0.5489986 1.5706074,-0.5549157 1.5735075,-0.5603764 1.5770277,-0.5654574 1.58558,-0.5755236 1.58558,-0.5755236 1.5920327,-0.5796069 1.5980991,-0.5831458 1.6041622,-0.5860882 1.6106051,-0.5883824 1.617506,-0.5899494 1.6246121,-0.5908777 1.6391658,-0.5916695 1.6391658,-0.5916695 1.6581353,-0.5908085 1.6768398,-0.5879255 1.6768398,-0.5879255 1.6906365,-0.5845058 1.7037498,-0.5799695 1.7112378,-0.6263015 1.7112378,-0.6263015 1.6983678,-0.6312155 1.6983678,-0.6312155 1.6796478,-0.6358955 1.6796478,-0.6358955 1.6569499,-0.6394055 1.6569499,-0.6394055 1.6445689,-0.6404639 1.6321459,-0.6408095 1.6321459,-0.6408095 1.6177417,-0.6402254 1.6035072,-0.6386806 1.5899318,-0.6355686 1.575986,-0.6312155 1.575986,-0.6312155 1.5650976,-0.6260817 1.5547728,-0.6201233 1.545531,-0.6128672 1.5366741,-0.6045395 1.5366741,-0.6045395 1.5294071,-0.5952694 1.5230562,-0.5856514 1.5180007,-0.5751993 1.5137421,-0.5642916 1.5137421,-0.5642916 1.5104457,-0.5516522 1.5080087,-0.5392261 1.5067681,-0.5264244 1.5062541,-0.5135136 1.5062541,-0.5135136 1.5068504,-0.4990037 1.5084023,-0.4846608 1.5115154,-0.4709494 1.5158481,-0.4568857 1.5158481,-0.4568857 1.5208347,-0.4458644 1.5265664,-0.4353163 1.5334453,-0.4257418 1.541354,-0.4164038 1.541354,-0.4164038 1.5496038,-0.4090031 1.5583298,-0.4023176 1.5678246,-0.3968441 1.577858,-0.3920679 1.577858,-0.3920679 1.5881205,-0.3886362 1.5985284,-0.3859555 1.6091409,-0.3845376 1.6199779,-0.3838779 1.6199779,-0.3838779 1.6421545,-0.3858539 1.6528433,-0.3878144 1.6630528,-0.390942 1.6725036,-0.3954391 1.6813243,-0.4011194 1.689955,-0.4077839 1.6988358,-0.4152338 1.6988358,-0.4152338 1.7060666,-0.42648 1.7123062,-0.4370244 1.7174755,-0.4475663 1.7214954,-0.4588052 1.7242314,-0.4708832 1.7258339,-0.4833292 1.7271497,-0.5088337 1.7271497,-0.5088337 1.7269157,-0.5193636 1.7269157,-0.5193636 1.7262137,-0.5298936z" transform="matrix(1,0,0,-1,0.2,1.3573335)" fill="rgb(255,255,255)" stroke="rgb(0,0,0)" stroke-width="0.0010cm" stroke-linecap="round" stroke-linejoin="round" shaper:cutDepth="0" /><path d="M1.2703825,-0.5298936 L1.1089227,-0.5298936 1.1089227,-0.5298936 1.1110252,-0.5427914 1.1125916,-0.5489986 1.1147761,-0.5549157 1.1176762,-0.5603764 1.1211964,-0.5654574 1.1297487,-0.5755236 1.1297487,-0.5755236 1.1362014,-0.5796069 1.1422678,-0.5831458 1.1483309,-0.5860882 1.1547738,-0.5883824 1.1616747,-0.5899494 1.1687808,-0.5908777 1.1833346,-0.5916695 1.1833346,-0.5916695 1.202304,-0.5908085 1.2210085,-0.5879255 1.2210085,-0.5879255 1.2348052,-0.5845058 1.2479185,-0.5799695 1.2554065,-0.6263015 1.2554065,-0.6263015 1.2425365,-0.6312155 1.2425365,-0.6312155 1.2238165,-0.6358955 1.2238165,-0.6358955 1.2011186,-0.6394055 1.2011186,-0.6394055 1.1887376,-0.6404639 1.1763146,-0.6408095 1.1763146,-0.6408095 1.1619104,-0.6402254 1.1476759,-0.6386806 1.1341006,-0.6355686 1.1201547,-0.6312155 1.1201547,-0.6312155 1.1092663,-0.6260817 1.0989415,-0.6201233 1.0896997,-0.6128673 1.0808428,-0.6045395 1.0808428,-0.6045395 1.0735758,-0.5952694 1.0672249,-0.5856514 1.0621694,-0.5751993 1.0579108,-0.5642916 1.0579108,-0.5642916 1.0546145,-0.5516522 1.0521775,-0.5392261 1.0509368,-0.5264244 1.0504228,-0.5135136 1.0504228,-0.5135136 1.0510192,-0.4990038 1.0525711,-0.4846608 1.0556842,-0.4709494 1.0600168,-0.4568857 1.0600168,-0.4568857 1.0650034,-0.4458644 1.0707351,-0.4353163 1.077614,-0.4257418 1.0855227,-0.4164038 1.0855227,-0.4164038 1.0937726,-0.4090032 1.1024985,-0.4023176 1.1119933,-0.3968442 1.1220267,-0.3920679 1.1220267,-0.3920679 1.1322892,-0.3886362 1.1426971,-0.3859556 1.1533096,-0.3845376 1.1641466,-0.3838779 1.1641466,-0.3838779 1.1863232,-0.3858539 1.197012,-0.3878144 1.2072215,-0.390942 1.2166723,-0.3954391 1.225493,-0.4011194 1.2341237,-0.4077839 1.2430045,-0.4152338 1.2430045,-0.4152338 1.2502353,-0.42648 1.2564749,-0.4370244 1.2616443,-0.4475663 1.2656642,-0.4588052 1.2684001,-0.4708832 1.2700026,-0.4833292 1.2713184,-0.5088337 1.2713184,-0.5088337 1.2710845,-0.5193636 1.2710845,-0.5193636 1.2703825,-0.5298936z" transform="matrix(1,0,0,-1,0.2,1.3573335)" fill="rgb(255,255,255)" stroke="rgb(0,0,0)" stroke-width="0.0010cm" stroke-linecap="round" stroke-linejoin="round" shaper:cutDepth="0" /><path d="M0.7975131,-0.6347255 L0.7510203,-0.6347255 0.7510203,-0.6347255 0.7457834,-0.6223221 0.7408811,-0.610356 0.7313314,-0.5855855 0.7313314,-0.5855855 0.7207331,-0.5562261 0.7107029,-0.5266176 0.7107029,-0.5266176 0.6900744,-0.4606297 0.6900744,-0.4606297 0.6699175,-0.3899619 0.7298434,-0.3899619 0.7298434,-0.3899619 0.7397189,-0.4323158 0.7397189,-0.4323158 0.7514774,-0.4786477 0.7514774,-0.4786477 0.7641792,-0.5247456 0.7641792,-0.5247456 0.7773453,-0.5659296 0.7773453,-0.5659296 0.7911805,-0.5214696 0.7911805,-0.5214696 0.8040797,-0.4756057 0.8040797,-0.4756057 0.815575,-0.4309118 0.815575,-0.4309118 0.8251909,-0.3899619 0.8687148,-0.3899619 0.8687148,-0.3899619 0.8780529,-0.4309118 0.8780529,-0.4309118 0.8890253,-0.4756057 0.8890253,-0.4756057 0.901632,-0.5214696 0.901632,-0.5214696 0.9154051,-0.5659296 0.9154051,-0.5659296 0.9281032,-0.5247456 0.9281032,-0.5247456 0.941039,-0.4786477 0.941039,-0.4786477 0.9530315,-0.4323158 0.9530315,-0.4323158 0.962907,-0.3899619 1.0214215,-0.3899619 1.0214215,-0.3899619 1.0012647,-0.4606297 1.0012647,-0.4606297 0.9806325,-0.5266176 0.9806325,-0.5266176 0.9705996,-0.5562258 0.9600003,-0.5855855 0.9600003,-0.5855855 0.9503284,-0.6104 0.9452765,-0.62236 0.9398434,-0.6347255 0.8938113,-0.6347255 0.8938113,-0.6347255 0.8688062,-0.5610156 0.8688062,-0.5610156 0.8563803,-0.5210717 0.8452052,-0.4807537 0.8452052,-0.4807537 0.8341477,-0.5210374 0.8220575,-0.5610156 0.8220575,-0.5610156 0.7975131,-0.6347255z" transform="matrix(1,0,0,-1,0.2,1.3573335)" fill="rgb(255,255,255)" stroke="rgb(0,0,0)" stroke-width="0.0010cm" stroke-linecap="round" stroke-linejoin="round" shaper:cutDepth="0" /><path d="M0.2187882,-0.5205336 L0.1893042,-0.5205336 0.1893042,-0.6347255 0.1303363,-0.6347255 0.1303363,-0.3150819 0.1303363,-0.3150819 0.1529862,-0.3110305 0.1759662,-0.308764 0.1759662,-0.308764 0.1990427,-0.3075694 0.2220642,-0.307126 0.2220642,-0.307126 0.2508167,-0.3082477 0.2649705,-0.309679 0.2788561,-0.3121545 0.2919311,-0.3158066 0.3043432,-0.3205168 0.3168993,-0.3262236 0.330406,-0.3328659 0.330406,-0.3328659 0.3395546,-0.3415268 0.3476933,-0.3500157 0.354581,-0.3588775 0.3599761,-0.3686562 0.363638,-0.3793854 0.3658611,-0.3905061 0.3680799,-0.4133618 0.3680799,-0.4133618 0.3674707,-0.4260341 0.3658524,-0.4384916 0.3625888,-0.4502557 0.358018,-0.4622677 0.358018,-0.4622677 0.3522179,-0.4719367 0.3456084,-0.4808289 0.3376017,-0.4885258 0.328768,-0.4954957 0.328768,-0.4954957 0.3175148,-0.5018683 0.3063236,-0.507139 0.2943075,-0.5111879 0.2819681,-0.5144497 0.2819681,-0.5144497 0.2660205,-0.5172086 0.2506411,-0.5191821 0.2347449,-0.5201623 0.2187882,-0.5205336z" transform="matrix(1,0,0,-1,0.2,1.3573335)" fill="rgb(255,255,255)" stroke="rgb(0,0,0)" stroke-width="0.0010cm" stroke-linecap="round" stroke-linejoin="round" shaper:cutDepth="0" /></svg>