<?xml version="1.0" encoding="UTF-8"?>
<!DOCTYPE svg PUBLIC "-//W3C//DTD SVG 1.0//EN" "http://www.w3.org/TR/2001/REC-SVG-20010904/DTD/svg10.dtd">
<!-- Creator: CorelDRAW X7 -->
<svg xmlns="http://www.w3.org/2000/svg" xml:space="preserve" width="18in" height="18in" version="1.0" style="shape-rendering:geometricPrecision; text-rendering:geometricPrecision; image-rendering:optimizeQuality; fill-rule:evenodd; clip-rule:evenodd"
viewBox="0 0 1800 1800"
 xmlns:xlink="http://www.w3.org/1999/xlink">
 <defs>
  <style type="text/css">
   <![CDATA[
    .fil0 {fill:#2A283B}
    .fil1 {fill:#67EA94}
    .fil2 {fill:#FEFEFE;fill-rule:nonzero}
   ]]>
  </style>
 </defs>
 <g id="Layer_x0020_1">
  <metadata id="CorelCorpID_0Corel-Layer"/>
  <rect class="fil0" x="438" y="810" width="925" height="180" rx="23" ry="25"/>
  <path class="fil1" d="M689 990l-227 0c-14,0 -25,-11 -25,-25l0 -130c0,-14 11,-25 25,-25l227 0 0 180z"/>
  <g id="_2298295414512">
   <path class="fil0" d="M590 846l0 0 -1 0 0 0 0 0 -1 0 0 1 0 0 0 0 -1 0c0,1 0,1 0,1l-1 0 0 0c0,0 0,0 0,0l0 0 -1 1 0 0c0,0 0,0 0,0l0 0 0 1c0,0 0,0 -1,0l0 0 0 1 0 0c0,0 0,0 0,0l-1 1 0 0 0 1c0,0 0,0 -1,0l0 0 0 0c0,1 0,1 0,1l0 0 0 0 -1 0c0,1 0,1 0,1l0 0 -1 1 0 0c0,1 0,1 0,0l0 1 0 0c0,0 0,0 -1,0l0 1 0 0 0 0 -1 1 0 0 0 1c0,0 0,0 0,0l-1 0 0 1 0 0c0,0 0,0 0,0l-1 1 0 0 0 1 0 0c0,0 0,0 -1,0l0 0c0,1 0,1 0,1l0 0 0 0 0 1c0,0 0,0 -1,0l0 0 0 1 -1 0 0 1c0,0 0,0 0,0l0 0c0,0 0,0 0,0l-1 1 0 0 0 0c0,1 0,1 0,1l0 0 -1 0 0 1c0,0 0,0 0,0l-1 0 0 1c0,0 1,0 0,0l0 0 0 0 0 1c0,0 0,0 -1,0l0 1 0 0 0 1c0,0 0,0 -1,0l0 0 0 0c0,1 0,1 0,1l-1 0 0 0 0 1 0 0 -1 1 0 0c0,1 0,0 0,0l0 1 0 0 -1 0c0,1 0,1 0,1l0 0 -1 0 0 1 0 0c0,1 0,1 0,1l0 0c0,0 0,0 -1,0l0 0 0 1 0 0c0,0 0,0 0,0l-1 1 0 0 0 1 -1 0c0,0 1,0 0,0l0 0c0,1 0,1 0,1l0 0 0 0 -1 1c0,0 0,0 0,0l0 0 0 1 -1 0c0,1 0,1 0,1l0 0 0 0c0,0 0,0 -1,0l0 1 0 0 0 0c0,1 0,0 0,0l-1 1 0 0 0 1c0,0 0,0 0,0l-1 0 0 1c0,0 0,0 0,0l0 0 -1 1 0 0 0 1 0 0 -1 0c0,1 1,1 0,1l0 0 0 0 0 1c0,0 0,0 -1,0l0 0 0 1 -1 0 0 1 0 0c0,1 0,0 0,0l-1 1 0 0 0 0c0,1 0,1 0,1l0 0 -1 0 0 1 0 0c0,1 0,1 -1,1l0 0c0,0 1,0 0,0l0 0 0 1 0 0c0,0 0,0 -1,0l0 1 0 0 0 1c0,0 0,0 -1,0l0 0 0 0c0,1 0,1 0,1l-1 0 0 0 0 0c0,1 0,1 0,1l0 0 -1 1 0 0c0,1 0,1 0,0l0 1 0 0c0,0 0,0 -1,0l0 1 0 0 -1 0 0 1 0 0 0 1c0,0 0,0 -1,0l0 0 0 1 0 0c0,0 0,0 0,0l-1 1 0 0 0 1 -1 0 0 0c0,1 0,1 0,1l0 0 0 0 -1 1c0,0 1,0 0,0l0 0 0 1 -1 0 0 1c0,0 0,0 0,0l0 0c0,0 0,0 -1,0l0 1 0 0 0 0c0,1 0,1 0,1l-1 0 0 0 0 1c0,0 0,0 0,0l-1 0 0 1c0,0 0,0 0,0l0 0 0 0 -1 1c1,0 1,0 0,0l0 1 0 0 -1 1c0,0 1,0 0,0l0 0 0 0c0,1 0,1 0,1l-1 0 0 0 0 1 -1 0 0 1 0 0c0,1 0,0 0,0l-1 1 0 0 0 0c0,1 0,1 0,1l0 0 -1 0 0 1 0 0 0 1c0,0 0,0 -1,0l0 0 0 1 0 0c0,0 0,0 -1,0l0 1 0 0 0 1 -1 0c0,0 0,0 0,0l0 0c0,1 0,1 0,1l-1 0 0 0 0 1c0,0 0,0 0,0l0 0 -1 1 0 0c0,1 0,1 0,1l0 0 0 0c0,0 0,0 -1,0l0 1 0 0 0 0c0,1 0,0 -1,0l0 1 0 0 0 1c0,0 0,0 -1,0l0 0 0 1c0,0 0,0 0,0l0 0 0 0 0 1 0 0c1,0 0,0 0,1l1 0 0 0c0,0 0,0 0,0l0 1 1 0 0 0 1 0 0 1c1,0 0,-1 0,0l1 0c0,0 0,0 0,0l0 0 0 0 1 1c0,0 0,0 0,0l1 0 0 1 0 0 1 0c0,0 0,0 0,0l0 0c1,0 1,0 0,1l1 0 0 0 0 0c1,0 1,0 1,0l0 1 0 0 1 0 0 1c1,0 1,-1 1,0l0 0c0,0 0,0 0,0l0 0 1 0 0 1c0,0 0,0 0,0l1 0 0 1 0 0 1 0 0 -1 1 0 0 -1c0,0 0,0 0,0l0 0 0 0c0,-1 0,-1 1,-1l0 0 0 -1 0 0 1 0 0 -1c0,0 0,0 0,0l0 0c0,-1 0,-1 1,0l0 -1 0 0 0 0c0,-1 0,-1 0,-1l1 0 0 0 0 -1 0 0c0,-1 0,-1 1,-1l0 0c0,0 0,0 0,0l0 0 0 -1 1 0c0,0 -1,0 0,0l0 -1 0 0 1 -1 0 0c0,0 0,0 0,0l0 0c0,-1 0,-1 0,-1l1 0 0 0 0 -1c0,0 0,0 0,0l1 0 0 -1 0 0 0 0c0,-1 0,-1 1,-1l0 0c0,0 0,0 0,0l0 -1 0 0 1 -1 0 0 0 0 1 -1c-1,0 -1,0 0,0l0 0 0 -1c0,0 0,0 0,0l1 0 0 -1 0 0 0 -1 1 0c0,0 0,0 0,0l0 -1c0,0 0,0 0,0l1 0 0 0 0 -1c0,0 0,0 0,0l0 0 1 -1 0 0 0 -1c0,0 0,0 0,0l0 0c0,-1 0,0 1,0l0 -1 0 0 0 0c0,-1 0,-1 1,-1l0 0 0 0 0 -1 1 0c0,-1 0,-1 0,-1l0 0c0,0 0,0 0,0l0 0 0 -1 1 0c0,0 0,0 0,0l0 -1 1 0 0 0 0 -1c0,0 0,0 0,0l0 0c0,-1 0,-1 1,-1l0 0 0 -1 0 0 1 0 0 -1 0 0c0,-1 0,-1 1,-1l0 0 0 0c0,0 0,0 0,0l0 -1 1 0 0 0 0 -1 0 0c0,-1 0,-1 1,-1l0 0c0,0 0,0 0,0l0 0 0 -1c0,0 0,0 1,0l0 0 0 -1 0 0 1 -1 0 0c0,0 0,0 0,0l0 0c0,-1 0,-1 0,-1l1 0 0 0 0 -1c0,0 0,0 0,0l1 0 0 -1 0 0 0 -1c0,0 0,0 1,0l0 0c0,-1 -1,0 0,0l0 -1 0 0 0 0c0,-1 0,-1 1,-1l0 0 0 0 1 -1 0 0c0,-1 0,-1 0,-1l0 0c0,0 0,0 0,0l1 0 0 -1 0 0 0 -1 1 0 0 -1c0,0 0,0 0,0l1 0 0 0c0,-1 -1,-1 0,-1l0 0 0 0 1 -1 0 0 0 -1 0 0c0,-1 0,-1 1,0l0 -1 0 0c0,0 0,0 0,0l1 -1 0 0 0 0 0 -1 1 0c0,-1 -1,-1 0,-1l0 0c0,0 0,0 0,0l0 0 0 -1 1 0c0,0 0,0 0,0l0 -1 1 0 0 -1 0 0c0,0 0,0 0,0l0 0c0,-1 0,-1 1,-1l0 0 0 0 0 -1c0,0 0,0 0,0l1 0 0 -1 0 0 1 0c0,-1 -1,-1 0,-1l0 0c0,0 0,0 0,0l0 -1 0 0 1 0c0,-1 -1,-1 0,-1l0 0 0 0 1 -1c0,0 0,0 0,0l0 0 0 -1c0,0 0,0 1,0l0 0 0 -1 0 0 1 -1 0 0 0 -1c0,0 0,0 0,0l1 0 0 0c0,-1 0,-1 0,-1l0 0 0 0 1 -1 0 0 0 -1c0,0 0,0 1,0l0 0c0,-1 -1,0 0,0l0 -1 0 0 0 0c0,-1 0,-1 1,-1l0 0 0 0 1 -1 0 0c0,-1 0,-1 0,-1l0 0c0,0 0,0 0,0l1 0 0 -1 0 0c0,0 0,0 0,0l0 -1 1 0 0 0 0 -1c0,0 0,0 1,0l0 0 0 -1 0 0 0 0 1 1 0 0c0,0 0,0 0,0l0 1 0 0c1,0 1,0 1,0l0 1 0 0 1 1c0,0 0,0 0,0l0 0 0 0 0 1c1,0 1,0 1,0l0 1 0 0 0 0c1,0 1,0 1,1l0 0 0 0 0 1c1,0 1,-1 1,0l0 0c0,0 0,0 0,0l0 1 0 0 1 1 0 0 0 0c1,0 0,0 0,1l0 0 1 0c0,0 0,0 0,0l0 1 1 0 0 1c0,0 0,0 0,0l0 1 0 0 1 0c0,0 0,0 0,0l0 1 0 0 1 1c0,0 0,0 0,0l0 0 0 1 1 0c0,0 0,0 0,0l0 0c0,0 0,0 0,1l0 0 1 0 0 1 0 0c1,0 0,0 0,1l1 0 0 0 0 0c0,0 0,0 0,1l0 0 1 1 0 0c0,0 0,0 0,0l1 1 0 0 0 0c0,0 0,0 0,1l0 0 1 0 0 1 0 0 0 1 1 0c0,0 0,0 0,0l0 1c0,0 0,-1 0,0l1 0 0 1 0 0 0 0c1,0 1,0 1,1l0 0 0 0 0 1c1,0 1,-1 1,0l0 1 0 0 0 0c1,0 1,0 1,1l0 0 0 0 0 0c1,0 0,0 0,1l1 0 0 1 0 0 1 0 0 1 0 0c0,0 0,0 0,1l0 0 1 0c0,0 0,0 0,0l0 1 0 0 1 1c0,0 0,0 0,0l0 0 0 1 1 0c0,0 0,0 0,0l0 1 0 0 1 1c0,0 0,-1 0,0l0 0 0 0 0 1c1,0 1,0 1,0l0 0c0,0 0,0 0,1l0 0 0 0 1 1 0 0 0 1c1,-1 1,-1 1,0l0 0 0 0c0,0 0,0 0,1l0 0 1 0 0 1c0,0 0,0 0,0l0 1 0 0 1 0c0,0 0,0 0,0l0 1 1 0 0 1c0,0 0,0 0,0l0 0 0 1 1 0c0,0 0,0 0,0l0 0c0,0 0,0 0,1l0 0 1 1 0 0 0 0 1 1c0,0 0,0 0,0l0 0 0 0c1,0 0,0 0,1l1 0 0 1 0 0c1,0 1,0 0,1l1 0 0 0 0 0c0,0 0,0 0,1l1 0 0 1 0 0c1,0 0,0 0,0l1 1 0 0 0 0c0,0 0,0 0,0l0 1c1,0 1,0 0,0l1 0 0 1 0 0 1 1 0 0c0,0 0,0 0,0l0 0 0 1c1,0 1,0 1,0l0 1 0 0 0 0c1,0 1,0 1,1l0 0 0 0 0 1c1,0 1,-1 1,0l0 0 0 1 0 0c1,0 1,0 1,1l0 0 0 0 0 0c1,0 0,0 0,1l0 0c1,0 1,0 1,0l0 1 0 0 1 0 0 1c0,0 0,0 0,0l0 0 0 1 1 0c0,0 0,0 0,0l0 1 0 0 1 1c0,0 0,0 0,0l0 0 0 1 1 0c0,0 0,0 0,0l0 1 0 0 1 0 0 1 0 0 0 1c1,0 1,-1 1,0l0 0c0,0 0,0 0,0l0 1 1 0 0 1 0 0c1,0 0,0 0,0l1 1 0 0 0 0c0,0 0,0 0,0l0 1 1 0 0 1c0,0 0,0 0,0l1 1 0 0 0 0c0,0 0,0 0,0l0 1 1 0 0 0c0,-1 0,-1 0,-1l1 0 0 0 0 0c0,-1 0,-1 1,-1l0 0 0 0 1 0c0,-1 0,-1 0,-1l1 0 0 0 0 0c0,-1 0,-1 0,-1l0 0c0,0 0,0 1,0l0 0 1 0 0 -1 0 0c0,0 0,0 1,0l0 0 0 0 1 -1c-1,0 -1,0 0,0l0 0 1 -1 0 0c0,0 0,0 0,0l1 0 0 0 0 -1c0,0 0,0 1,0l0 0 0 -1 1 0c0,0 0,0 0,0l1 0 0 0 0 -1c0,0 0,0 0,0l0 0c1,0 1,0 1,-1l0 0c-1,0 0,0 0,0l-1 0 0 -1 0 0 -1 -1 0 0c0,0 0,0 0,0l0 -1 0 0c-1,0 -1,0 -1,0l0 -1 0 0 0 0c-1,0 -1,0 -1,-1l0 0 0 0 0 -1c-1,0 -1,1 -1,0l0 0c0,0 0,0 0,0l0 -1 0 0 -1 -1 0 0 0 0c-1,0 0,0 0,-1l0 0c-1,0 -1,0 -1,0l0 -1 0 0 -1 0 0 -1 0 0c0,0 0,0 0,-1l0 0 -1 0c0,0 0,0 0,0l0 -1 0 0 -1 -1c0,0 0,0 0,0l0 0 0 -1 -1 0c0,0 0,0 0,0l0 0c0,0 0,0 0,-1l0 0 -1 -1 0 0 0 0 0 -1c-1,0 -1,0 -1,0l0 0c0,0 0,0 0,-1l0 0 -1 0 0 -1 0 0 0 0c-1,0 -1,0 -1,-1l0 0 0 0c0,0 0,0 0,-1l0 0 -1 0 0 -1c0,0 0,0 0,0l-1 -1 0 0 0 0c0,0 0,0 0,0l0 -1c0,0 0,1 0,0l-1 0 0 -1 0 0 0 -1 -1 0c0,0 0,0 0,0l0 0c0,0 0,0 0,-1l-1 0 0 -1 0 0 0 0c-1,0 -1,0 -1,-1l0 0 0 0 0 0c-1,0 -1,0 0,-1l-1 0 0 -1 0 0c-1,0 -1,0 -1,0l0 -1 0 0 0 0c0,0 0,0 0,-1l0 0c-1,0 -1,0 -1,0l0 0 0 -1 0 0 -1 -1 0 0c0,0 0,0 0,0l0 -1c-1,0 -1,0 0,0l-1 0 0 -1 0 0 -1 -1c0,0 0,1 0,0l0 0 0 0 0 -1c-1,0 -1,0 -1,0l0 -1 0 0 -1 0c0,0 0,0 0,-1l0 0 0 0 0 -1c-1,1 -1,1 -1,0l0 0c0,0 0,0 0,0l0 -1 0 0 -1 0 0 -1 0 0c-1,0 -1,0 -1,-1l0 0c0,0 0,0 0,0l0 -1 0 0 -1 0 0 -1c0,0 0,0 0,0l0 0 0 -1 -1 0c0,0 0,0 0,0l0 -1 -1 0 0 -1 0 0 0 0 -1 -1c0,0 0,0 0,0l0 0c0,0 0,0 0,-1l0 0 -1 0 0 -1 0 0 0 -1c-1,0 -1,1 -1,0l0 0 0 0c-1,0 0,0 0,-1l-1 0 0 -1 0 0c-1,0 0,0 0,0l-1 -1 0 0 0 0c0,0 0,0 0,0l0 -1c-1,0 -1,0 -1,0l0 0 0 -1 0 0 -1 -1 0 0c0,0 0,0 0,0l0 0c-1,0 0,0 0,-1l-1 0 0 -1 0 0 0 -1 -1 0c0,0 0,0 0,0l0 0 0 -1c-1,0 -1,1 -1,0l0 0 0 -1 0 0c-1,0 -1,0 -1,-1l0 0 0 0 0 0c-1,0 -1,0 -1,-1l0 0c0,0 0,0 0,0l0 -1 0 0 -1 0 0 -1 0 0c-1,0 0,0 0,-1l0 0c-1,0 -1,0 -1,0l0 0 0 -1 -1 0 0 -1c0,0 0,0 0,0l0 0 0 -1 -1 0c0,0 0,0 0,0l0 -1 0 0 -1 0c0,0 0,0 0,-1l0 0 0 0 -1 -1c0,0 0,1 0,0l0 0c0,0 0,0 0,0l0 -1 -1 0 0 -1 0 0 0 0c-1,0 -1,0 -1,-1l0 0c0,0 0,0 0,0l0 -1 0 0 -1 0 0 -1c0,0 0,0 0,0l-1 -1 0 0 0 0c0,0 0,0 0,0l0 -1 -1 0 0 -1c0,0 0,0 0,0l0 0 0 -1 -1 0c0,0 0,0 0,0l0 0c0,0 0,0 0,-1l-1 0 0 -1 0 0 0 0 -1 -1c0,0 0,0 0,0l0 0c0,0 0,0 0,-1l0 0 -1 0 0 -1 0 0c-1,0 -1,0 -1,0l0 -1 0 0 0 0c-1,0 0,0 0,-1l-1 0 0 0 0 -1 0 0c-1,0 -1,0 -1,-1l0 0 -1 -1 0 0c-1,0 -1,0 -1,0l0 -1 0 0 0 0 -1 0 0 0c-1,0 0,0 0,-1l-1 0 0 0 0 0 -1 0 0 0 -1 0 -1 0 -2 0 -1 0 -1 0z"/>
   <path class="fil0" d="M526 845c0,0 0,0 0,0l0 0 -1 1c1,0 1,0 0,0l0 0 0 1 -1 0 0 0 0 1c0,0 0,0 0,0l0 0c0,1 0,1 -1,1l0 0 0 0 0 0c0,1 0,1 -1,1l0 0 0 1 0 0c0,1 0,0 -1,0l0 1 0 0 0 0c0,1 0,1 0,1l-1 0 0 0 0 1c0,0 0,0 0,0l-1 1 0 0 0 0c0,1 0,0 0,0l-1 1 0 0 0 1c0,0 0,0 0,0l-1 0 0 1 0 0c0,0 0,0 0,0l0 1 -1 0 0 0 0 1c0,0 0,0 -1,0l0 0c0,1 1,1 0,1l0 0 0 0 -1 1 0 0 0 1c0,0 0,0 0,0l0 0c0,1 0,0 -1,0l0 1 0 0 0 0c0,1 0,1 -1,1l0 0 0 0 0 1c0,0 0,0 -1,0l0 1 0 0 0 0c0,1 0,0 -1,0l0 1 0 0 0 1c0,0 0,0 -1,0l0 0 0 1 0 0c0,0 0,0 0,0l-1 1 0 0 0 1c0,0 0,0 0,0l-1 0 0 0c0,1 0,1 0,1l0 0 -1 1 0 0 0 0 0 1c0,0 0,0 -1,0l0 0c0,1 0,1 0,0l0 1 0 0 -1 1 0 0 0 0c0,1 0,1 -1,1l0 0c0,0 1,0 0,0l0 1 0 0 0 0c0,1 0,0 -1,0l0 1 0 0 0 1c0,0 0,0 -1,0l0 0 0 1 0 0c0,0 0,0 -1,0l0 1 0 0 0 1c0,0 0,0 -1,0l0 0 0 0 0 1c0,0 0,0 0,0l-1 1 0 0 0 0c0,1 0,1 -1,1l0 0 0 0c0,1 0,1 0,0l0 1 -1 0 0 1 0 0 -1 0c1,1 1,1 0,1l0 0c0,0 0,0 0,0l0 1 0 0 -1 0c0,1 1,0 0,0l0 1 0 0 -1 1c0,0 0,0 0,0l0 0 0 1 0 0c0,0 0,0 -1,0l0 1 0 0 -1 1c0,0 1,0 0,0l0 0 0 0 0 1c0,0 0,0 -1,0l0 1 0 0 0 0c0,1 0,1 -1,1l0 0 0 0c0,1 0,1 0,0l-1 1 0 0 0 1 0 0 -1 0c0,1 0,1 0,1l0 0c0,0 0,0 0,0l-1 1 0 0 0 0 0 1 -1 0c0,1 1,1 0,1l0 0c0,0 0,0 0,0l0 0 0 1 -1 0c0,0 0,0 0,0l0 1 -1 0 0 1c0,0 0,0 0,0l0 0 0 0 -1 1c0,0 1,0 0,0l0 1 0 0 -1 0c0,1 1,1 0,1l0 0 0 0 0 1c0,0 0,0 -1,0l0 0 0 1 -1 0c1,1 1,1 0,1l0 0 0 0c0,0 0,0 0,0l-1 1 0 0 0 0 0 1 -1 0c0,1 0,1 0,1l0 0c0,0 0,0 0,0l-1 0 0 1 0 0 0 1 -1 0 0 1c0,0 0,0 0,0l0 0 0 0 -1 1c0,0 0,0 0,0l0 1 -1 0 0 0c0,1 0,1 0,1l0 0 0 0 -1 1c0,0 0,0 0,0l0 0 -1 1 0 0c0,1 0,1 0,1l0 0 0 0 -1 0c0,1 1,1 0,1l0 0 0 0 -1 1 0 0c0,1 0,1 0,1l0 0c0,0 0,0 0,0l-1 0 0 1 0 0 -1 1 0 0c0,1 0,0 0,0l0 1c0,0 0,0 0,0l-1 0 0 0 0 1c0,0 0,0 0,0l0 1 -1 0 0 0c0,1 0,1 0,1l-1 0 0 0 0 1c0,0 0,0 0,0l0 0 -1 1 0 0c0,1 0,1 0,1l0 0 0 0 -1 0c0,1 0,1 0,1l0 0 -1 0 0 1c0,1 0,0 0,0l0 1 0 0c0,0 0,0 -1,0l0 0 0 1 0 0 -1 1 0 0c0,1 0,0 0,0l0 1c0,0 0,0 -1,0l0 0 0 0c0,1 0,1 0,1 1,0 1,0 1,0l0 1 1 0c0,0 0,0 0,0l0 0c1,0 0,0 0,0l1 1 0 0 0 0c1,0 1,0 1,0l0 1 0 0 1 0c0,0 0,0 0,0l0 1 1 0 0 0c0,0 0,0 0,0l1 1 0 0 0 0 1 0c0,0 0,0 0,1l0 0c1,0 1,0 1,0l0 0 0 0 1 1 0 0 1 0c0,0 0,0 0,1l0 0c0,0 0,0 0,0l1 0 0 0 0 1 1 0c1,0 0,1 1,0l0 -1 0 0 1 0c0,-1 -1,-1 0,-1l0 0 0 0 0 -1c0,0 0,0 1,0l0 0 0 -1 1 0 0 0c0,-1 0,-1 0,-1l0 0c0,0 0,0 0,0l1 -1 0 0 0 0 0 -1 1 0c0,-1 0,-1 0,-1l0 0c0,0 0,0 0,0l1 0 0 -1 0 0 0 -1 1 0c0,0 -1,0 0,0l0 -1c0,0 0,0 0,0l0 0 0 0 1 -1c0,0 0,0 0,0l0 -1 1 0 0 0c0,-1 0,-1 0,-1l0 0 0 0 1 -1c0,0 -1,0 0,0l0 0 0 -1 1 0c0,-1 0,-1 0,-1l0 0 0 0 1 0c0,-1 -1,-1 0,-1l0 0 0 0 1 -1 0 0c0,-1 0,-1 0,-1l0 0c0,0 0,0 0,0l1 0 0 -1 0 0 1 -1 0 0c0,0 0,0 0,0l0 -1c0,0 0,0 0,0l1 0 0 -1 0 0 0 -1 1 0c0,0 0,0 0,0l0 0c0,-1 0,-1 0,-1l1 0 0 0 0 -1c0,0 0,0 0,0l0 0 1 -1 0 0c0,-1 0,-1 0,-1l0 0 0 0 1 0c0,-1 0,-1 0,-1l0 0 1 0 0 -1c0,0 0,0 0,0l0 -1 0 0c0,0 0,0 1,0l0 0 0 -1 0 0 1 -1 0 0c0,0 0,0 0,0l0 -1c0,0 0,0 1,0l0 0 0 -1 0 0 1 -1 0 0c0,0 0,0 0,0l0 0c0,-1 0,-1 0,-1l1 0 0 0 0 -1c0,0 0,0 0,0l1 0 0 -1c0,0 0,0 0,0l0 0c0,-1 0,-1 0,-1l1 0 0 0 0 0c0,-1 0,-1 0,-1l0 0 1 0 0 -1c0,0 0,0 0,0l1 -1 0 0 0 0c0,-1 0,0 0,0l0 -1 1 0 0 -1 0 0c0,-1 0,0 0,0l0 -1c0,0 0,0 1,0l0 0 0 -1 1 0 0 -1 0 0c0,0 0,0 0,0l0 0c0,-1 0,-1 1,-1l0 0 0 -1 0 0 1 0 0 -1c0,0 0,0 0,0l0 0c0,-1 0,-1 1,-1l0 0 0 0 0 0c0,-1 0,-1 0,-1l1 0 0 0 0 -1c0,-1 0,0 0,0l1 -1 0 0 0 0c0,-1 0,-1 0,-1l0 0 1 0 0 -1c0,0 0,0 0,0l1 0 0 -1c0,0 -1,0 0,0l0 0 0 -1 1 0 0 -1 0 0c0,0 0,0 0,0l0 0c0,-1 0,-1 1,-1l0 0 0 -1 1 0 0 0 0 -1c0,0 0,0 0,0l0 0c0,-1 0,-1 1,-1l0 0 0 0 1 -1 0 0 0 -1c0,0 0,0 0,0l0 0c0,-1 0,0 1,0l0 -1 0 0 0 0c0,-1 0,-1 0,-1l1 0 0 0 0 -1c0,0 0,0 0,0l1 0 0 -1 0 0c0,0 0,0 0,0l1 -1 0 0 0 -1 0 0c0,0 0,0 1,0l0 0c0,-1 0,-1 0,-1l0 0 0 -1 1 0 0 0 0 -1c0,0 0,0 1,0l0 0c0,-1 -1,-1 0,-1l0 0 0 0 1 -1 0 0 0 -1c0,0 0,0 0,0l0 0c0,-1 0,0 1,0l0 -1 0 0 0 0c0,-1 0,-1 1,-1l0 0 0 0 0 -1c0,0 0,0 1,0l0 0 0 -1 0 0c0,0 0,0 0,0l1 -1 0 0 0 -1c0,0 0,0 1,0l0 0 0 0c0,-1 0,-1 0,-1l0 0 1 -1 0 0 0 0 1 -1c-1,0 -1,0 0,0l0 0c0,-1 0,-1 0,-1l0 0 1 0 0 -1 0 0 0 -1c0,0 0,0 1,0l0 0c0,0 0,0 0,0l0 -1 0 0 1 -1 0 0 0 0c0,-1 0,-1 1,-1l0 0c0,0 -1,0 0,0l0 0 0 -1 0 0c0,0 0,0 1,0l0 -1 0 0 0 -1c0,0 0,0 1,0l0 0 0 0 0 -1c0,0 0,0 1,0l0 -1 0 0 0 -1c0,0 0,0 1,0l0 0 0 0c-1,0 -1,0 -1,-1l0 0 0 0 0 0c-1,0 -1,0 -1,0l0 -1 -1 0 0 0c0,0 0,0 0,-1l-1 0 0 0 0 0c-1,0 0,0 0,0l-1 -1 0 0 -1 0c0,0 0,0 0,-1l0 0 -1 0 0 0c0,0 0,0 0,0l-1 -1 0 0 -1 0c0,0 0,0 0,0l0 -1 0 0c-1,0 -1,0 -1,0l0 0 0 0 0 -1c-1,0 -1,1 -1,0l0 0 0 0 -1 -1c0,0 0,0 0,0l-1 0 0 0 0 -1c-1,0 0,1 0,0l-1 1z"/>
  </g>
  <path class="fil2" d="M744 846c15,0 27,3 36,9 8,5 12,14 12,27 0,6 -1,12 -3,16 -2,5 -5,8 -10,11 -4,3 -9,5 -15,7 -7,1 -14,2 -22,2l-9 0 0 38 -20 0 0 -107c4,-1 9,-2 15,-2 6,-1 11,-1 16,-1zm1 17c-5,0 -9,0 -12,1l0 37 9 0c10,0 17,-2 22,-4 5,-3 8,-8 8,-15 0,-4 -1,-7 -2,-9 -2,-3 -4,-5 -6,-6 -2,-1 -5,-2 -8,-3 -4,-1 -7,-1 -11,-1z"/>
  <path id="1" class="fil2" d="M881 915c0,6 -1,12 -3,18 -2,5 -4,9 -8,13 -3,4 -7,7 -12,9 -5,2 -11,3 -16,3 -6,0 -12,-1 -16,-3 -5,-2 -9,-5 -13,-9 -3,-4 -6,-8 -8,-13 -2,-6 -3,-12 -3,-18 0,-7 1,-13 3,-18 2,-5 5,-10 8,-13 4,-4 8,-7 13,-9 5,-2 10,-3 16,-3 5,0 11,1 15,3 5,2 10,5 13,9 3,3 6,8 8,13 2,5 3,11 3,18zm-20 0c0,-8 -1,-15 -5,-20 -3,-4 -8,-7 -14,-7 -7,0 -12,3 -15,7 -4,5 -5,12 -5,20 0,8 1,15 5,19 3,5 8,8 15,8 6,0 11,-3 14,-8 4,-4 5,-11 5,-19z"/>
  <path id="2" class="fil2" d="M948 904c-3,9 -5,18 -8,27 -3,9 -5,17 -8,25l-16 0c-2,-5 -4,-10 -6,-17 -3,-6 -5,-12 -7,-19 -3,-7 -5,-15 -7,-22 -2,-8 -5,-16 -7,-24l20 0c1,4 2,9 4,14 1,5 2,10 3,16 2,5 3,10 5,15 1,5 3,10 4,14 2,-5 3,-10 5,-15 1,-5 3,-10 4,-15 1,-6 3,-11 4,-15 1,-5 2,-10 3,-14l15 0c1,4 2,9 3,14 1,4 2,9 4,15 1,5 2,10 4,15 1,5 3,10 4,15 2,-4 3,-9 5,-14 1,-5 3,-10 4,-15 1,-6 3,-11 4,-16 1,-5 2,-10 3,-14l20 0c-2,8 -4,16 -7,24 -2,7 -4,15 -7,22 -2,7 -4,13 -7,19 -2,7 -4,12 -6,17l-16 0c-3,-8 -5,-16 -8,-25 -3,-9 -6,-18 -8,-27z"/>
  <path id="3" class="fil2" d="M1017 915c0,-7 1,-13 3,-19 2,-5 5,-10 8,-13 4,-4 8,-7 13,-8 4,-2 9,-3 14,-3 11,0 20,3 26,10 7,7 10,18 10,32 0,1 0,2 0,3 0,2 0,3 -1,4l-54 0c1,6 3,11 7,15 4,4 10,5 18,5 5,0 9,0 13,-1 4,-1 7,-2 9,-2l2 15c-1,1 -2,1 -4,2 -2,0 -4,1 -6,1 -3,1 -5,1 -8,1 -3,1 -5,1 -8,1 -7,0 -14,-1 -19,-3 -5,-2 -10,-5 -13,-9 -4,-4 -6,-9 -8,-14 -1,-5 -2,-11 -2,-17zm55 -8c0,-3 -1,-5 -1,-8 -1,-2 -2,-4 -4,-6 -1,-2 -3,-3 -5,-4 -2,-1 -4,-1 -7,-1 -3,0 -6,0 -8,1 -2,1 -4,3 -5,5 -2,1 -3,3 -4,6 -1,2 -1,4 -2,7l36 0z"/>
  <path id="4" class="fil2" d="M1158 891c-2,-1 -4,-1 -7,-2 -3,0 -6,-1 -10,-1 -2,0 -4,1 -6,1 -3,0 -4,1 -5,1l0 66 -19 0 0 -78c3,-2 8,-3 14,-4 5,-1 11,-2 18,-2 1,0 3,0 4,0 2,0 4,1 5,1 2,0 4,1 5,1 2,0 3,1 4,1l-3 16z"/>
  <path id="5" class="fil2" d="M1170 915c0,-7 1,-13 3,-19 2,-5 5,-10 8,-13 4,-4 8,-7 13,-8 4,-2 9,-3 14,-3 11,0 20,3 26,10 6,7 10,18 10,32 0,1 0,2 -1,3 0,2 0,3 0,4l-54 0c1,6 3,11 7,15 4,4 10,5 18,5 5,0 9,0 13,-1 4,-1 7,-2 9,-2l2 15c-1,1 -2,1 -4,2 -2,0 -4,1 -6,1 -3,1 -5,1 -8,1 -3,1 -5,1 -8,1 -8,0 -14,-1 -19,-3 -5,-2 -10,-5 -13,-9 -4,-4 -6,-9 -8,-14 -2,-5 -2,-11 -2,-17zm55 -8c0,-3 -1,-5 -2,-8 0,-2 -1,-4 -3,-6 -1,-2 -3,-3 -5,-4 -2,-1 -4,-1 -7,-1 -3,0 -6,0 -8,1 -2,1 -4,3 -5,5 -2,1 -3,3 -4,6 -1,2 -1,4 -2,7l36 0z"/>
  <path id="6" class="fil2" d="M1279 915c0,8 2,15 6,19 3,5 9,7 16,7 3,0 6,0 8,0 2,0 4,0 5,-1l0 -47c-2,-1 -4,-2 -7,-3 -2,-1 -5,-2 -9,-2 -6,0 -11,3 -15,7 -3,5 -4,12 -4,20zm54 38c-4,2 -8,3 -14,4 -6,0 -12,1 -18,1 -7,0 -12,-1 -18,-3 -5,-2 -9,-5 -13,-9 -3,-3 -6,-8 -8,-13 -2,-5 -3,-11 -3,-18 0,-6 1,-12 3,-18 1,-5 4,-9 7,-13 3,-4 7,-7 11,-9 5,-2 10,-3 16,-3 4,0 7,1 10,2 3,0 6,1 8,3l0 -40 19 -3 0 119z"/>
 </g>
</svg>
