<?xml version="1.0" encoding="UTF-8" standalone="no"?>
<!-- Generator: Fusion 360, Shaper Origin Export Add-In, Version 1.6.3  -->

<svg
   xmlns:shaper="http://www.shapertools.com/namespaces/shaper"
   xmlns:dc="http://purl.org/dc/elements/1.1/"
   xmlns:cc="http://creativecommons.org/ns#"
   xmlns:rdf="http://www.w3.org/1999/02/22-rdf-syntax-ns#"
   xmlns:svg="http://www.w3.org/2000/svg"
   xmlns="http://www.w3.org/2000/svg"
   xmlns:sodipodi="http://sodipodi.sourceforge.net/DTD/sodipodi-0.dtd"
   xmlns:inkscape="http://www.inkscape.org/namespaces/inkscape"
   shaper:fusionaddin="version:1.6.3"
   width="2.5cm"
   height="2.5cm"
   version="1.1"
   x="0cm"
   y="0cm"
   viewBox="0 0 2.5000001 2.5"
   enable-background="new 0 0 2.4889103 2.4063027"
   xml:space="preserve"
   id="svg6537"
   sodipodi:docname="M-POWERED_BW_Border_square.svg"
   inkscape:version="0.92.4 (5da689c313, 2019-01-14)"><metadata
     id="metadata6543"><rdf:RDF><cc:Work
         rdf:about=""><dc:format>image/svg+xml</dc:format><dc:type
           rdf:resource="http://purl.org/dc/dcmitype/StillImage" /><dc:title></dc:title></cc:Work></rdf:RDF></metadata><defs
     id="defs6541" /><sodipodi:namedview
     pagecolor="#ffffff"
     bordercolor="#666666"
     borderopacity="1"
     objecttolerance="10"
     gridtolerance="10"
     guidetolerance="10"
     inkscape:pageopacity="0"
     inkscape:pageshadow="2"
     inkscape:window-width="1881"
     inkscape:window-height="1172"
     id="namedview6539"
     showgrid="false"
     fit-margin-top="0"
     fit-margin-left="0"
     fit-margin-right="0"
     fit-margin-bottom="0"
     inkscape:zoom="7.3395464"
     inkscape:cx="23.740976"
     inkscape:cy="38.823488"
     inkscape:window-x="0"
     inkscape:window-y="0"
     inkscape:window-maximized="0"
     inkscape:current-layer="svg6537" /><rect
     style="opacity:1;fill:#ffffff;fill-opacity:1;stroke:none;stroke-width:0.02645833;stroke-linecap:butt;stroke-linejoin:round;stroke-miterlimit:4;stroke-dasharray:none;stroke-opacity:1"
     id="rect7099"
     width="2.5"
     height="2.5"
     x="0"
     y="0" /><path
     d="M 0.35720977,0.18107854 H 2.1461201 a 0.25,0.25 0 0 1 0.25,0.25 V 2.1373812 a 0.25,0.25 0 0 1 -0.25,0.25 H 0.35720977 a 0.25,0.25 0 0 1 -0.25,-0.25 V 0.43107854 a 0.25,0.25 0 0 1 0.25,-0.25 z"
     shaper:cutDepth="0"
     id="path6517"
     style="fill:#000000;fill-opacity:1;stroke:none;stroke-width:0.001cm;stroke-linecap:round;stroke-linejoin:round"
     inkscape:connector-curvature="0" /><path
     d="M 2.2961201,1.538412 H 0.20720977 v 0.5989692 a 0.15,0.15 0 0 0 0.15,0.15 H 2.1461201 a 0.15,0.15 0 0 0 0.15,-0.15 z"
     shaper:cutDepth="0"
     id="path6515"
     style="fill:#ffffff;fill-opacity:1;stroke-linecap:round;stroke-linejoin:round"
     inkscape:connector-curvature="0" /><path
     d="M 2.2961201,1.438412 V 0.43107854 a 0.15,0.15 0 0 0 -0.15,-0.15 H 0.35720977 a 0.15,0.15 0 0 0 -0.15,0.15 V 1.438412 Z"
     shaper:cutDepth="0"
     id="path6513"
     style="fill:#ffffff;fill-opacity:1;stroke-linecap:round;stroke-linejoin:round"
     inkscape:connector-curvature="0" /><g
     id="g7097"
     style="fill:#000000;fill-opacity:1"
     transform="translate(0.00720977,0.08107854)"><path
       style="fill:#000000;fill-opacity:1;stroke:none;stroke-width:0.001cm;stroke-linecap:round;stroke-linejoin:round;stroke-opacity:1"
       id="path6523"
       shaper:cutDepth="0"
       transform="matrix(1,0,0,-1,0.2,1.3573335)"
       d="m 0.6404555,-0.5121096 v 0 l -5.712e-4,-0.0134856 -0.001391,-0.0133524 -0.00274,-0.0129113 -0.003721,-0.0131347 v 0 l -0.004557,-0.0110194 -0.005315,-0.0105724 -0.006516,-0.009693 -0.00748,-0.009431 v 0 l -0.008367,-0.007961 -0.008827,-0.007136 -0.009744,-0.005926 -0.0102674,-0.005185 v 0 l -0.0117766,-0.00409 -0.0117055,-0.00305 -0.0121546,-0.001561 -0.0123332,-6.591e-4 v 0 l -0.0122795,6.526e-4 -0.0120993,0.001557 -0.0116352,0.003048 -0.0117219,0.004102 v 0 l -0.0101996,0.005205 -0.009681,0.005937 -0.008782,0.007136 -0.00831,0.00793 v 0 l -0.007509,0.009444 -0.006557,0.009695 -0.005388,0.0105681 -0.004648,0.011009 v 0 l -0.003821,0.0131183 -0.002817,0.0129091 -0.001431,0.013358 -5.89e-4,0.0134986 v 0 l 5.833e-4,0.0134443 0.001428,0.0133027 0.002816,0.0128395 0.003831,0.0130634 v 0 l 0.004695,0.0109667 0.005443,0.0105149 0.006632,0.009644 0.007566,0.009356 v 0 l 0.008364,0.007875 0.008853,0.007096 0.009736,0.005872 0.0102536,0.005131 v 0 l 0.0116079,0.003981 0.0115436,0.002974 0.0119723,0.001524 0.0121441,6.461e-4 v 0 l 0.0121981,-6.525e-4 0.0120278,-0.001528 0.0116143,-0.002976 0.0116618,-0.003969 v 0 l 0.01028,-0.005096 0.00975,-0.005854 0.008825,-0.007095 0.008351,-0.007929 v 0 l 0.007484,-0.009386 0.006556,-0.009648 0.005397,-0.0105048 0.004665,-0.010943 v 0 l 0.003831,-0.0130634 0.002816,-0.0128395 0.001428,-0.0133027 z"
       inkscape:connector-curvature="0" /><path
       style="fill:#000000;fill-opacity:1;stroke:none;stroke-width:0.001cm;stroke-linecap:round;stroke-linejoin:round;stroke-opacity:1"
       id="path6525"
       shaper:cutDepth="0"
       transform="matrix(1,0,0,-1,0.2,1.3573335)"
       d="m 1.9372815,-0.3983858 v 0.1174678 l 0.056628,0.00936 v -0.3556795 0 l -0.010676,-0.002877 -0.010188,-0.002449 -0.021491,-0.004033 v 0 l -0.026695,-0.003202 -0.026891,-0.00101 v 0 l -0.013296,5.833e-4 -0.013143,0.001457 -0.012629,0.002889 -0.012879,0.003963 v 0 l -0.010727,0.004921 -0.010211,0.005707 -0.00927,0.006978 -0.00887,0.0079 v 0 l -0.00775,0.009227 -0.00678,0.009563 -0.00553,0.0104852 -0.00474,0.010972 v 0 l -0.00385,0.0131936 -0.00281,0.0129351 -0.00142,0.0134239 -5.728e-4,0.0135653 v 0 l 4.795e-4,0.0133709 0.00119,0.0132707 0.00236,0.0128524 0.00323,0.013156 v 0 l 0.00395,0.0108621 0.00469,0.0104704 0.00585,0.009663 0.00681,0.009487 v 0 l 0.00752,0.007846 0.00807,0.007096 0.00901,0.005882 0.00956,0.00515 v 0 l 0.011402,0.004075 0.011221,0.002964 0.011764,0.001492 0.011945,5.939e-4 v 0 l 0.015886,-9.373e-4 0.01547,-0.003275 v 0 l 0.011952,-0.004171 z"
       inkscape:connector-curvature="0" /><path
       style="fill:#000000;fill-opacity:1;stroke:none;stroke-width:0.001cm;stroke-linecap:round;stroke-linejoin:round;stroke-opacity:1"
       id="path6527"
       shaper:cutDepth="0"
       transform="matrix(1,0,0,-1,0.2,1.3573335)"
       d="m 1.4692823,-0.3901958 v 0 l 0.011232,-0.003042 -0.00983,-0.047736 v 0 l -0.00951,0.002691 -0.00991,0.002223 v 0 l -0.014271,0.00201 -0.014511,5.636e-4 v 0 l -0.00998,-4.98e-4 -0.00991,-0.001374 v 0 l -0.00765,-0.001458 -0.0071,-0.001818 v -0.1960917 h -0.056628 v 0.2330637 0 l 0.010288,0.003424 0.00985,0.002966 0.020814,0.005076 v 0 l 0.013731,0.002403 0.013334,0.001748 0.027457,0.00123 v 0 l 0.013104,-7.019e-4 v 0 l 0.014976,-0.001872 v 0 z"
       inkscape:connector-curvature="0" /><path
       style="fill:#000000;fill-opacity:1;stroke:none;stroke-width:0.001cm;stroke-linecap:round;stroke-linejoin:round;stroke-opacity:1"
       id="path6529"
       shaper:cutDepth="0"
       transform="matrix(1,0,0,-1,0.2,1.3573335)"
       d="M 1.7262137,-0.5298936 H 1.564754 v 0 l 0.0021,-0.0128978 0.00157,-0.006207 0.00218,-0.005917 0.0029,-0.005461 0.00352,-0.005081 0.00855,-0.0100662 v 0 l 0.00645,-0.004083 0.00607,-0.003539 0.00606,-0.002942 0.00644,-0.002294 0.0069,-0.001567 0.00711,-9.283e-4 0.014554,-7.918e-4 v 0 l 0.01897,8.61e-4 0.018704,0.002883 v 0 l 0.013797,0.00342 0.013113,0.004536 0.00749,-0.046332 v 0 l -0.01287,-0.004914 v 0 l -0.01872,-0.00468 v 0 l -0.022698,-0.00351 v 0 L 1.644563,-0.6404627 1.63214,-0.6408083 v 0 l -0.014404,5.841e-4 -0.014235,0.001545 -0.013575,0.003112 -0.013946,0.004353 v 0 l -0.010888,0.005134 -0.010325,0.005958 -0.00924,0.007256 -0.00886,0.008328 v 0 l -0.00727,0.00927 -0.00635,0.009618 -0.00506,0.0104521 -0.00426,0.0109077 v 0 l -0.0033,0.0126394 -0.00244,0.0124261 -0.00124,0.0128017 -5.14e-4,0.0129108 v 0 l 5.963e-4,0.0145099 0.00155,0.0143429 0.00311,0.0137114 0.00433,0.0140637 v 0 l 0.00499,0.0110213 0.00573,0.0105481 0.00688,0.009574 0.00791,0.009338 v 0 l 0.00825,0.007401 0.00873,0.006686 0.00949,0.005474 0.010033,0.004776 v 0 l 0.010263,0.003432 0.010408,0.002681 0.010613,0.001418 0.010837,6.597e-4 v 0 l 0.022177,-0.001976 0.010689,-0.00196 0.010209,-0.003128 0.00945,-0.004497 0.00882,-0.00568 0.00863,-0.006664 0.00888,-0.00745 v 0 l 0.00723,-0.0112462 0.00624,-0.0105444 0.00517,-0.0105419 0.00402,-0.0112389 0.00274,-0.012078 0.0016,-0.012446 0.00132,-0.0255045 v 0 l -2.34e-4,-0.0105299 v 0 z"
       inkscape:connector-curvature="0" /><path
       style="fill:#000000;fill-opacity:1;stroke:none;stroke-width:0.001cm;stroke-linecap:round;stroke-linejoin:round;stroke-opacity:1"
       id="path6531"
       shaper:cutDepth="0"
       transform="matrix(1,0,0,-1,0.2,1.3573335)"
       d="M 1.2703825,-0.5298936 H 1.1089227 v 0 l 0.0021,-0.0128978 0.00157,-0.006207 0.00218,-0.005917 0.0029,-0.005461 0.00352,-0.005081 0.00855,-0.0100662 v 0 l 0.00645,-0.004083 0.00607,-0.003539 0.00606,-0.002942 0.00644,-0.002294 0.0069,-0.001567 0.00711,-9.283e-4 0.014554,-7.918e-4 v 0 l 0.018969,8.61e-4 0.018704,0.002883 v 0 l 0.013797,0.00342 0.013113,0.004536 0.00749,-0.046332 v 0 l -0.01287,-0.004914 v 0 l -0.01872,-0.00468 v 0 l -0.022698,-0.00351 v 0 l -0.012381,-0.001058 -0.012423,-3.456e-4 v 0 l -0.014404,5.841e-4 -0.014234,0.001545 -0.013575,0.003112 -0.013946,0.004353 v 0 l -0.010888,0.005134 -0.010325,0.005958 -0.00924,0.007256 -0.00886,0.008328 v 0 l -0.00727,0.00927 -0.00635,0.009618 -0.00506,0.0104521 -0.00426,0.0109077 v 0 l -0.0033,0.0126394 -0.00244,0.0124261 -0.00124,0.0128017 -5.14e-4,0.0129108 v 0 l 5.964e-4,0.0145098 0.00155,0.014343 0.00311,0.0137114 0.00433,0.0140637 v 0 l 0.00499,0.0110213 0.00573,0.0105481 0.00688,0.009574 0.00791,0.009338 v 0 l 0.00825,0.007401 0.00873,0.006686 0.00949,0.005473 0.010033,0.004776 v 0 l 0.010263,0.003432 0.010408,0.002681 0.010613,0.001418 0.010837,6.597e-4 v 0 l 0.022177,-0.001976 0.010689,-0.00196 0.010209,-0.003128 0.00945,-0.004497 0.00882,-0.00568 0.00863,-0.006664 0.00888,-0.00745 v 0 l 0.00723,-0.0112462 0.00624,-0.0105444 0.00517,-0.0105419 0.00402,-0.0112389 0.00274,-0.012078 0.0016,-0.012446 0.00132,-0.0255045 v 0 l -2.339e-4,-0.0105299 v 0 z"
       inkscape:connector-curvature="0" /><path
       style="fill:#000000;fill-opacity:1;stroke:none;stroke-width:0.001cm;stroke-linecap:round;stroke-linejoin:round;stroke-opacity:1"
       id="path6533"
       shaper:cutDepth="0"
       transform="matrix(1,0,0,-1,0.2,1.3573335)"
       d="M 0.7975131,-0.6347255 H 0.7510203 v 0 l -0.005237,0.0124034 -0.004902,0.0119661 -0.00955,0.0247705 v 0 L 0.720733,-0.5562261 0.7107028,-0.5266176 v 0 l -0.0206285,0.0659879 v 0 l -0.0201569,0.0706678 h 0.0599259 v 0 l 0.009875,-0.0423539 v 0 l 0.0117585,-0.0463319 v 0 l 0.0127018,-0.0460979 v 0 l 0.0131661,-0.041184 v 0 l 0.0138352,0.04446 v 0 l 0.0128992,0.0458639 v 0 l 0.0114953,0.0446939 v 0 l 0.009616,0.0409499 h 0.0435239 v 0 l 0.009338,-0.0409499 v 0 l 0.0109724,-0.0446939 v 0 L 0.901632,-0.5214696 v 0 l 0.0137731,-0.04446 v 0 l 0.0126981,0.041184 v 0 l 0.0129358,0.0460979 v 0 l 0.0119925,0.0463319 v 0 l 0.009875,0.0423539 H 1.021421 v 0 L 1.001264,-0.4606297 v 0 L 0.9806325,-0.5266176 v 0 L 0.9705996,-0.5562258 0.9600003,-0.5855855 v 0 L 0.9503284,-0.6104 0.9452765,-0.62236 0.9398434,-0.6347255 H 0.8938113 v 0 l -0.0250051,0.0737099 v 0 l -0.0124259,0.0399439 -0.0111751,0.040318 v 0 L 0.8341477,-0.5210374 0.8220575,-0.5610156 v 0 z"
       inkscape:connector-curvature="0" /><path
       style="fill:#000000;fill-opacity:1;stroke:none;stroke-width:0.001cm;stroke-linecap:round;stroke-linejoin:round;stroke-opacity:1"
       id="path6535"
       shaper:cutDepth="0"
       transform="matrix(1,0,0,-1,0.2,1.3573335)"
       d="M 0.2187882,-0.5205336 H 0.1893042 V -0.6347255 H 0.1303363 v 0.3196436 0 l 0.0226499,0.004051 0.02298,0.002267 v 0 l 0.0230765,0.001195 0.0230215,4.434e-4 v 0 l 0.0287525,-0.001122 0.0141538,-0.001431 0.0138856,-0.002476 0.013075,-0.003652 0.0124121,-0.00471 0.0125561,-0.005707 0.0135067,-0.006642 v 0 l 0.009149,-0.008661 0.008139,-0.008489 0.006888,-0.008862 0.005395,-0.009779 0.003662,-0.0107292 0.002223,-0.0111207 0.002219,-0.0228557 v 0 L 0.3674718,-0.4260344 0.3658538,-0.4384919 0.3625898,-0.450256 0.3580188,-0.462268 v 0 l -0.0058,-0.009669 -0.006609,-0.008892 -0.008007,-0.007697 -0.008834,-0.00697 v 0 L 0.3175148,-0.501868 0.3063236,-0.507139 0.2943075,-0.511188 0.2819681,-0.51445 v 0 L 0.2660205,-0.517209 0.2506411,-0.519182 0.2347449,-0.5201622 Z"
       inkscape:connector-curvature="0" /><path
       style="fill:#000000;fill-opacity:1;stroke:none;stroke-width:0.001cm;stroke-linecap:round;stroke-linejoin:round"
       id="path6519"
       shaper:cutDepth="0"
       transform="matrix(1,0,0,-1,0.2,1.3573335)"
       d="M 0.2898468,0.1390712 0.1748035,0.2193667 0.7563476,1.0525732 0.8713909,0.9722777 Z"
       inkscape:connector-curvature="0" /><path
       style="fill:#000000;fill-opacity:1;stroke:none;stroke-width:0.001cm;stroke-linecap:round;stroke-linejoin:round"
       id="path6521"
       shaper:cutDepth="0"
       transform="matrix(1,0,0,-1,0.2,1.3573335)"
       d="M 1.3962292,1.0033805 1.942044,0.2200667 1.8189746,0.1343117 1.3225036,0.8468108 0.8275572,0.133144 0.7042987,0.2186269 1.2484324,1.0032173 a 0.09,0.09 145.25769 0 0 0.1477968,1.632e-4 z"
       inkscape:connector-curvature="0" /></g><path
     d="m 2.0387234,1.9500537 v 0 l 9.586e-4,0.015886 0.00105,0.00776 0.00174,0.00754 0.00253,0.00708 0.00323,0.0067 0.00386,0.0067 0.00441,0.00707 v 0 l 0.010665,0.00941 0.00547,0.00386 0.00588,0.00307 0.00638,0.00215 0.00672,0.00137 0.014023,0.00144 v 0 l 0.011672,-2.453e-4 0.011494,-9.247e-4 v 0 l 0.015678,-0.00257 v -0.1403998 0 l -0.00957,-0.00539 -0.010323,-0.00421 v 0 l -0.013023,-0.00337 -0.013419,-0.00108 v 0 l -0.011436,0.00102 -0.010787,0.00236 -0.005,0.00213 -0.0054,0.00348 -0.00629,0.00554 -0.00625,0.00652 v 0 l -0.00359,0.00709 -0.00312,0.00665 -0.0026,0.00659 -0.00203,0.0069 -0.00222,0.01474 z"
     shaper:cutDepth="0"
     id="path6501"
     style="fill:#ffffff;fill-opacity:1;stroke-linecap:round;stroke-linejoin:round"
     inkscape:connector-curvature="0" /><path
     d="m 0.43348597,1.7965499 v 0 l -0.0186764,2.797e-4 -0.0089,4.557e-4 -0.009396,6.686e-4 v 0.1104478 h 0.028548 v 0 l 0.0170954,-4.73e-4 0.0168346,-0.00179 0.007929,-0.00169 0.007576,-0.00219 0.007721,-0.00267 0.008364,-0.00312 v 0 l 0.008388,-0.00689 0.007037,-0.00761 0.002745,-0.00462 0.001296,-0.00313 0.001168,-0.00389 0.001554,-0.00928 7.437e-4,-0.00974 v 0 l -3.563e-4,-0.00697 -9.715e-4,-0.00683 -0.001973,-0.00638 -0.002784,-0.0065 v 0 l -0.003408,-0.00502 -0.003846,-0.00458 -0.004578,-0.00385 -0.005016,-0.00341 v 0 l -0.0123507,-0.00541 -0.0131553,-0.00325 v 0 l -0.0157253,-0.00197 z"
     shaper:cutDepth="0"
     id="path6503"
     style="fill:#ffffff;fill-opacity:1;stroke-linecap:round;stroke-linejoin:round"
     inkscape:connector-curvature="0" /><path
     d="m 1.8777316,1.9266537 v 0 L 1.876937,1.9154107 1.874457,1.9044237 v 0 l -0.00392,-0.0096 -0.00568,-0.00865 v 0 l -0.00705,-0.00693 -0.00839,-0.00524 v 0 L 1.838829,1.8705437 1.827655,1.869554 v 0 l -0.011783,0.00112 -0.00554,0.0016 -0.00561,0.0022 v 0 l -0.00896,0.00559 -0.00765,0.00728 v 0 l -0.00609,0.00865 -0.00444,0.0096 v 0 l -0.00315,0.010389 -0.00199,0.010671 z"
     shaper:cutDepth="0"
     id="path6505"
     style="fill:#ffffff;fill-opacity:1;stroke-linecap:round;stroke-linejoin:round"
     inkscape:connector-curvature="0" /><path
     d="m 0.78963337,1.9505216 v 0 l -8.225e-4,-0.015434 -9.203e-4,-0.00757 -0.001531,-0.0074 -0.002231,-0.00698 -0.002851,-0.00664 -0.003411,-0.00668 -0.003911,-0.00709 v 0 l -0.009282,-0.00934 -0.004899,-0.00389 -0.005329,-0.00309 -0.005794,-0.00213 -0.006028,-0.00135 -0.0124255,-0.00149 v 0 l -0.0117713,0.00137 -0.005644,0.00118 -0.005354,0.00177 -0.005054,0.00259 -0.005164,0.00377 -0.0107713,0.01061 v 0 l -0.003911,0.00709 -0.003411,0.00668 -0.002851,0.00664 -0.002231,0.00698 -0.001531,0.0074 -9.202e-4,0.00757 -8.226e-4,0.015434 v 0 l 8.16e-4,0.015606 9.18e-4,0.00766 0.00153,0.00749 0.002231,0.00707 0.002852,0.00673 0.003414,0.00677 0.003918,0.00719 v 0 l 0.009245,0.00942 0.004895,0.00394 0.005328,0.00313 0.005797,0.00216 0.006036,0.00137 0.0124577,0.00151 v 0 l 0.0118667,-0.00141 0.005683,-0.00121 0.005382,-0.00182 0.00507,-0.00266 0.005148,-0.00383 0.0106079,-0.010597 v 0 l 0.003918,-0.00719 0.003414,-0.00677 0.002852,-0.00673 0.002231,-0.00707 0.00153,-0.00749 9.179e-4,-0.00766 z"
     shaper:cutDepth="0"
     id="path6507"
     style="fill:#ffffff;fill-opacity:1;stroke-linecap:round;stroke-linejoin:round"
     inkscape:connector-curvature="0" /><path
     d="m 1.4219003,1.9266537 v 0 l -7.946e-4,-0.011243 -0.00248,-0.010987 v 0 l -0.00392,-0.0096 -0.00568,-0.00865 v 0 l -0.00705,-0.00693 -0.00839,-0.00524 v 0 l -0.010588,-0.00346 -0.011174,-9.897e-4 v 0 l -0.011783,0.00112 -0.00554,0.0016 -0.00561,0.0022 v 0 l -0.00896,0.00559 -0.00765,0.00728 v 0 l -0.00609,0.00865 -0.00444,0.0096 v 0 l -0.00315,0.010389 -0.00199,0.010671 z"
     shaper:cutDepth="0"
     id="path6509"
     style="fill:#ffffff;fill-opacity:1;stroke-linecap:round;stroke-linejoin:round"
     inkscape:connector-curvature="0" /></svg>