<?xml version="1.0" encoding="UTF-8"?>
<!DOCTYPE svg PUBLIC "-//W3C//DTD SVG 1.0//EN" "http://www.w3.org/TR/2001/REC-SVG-20010904/DTD/svg10.dtd">
<!-- Creator: CorelDRAW X7 -->
<svg xmlns="http://www.w3.org/2000/svg" xml:space="preserve" width="16in" height="3.2in" version="1.0" style="shape-rendering:geometricPrecision; text-rendering:geometricPrecision; image-rendering:optimizeQuality; fill-rule:evenodd; clip-rule:evenodd"
viewBox="0 0 1600 320"
 xmlns:xlink="http://www.w3.org/1999/xlink">
 <defs>
  <style type="text/css">
   <![CDATA[
    .str0 {stroke:black;stroke-width:13.8886}
    .str1 {stroke:black;stroke-width:0.3}
    .fil1 {fill:#FEFEFE}
    .fil0 {fill:black}
    .fil2 {fill:#FEFEFE;fill-rule:nonzero}
   ]]>
  </style>
 </defs>
 <g id="Layer_x0020_1">
  <metadata id="CorelCorpID_0Corel-Layer"/>
  <path class="fil0 str0" d="M71 10l1459 0c23,0 41,19 41,42l0 216c0,23 -18,42 -41,42l-1459 0c-22,0 -41,-19 -41,-42l0 -216c0,-23 19,-42 41,-42z"/>
  <path class="fil1 str0" d="M449 310l-379 0c-23,0 -41,-19 -41,-42l0 -216c0,-23 18,-42 41,-42l379 0 0 300z"/>
  <g id="_2054017787728">
   <path class="fil0" d="M284 70l-1 0 -1 0 0 0 -1 1 0 0 -1 0 0 0 -1 1 0 0c0,1 0,1 -1,1l-1 0 0 0c0,1 0,1 0,1l-1 0 0 0 -1 1c0,1 0,0 0,0l0 1 -1 0c1,1 1,1 0,1l-1 0 0 1 0 0c0,1 0,1 0,1l-1 0 0 1 -1 1c0,1 1,1 0,0l-1 1 0 0c0,1 0,1 0,1l-1 0 0 1 0 0c0,1 0,1 -1,1l0 1 -1 0 0 1c0,1 0,1 0,0l-1 1 0 0c0,1 0,1 0,1l-1 0 0 1 -1 1 0 1 -1 0 0 1c0,1 0,1 0,1l-1 0 0 0 0 1c0,1 0,0 -1,0l0 1 -1 1 0 1 -1 0c0,1 1,1 0,1l0 0c0,1 0,1 -1,1l0 0 0 0 0 1c0,1 0,1 -1,1l0 0 -1 1 0 1 -1 0c0,1 1,1 0,1l0 0c0,1 0,1 -1,1l0 0 0 0 -1 1c1,1 1,1 0,1l0 0 -1 1 0 1c0,1 0,0 -1,0l0 1 0 0c0,1 0,1 -1,1l0 0 0 0 -1 1c0,1 1,1 0,1l-1 0 0 1 0 1c0,1 0,0 -1,0l0 1 0 0c0,1 0,1 -1,1l0 0 -1 1 0 1 -1 0 0 1 0 1c0,1 0,0 -1,0l0 1 0 0 -1 1c0,1 0,0 0,0l-1 1 0 1 -1 0 0 1c0,1 0,1 -1,1l0 0c0,1 1,1 0,0l-1 1 0 0 0 1c0,1 0,0 0,0l-1 1 0 1 -1 1 0 0c0,1 0,1 -1,1l0 0c0,1 1,1 0,0l-1 1 0 0 0 1c0,1 0,0 -1,0l0 1 0 1 -1 1c0,0 0,0 0,0l-1 1 0 0c0,1 0,1 0,1l-1 0 0 0 0 1c0,1 0,0 -1,0l0 1 -1 1 0 1c0,1 0,0 0,0l-1 1 0 0c0,1 0,1 0,1l-1 0 0 1 -1 1 0 0 -1 1 0 1c0,1 0,0 0,0l-1 1 0 0 0 1c0,0 0,0 -1,0l0 1 -1 1 0 0 -1 1 0 1c0,1 0,0 -1,0l0 1 0 0 0 1c0,0 0,0 -1,0l0 1 -1 1 0 0 -1 1c0,1 0,1 0,1l0 0c0,1 0,0 -1,0l0 1 0 0 -1 1c0,0 1,0 0,0l0 1 -1 1 0 1c0,0 0,0 -1,0l0 1 0 0c0,1 0,0 -1,0l0 1 0 0 -1 1c0,1 1,0 0,0l-1 1 0 1 0 1c0,0 0,0 -1,0l0 1 0 0c0,1 0,1 -1,0l0 1 -1 1 0 0 -1 1 0 1 -1 1c1,0 1,0 0,0l0 1 0 0 -1 1c0,0 0,0 0,0l-1 1 0 0 -1 1 0 1 -1 1c0,0 1,0 0,0l-1 1 0 0 0 1c0,0 0,0 0,0l-1 1 0 0 -1 1 0 1c0,1 0,0 -1,0l0 1c0,0 0,0 0,0l-1 1 0 0 0 1c0,0 0,0 -1,0l0 1 -1 1 0 0c0,1 0,1 0,1l-1 0 0 1c0,1 0,0 0,0l-1 1 0 0 0 1c0,0 0,0 -1,0l0 1 -1 1 0 1c0,0 0,0 0,0l-1 1 0 0c0,1 0,0 0,0l-1 1 0 1 -1 0 0 1 -1 1 0 1c0,0 0,0 -1,0l0 1 0 0 0 0c0,1 0,1 -1,1l0 1 -1 0 0 1 -1 1 0 1c0,0 0,0 -1,0l0 1 0 0 -1 1c1,0 1,0 0,0l0 1 -1 0 0 1 -1 1c0,0 0,0 0,0l0 1c0,0 0,0 -1,0l0 1 0 0 -1 1c0,0 1,0 0,0l-1 1 0 0 0 1c0,1 0,1 -1,1l0 0 0 1c0,0 0,0 -1,0l0 1 0 0 -1 1c0,0 0,0 0,0l-1 1 0 0 0 1c0,1 0,1 -1,1l0 0 0 1c0,0 0,0 -1,0l0 1 0 0 0 1 1 1c0,-1 0,-1 0,0l1 1 0 0c1,0 0,-1 0,0l1 1 1 0 0 0 1 1 1 0c0,0 0,0 0,1l0 0c1,0 1,-1 1,0l0 1 1 0 0 0c1,0 1,0 1,1l1 0 0 1 1 0 0 1c1,-1 1,-1 1,0l0 0c1,0 1,0 1,0l0 1 1 0 0 0c1,0 1,0 1,1l1 0 0 1 1 0 0 1c1,0 1,-1 1,0l0 0c1,0 1,0 1,1l0 0 1 0 0 1c1,-1 1,-1 1,0l0 0 1 1 1 0 1 0 0 0 1 -1 0 -1c0,-1 0,-1 0,0l1 -1 0 0c0,-1 0,-1 0,-1l1 0 0 -1 1 -1 0 0 1 -1c0,-1 -1,-1 0,-1l0 0c0,-1 0,-1 1,0l0 -1 0 0 1 -1c0,0 -1,0 0,0l0 -1 1 -1 0 -1 1 0c0,-1 0,-1 0,-1l0 0c0,-1 0,-1 1,0l0 -1 0 0 1 -1c0,-1 -1,0 0,0l0 -1 1 -1 0 -1 1 0c0,-1 0,-1 0,-1l0 0c0,-1 0,-1 1,-1l0 0 0 0 1 -1c0,-1 -1,0 0,0l1 -1 0 -1 1 -1 0 0c0,-1 0,-1 0,-1l0 0c0,-1 0,-1 1,-1l0 0 1 -1 0 -1 1 0 0 -1 1 -1c-1,-1 -1,0 0,0l1 -1 0 0c0,-1 -1,-1 0,-1l0 0 1 -1 0 -1 1 0 0 -1c0,-1 0,0 1,0l0 -1c0,-1 -1,0 0,0l1 -1 0 0 0 -1c0,0 0,0 1,0l0 -1 0 -1 1 0 0 -1c0,-1 0,-1 1,-1l0 0c0,-1 0,0 0,0l1 -1 0 0 0 -1c0,0 0,0 1,0l0 -1 1 -1 0 0 0 -1c0,-1 0,-1 1,-1l0 0c0,-1 0,0 0,0l1 -1 0 0 0 -1c0,-1 0,0 1,0l0 -1 1 -1 0 0 1 -1c-1,-1 -1,-1 0,-1l0 0c0,-1 0,0 0,0l1 -1 0 -1 1 0 0 -1 1 -1 0 -1c0,0 0,0 1,0l0 -1 0 0c0,-1 0,-1 1,0l0 -1 0 -1 1 0 0 -1 1 -1c0,-1 0,0 0,0l0 -1c0,0 0,0 1,0l0 -1 0 0c0,-1 0,-1 1,-1l0 0 0 -1 1 0 0 -1 1 -1c0,-1 0,0 0,0l0 -1c0,-1 0,0 1,0l0 -1 0 0 1 -1c0,0 -1,0 0,0l1 -1 0 -1 0 0 1 -1c0,-1 0,0 0,0l0 -1c0,-1 0,0 1,0l0 -1 0 0 1 -1c0,0 0,0 0,0l1 -1 0 -1 1 0 0 -1c0,-1 0,-1 0,-1l0 0c0,-1 0,0 1,0l0 -1 1 -1 0 0 1 -1 0 -1 1 -1c0,0 -1,0 0,0l1 -1 0 0c0,-1 -1,0 0,0l1 -1 0 -1 0 0 1 -1 0 -1 1 -1c0,0 -1,0 0,0l1 -1 0 0c0,-1 -1,0 0,0l1 -1 0 -1 1 0 0 -1 0 -1c0,0 0,0 1,0l0 -1c0,0 0,0 0,0l1 -1 0 0 0 -1c0,0 0,0 1,0l0 -1 1 0 0 -1 0 -1c0,0 0,0 1,0l0 -1c0,0 0,0 0,0l1 -1 0 0 0 -1c0,0 0,0 1,0l0 -1 1 0 0 -1 1 -1c0,-1 -1,0 0,0l0 -1c0,0 0,0 0,0l1 -1 0 0 0 -1c0,0 0,0 1,0l0 -1 1 0 0 -1c0,-1 0,-1 1,-1l0 0 0 -1c0,0 0,0 1,0l0 -1 0 -1 1 0 0 -1 1 -1 0 -1c0,0 0,0 1,0l0 0 0 -1c0,-1 0,0 1,0l0 -1 0 -1 1 0 0 -1 1 -1c0,0 0,0 0,0l0 -1c0,0 0,0 1,0l0 -1 0 0 1 0c0,-1 -1,-1 0,-1l1 -1 0 0 1 -1 0 -1c0,0 0,0 0,0l0 -1c0,0 0,0 1,0l0 -1 0 0 1 0c0,-1 0,-1 0,-1l1 -1 0 0 1 -1 0 -1c0,0 0,0 1,0l0 -1 0 0 0 -1 1 1 0 1 1 0c0,0 0,0 0,1l0 0 1 1c0,0 0,-1 0,0l1 1 0 1 1 0c0,0 0,0 0,1l0 0 0 1 1 0c1,0 0,0 0,1l1 1 0 0 1 1c0,0 0,0 0,1l1 0 0 1 0 0c1,0 1,0 1,0l0 1c0,0 0,0 0,0l0 1 1 1 0 0 1 1 0 1c1,0 1,-1 1,0l0 1 0 0c1,0 1,0 1,0l0 1 1 1 0 1c1,0 0,0 0,0l1 1 0 0 0 1c1,0 1,-1 1,0l0 1 1 1 0 0c1,0 1,0 1,1l0 1 0 0 1 0c0,0 0,0 0,1l0 0c1,0 0,0 0,1l1 0 0 1 1 1 0 0c1,0 1,0 1,1l0 1 0 0 1 0c0,0 0,0 0,1l0 1 1 0 0 1c1,0 1,0 1,1l0 0 0 1 1 0c0,0 0,0 0,1l1 1 0 0 1 1 0 0 0 1 1 1c1,0 0,0 0,0l0 1c1,0 1,-1 1,0l0 1 1 1 0 0 1 1c0,0 0,0 0,0l1 1 0 0 0 1c1,0 1,-1 1,0l0 1 0 1 1 1c1,0 0,-1 0,0l1 1 0 0 0 0c1,0 1,0 1,1l0 1 1 0 0 1 1 1 0 1 0 0c1,0 1,0 1,1l0 0 0 0c1,0 1,0 1,1l0 1 1 0 0 1c1,0 1,0 1,1l0 0 0 1 1 0c0,0 0,0 0,1l0 1 1 0 0 1c1,0 1,0 1,0l0 1 0 0 1 1c0,0 0,0 0,0l0 1c1,0 1,0 1,0l0 1 0 1 1 0 0 1 1 1c1,-1 0,-1 0,0l0 0 1 1c1,0 0,0 0,0l1 1 0 1 1 1c0,0 0,-1 0,0l0 1 0 0 1 0c1,0 0,0 0,1l1 1 0 0 1 1c0,0 0,0 0,1l1 0 0 1 0 0c1,0 1,0 1,1l0 0c0,0 0,0 0,1l0 0 1 1 0 0 1 1 0 1c1,0 1,0 1,0l0 1 0 0c1,0 1,0 1,1l0 1 1 0 0 1c1,0 1,0 0,1l1 0 0 0 0 1c1,0 1,0 1,0l0 1 1 1 0 1c1,0 1,-1 1,0l0 1 0 0 1 1c0,0 0,-1 0,0l0 0c1,0 1,0 0,1l1 1 0 0 1 1 0 1 1 0c0,0 0,0 0,1l0 0 1 1c0,-1 0,-1 0,0l0 1 1 1 0 0c1,0 1,0 1,1l0 0 0 1 1 0c1,0 0,0 0,1l1 1 0 0 1 1c0,0 0,0 0,1l0 0 0 0 1 1c1,0 0,0 0,0l0 1c1,0 1,0 1,0l0 1 1 1 0 0 1 1c0,0 0,0 0,1l1 0 0 0 0 1c1,0 1,0 1,0l0 1 0 1 1 1c1,0 0,0 0,0l1 1 0 0 0 1c1,0 1,-1 1,0l0 1 1 1 0 0 1 1 0 1 0 0c1,0 1,0 1,1l0 0c1,0 0,0 0,1l1 0 0 1 1 1 0 0c1,0 1,0 1,1l0 1 0 0 1 0c0,0 0,0 0,1l0 1 1 0 0 1c1,0 1,0 1,1l0 0 0 1 1 0c0,0 0,0 0,1l0 0 1 0 1 0c0,-1 0,-1 0,-1l1 0 0 0 1 0c0,-1 0,-1 0,-1l1 0 1 -1 0 0c0,-1 0,-1 1,-1l1 0 0 0 0 -1c0,0 0,0 1,0l0 0c0,-1 0,-1 1,-1l0 0 1 -1 1 0 0 -1c0,0 0,0 1,0l0 0 1 0 0 -1c0,-1 0,0 1,0l1 -1 0 0 1 -1c0,0 0,0 0,0l1 -1 0 0 1 0c0,-1 0,-1 0,-1l1 0 1 -1 0 0c0,-1 0,0 1,0l1 -1 0 0 0 0c0,-1 0,-1 1,-1l0 0c1,0 0,0 1,-1l0 0c-1,0 -1,0 -1,-1l0 0 -1 -1 0 -1 -1 -1 0 0c-1,0 0,0 0,-1l0 0 -1 0c-1,0 -1,0 0,-1l-1 -1 0 0 -1 -1c0,0 0,0 0,-1l-1 0 0 -1 0 0c-1,0 -1,0 -1,-1l0 0c0,0 0,0 0,0l0 -1 -1 -1 0 0 -1 -1 0 -1c-1,0 -1,0 -1,0l0 -1c0,0 0,1 0,0l-1 -1 0 0 -1 -1 0 -1 0 0c-1,0 -1,0 -1,-1l0 0 0 -1c-1,0 -1,1 -1,0l0 -1 -1 -1 0 0c-1,0 -1,0 -1,-1l0 -1 0 0 -1 0c0,0 0,0 0,-1l0 0c-1,0 -1,0 0,-1l-1 0 0 -1 -1 -1 0 -1 -1 0c0,0 0,0 0,-1l0 0c-1,0 -1,0 -1,-1l0 0 -1 -1 0 0 0 -1 -1 -1c-1,0 0,0 0,0l0 -1 -1 0c-1,0 0,0 0,-1l-1 -1 0 0 -1 -1c0,0 0,0 0,0l-1 -1 0 0 0 -1c-1,0 -1,0 -1,0l0 -1c0,0 0,1 0,0l0 -1 -1 -1 0 0 -1 -1 0 0c-1,0 -1,0 -1,-1l0 0c0,0 0,0 0,-1l-1 0 0 -1 0 -1 -1 -1c0,0 0,0 0,0l-1 -1 0 0 0 0c-1,0 -1,0 -1,-1l0 -1 -1 0 0 -1c-1,0 -1,0 -1,-1l0 0 0 -1 0 0c-1,0 -1,0 -1,-1l0 0c-1,0 0,0 0,-1l-1 0 0 -1 -1 0 0 -1 -1 -1c0,0 0,0 0,0l0 -1c-1,0 -1,0 0,0l-1 -1 0 -1 -1 0 0 -1c-1,0 -1,0 -1,0l0 -1 0 0 -1 -1c0,0 0,0 0,0l-1 -1 0 -1 -1 -1c0,0 0,1 0,0l0 -1 0 0 -1 -1c-1,1 0,1 0,0l0 0c-1,0 -1,0 -1,-1l0 -1 -1 0 0 -1 -1 -1 0 0c-1,0 -1,0 -1,-1l0 0c0,0 0,0 0,-1l0 0 -1 -1 0 -1 -1 0c-1,0 0,0 0,-1l-1 0 0 -1 0 0c-1,0 -1,0 -1,-1l0 -1 -1 0 0 -1 -1 0 0 -1 0 -1c-1,0 -1,0 -1,0l0 -1c0,0 0,0 0,0l-1 -1 0 -1 -1 0 0 -1 0 -1c-1,0 -1,1 -1,0l0 0 0 -1c-1,0 -1,0 -1,0l0 -1 -1 -1 0 -1c-1,0 -1,0 -1,0l0 -1 0 0 -1 -1c0,0 0,1 0,0l0 0c-1,0 -1,0 -1,-1l0 -1 0 0 -1 -1 0 -1 -1 0c0,0 0,0 0,-1l0 0c-1,0 -1,0 -1,-1l0 0 -1 -1 0 -1 0 -1 -1 0c-1,0 0,0 0,0l0 -1 -1 0c-1,0 0,0 0,-1l-1 -1 0 0 -1 -1c0,0 0,0 0,-1l-1 0 0 -1 0 0c-1,0 -1,0 -1,0l0 -1c0,0 0,0 0,0l0 -1 -1 -1 0 0 -1 -1 0 -1c-1,0 -1,0 -1,0l0 -1c0,0 0,1 0,0l-1 -1 0 0 -1 -1 0 -1c-1,0 0,0 0,0l-1 -1 0 0 0 -1c-1,0 -1,1 -1,0l0 -1 -1 -1 0 0c-1,0 -1,0 -1,-1l0 -1 0 0 -1 0c0,0 0,0 0,-1l0 0c-1,0 0,0 0,-1l-1 0 0 -1 -1 -1 0 -1 -1 0c0,0 0,0 0,-1l0 0c-1,0 -1,0 -1,0l0 -1 0 -1 -1 0 0 -1c-1,0 -1,0 -1,-1l0 0 0 -1 -1 0c-1,0 0,0 0,-1l-1 -1 0 0 -1 -1c0,0 0,0 0,0l0 -1 0 0 -1 -1c-1,0 0,0 0,0l0 -1c-1,0 -1,1 -1,0l0 -1 -1 -1 0 0 -1 -1 0 0c-1,0 -1,0 -1,-1l0 0c0,0 0,0 0,-1l0 0 -1 -1 0 -1 -1 -1c-1,0 0,1 0,0l-1 -1 0 0 0 0c-1,0 -1,0 -1,-1l0 -1 -1 0 0 -1 0 -1c-1,0 -1,1 -1,0l0 -1 -2 -2 -1 0c0,0 0,0 0,0l-1 -1 0 0 0 0 -1 -1 0 0c-1,0 -1,0 -1,0l0 0 -1 -1 0 0 -1 0 -1 0 -1 -1 -1 0 -5 0 -1 0 -1 1z"/>
   <path class="fil0" d="M177 68c0,1 0,0 -1,0l0 1 0 0c0,1 0,1 -1,1l0 0 0 1 -1 1 0 0 -1 1c0,1 0,1 0,1l0 0c0,1 0,0 -1,0l0 1 0 0 -1 1c0,0 0,0 0,0l-1 1 0 1 -1 1c1,0 1,0 0,0l0 1 0 0 -1 0c0,1 0,1 0,1l-1 1 0 0 -1 1c0,1 1,1 0,1l-1 0 0 1 0 0c0,1 0,1 -1,1l0 0 -1 1 0 1c0,1 0,1 0,0l-1 1 0 0 0 1c0,1 0,0 -1,0l0 1 -1 1 0 0 -1 1c1,1 1,1 0,1l0 0c0,1 0,0 0,0l-1 1 0 1 -1 0 0 1 -1 1c0,0 1,0 0,0l0 1c0,0 0,0 -1,0l0 1 0 0 -1 0c1,1 1,1 0,1l0 1 -1 0 0 1c0,1 0,1 -1,1l0 0 0 1 -1 0c0,1 1,1 0,1l-1 0 0 1 0 1c0,1 0,1 -1,0l0 1 0 0 -1 1c0,1 0,0 0,0l-1 1 0 1 -1 1c0,0 1,0 0,0l-1 1 0 0c0,1 1,1 0,0l-1 1 0 1 0 0 -1 1 0 1c0,0 0,0 -1,0l0 1c0,0 0,0 0,0l-1 1 0 1 -1 0 0 1 -1 0c1,1 1,1 0,1l0 0c0,1 0,1 0,1l-1 0 0 1 0 0c0,1 0,1 -1,1l0 0 -1 1 0 1c0,1 0,1 -1,0l0 1 0 0 0 1c0,1 0,0 -1,0l0 1 -1 1 0 1c0,0 0,0 -1,0l0 1 0 0 -1 1c0,0 1,0 0,0l-1 1 0 0 0 1c0,1 0,1 -1,1l0 0 0 1c0,0 0,0 -1,0l0 1 -1 1 0 0 -1 1 0 0c0,1 0,1 -1,1l0 0c0,1 1,1 0,1l-1 0 0 1 0 0c0,1 0,1 0,1l-1 1 0 0 -1 1c0,1 0,1 0,0l-1 1 0 0 0 1c0,1 0,0 -1,0l0 1 -1 1 0 1c0,0 0,0 0,0l-1 1 0 0 0 1c0,0 0,0 -1,0l0 1 -1 0 0 1c0,1 0,1 -1,1l0 0 0 1c0,0 0,0 -1,0l0 1 0 1 -1 0 0 1 -1 0c0,1 0,1 0,1l0 0c0,1 0,1 -1,1l0 0 -1 1 0 1 0 1 -1 0c0,1 0,1 0,1l0 0c0,1 0,1 -1,0l0 1 0 0 -1 1c0,1 0,0 0,0l-1 1 0 1 -1 1c1,0 1,0 0,0l0 1 -1 0 0 1c0,0 0,0 0,0l-1 1 0 0 -1 1c0,1 1,1 0,1l-1 0 0 1 0 0c0,1 0,1 -1,1l0 1 -1 0 0 1c0,1 0,1 0,1l-1 0 0 0c0,1 0,1 0,1l-1 0 0 1 -1 1 0 1 -1 0c0,1 1,1 0,1l0 0c0,1 0,1 0,1l-1 0 0 1 -1 0 0 1 -1 1 0 1c0,0 0,0 -1,0l0 1 0 0 -1 1c0,0 1,0 0,0l0 1 -1 0 0 1c0,1 0,1 -1,1l0 0 0 1 -1 0c0,1 0,1 0,1l-1 1 0 0 0 1c0,1 0,1 -1,1l0 0 0 0 -1 1c0,1 0,0 0,0l-1 1 0 1 -1 1 0 0c0,1 0,1 -1,1l0 0c0,1 1,1 0,1l-1 0 0 1 0 0 -1 1 0 1c0,1 0,0 -1,0l0 1c0,0 0,0 0,0l-1 1 0 0 0 1c0,0 0,0 -1,0l0 1 -1 0 0 1c0,1 0,1 0,1l-1 0 0 1 0 0c0,1 0,1 -1,1l0 1 -1 0 0 1c0,1 0,1 -1,1l0 0 0 0 -1 1c1,1 1,1 0,1l0 0 -1 1 0 1c0,1 0,0 -1,0l0 1 0 0c0,1 0,1 -1,1l0 0 -1 1 0 0 -1 1 0 1c0,1 0,0 0,0l0 1c0,0 0,0 -1,0l0 1 0 0c0,1 -1,0 0,1 1,0 1,0 1,1l0 0 1 1c1,-1 0,-1 0,0l1 0c1,0 0,0 0,0l1 1 0 0 1 0c0,0 0,0 0,1l1 0 0 1 1 0c1,0 1,0 1,1l0 0 1 0 0 1c1,0 1,-1 1,0l1 1 0 0 1 1 0 0c1,0 1,0 1,0l0 0c1,0 1,0 1,1l0 0 1 1 1 0 0 1 1 0c1,0 0,0 0,1l1 0c0,0 0,0 0,0l1 1 1 0 0 1 1 0c1,1 0,1 1,0l1 -1 0 0 1 -1c0,-1 -1,-1 0,-1l1 0 0 -1 0 0c0,-1 0,-1 1,-1l0 -1 0 0 1 -1 0 0c0,-1 0,-1 1,-1l0 0c0,-1 0,-1 0,-1l1 0 0 -1 1 -1 0 0 1 -1c-1,-1 -1,-1 0,-1l0 0c0,-1 0,0 0,0l1 -1 0 -1 1 0 0 -1 1 -1c0,0 -1,0 0,0l0 -1c0,0 0,0 1,0l0 -1 0 0 1 -1c-1,0 -1,0 0,0l0 -1 1 0 0 -1c0,-1 0,-1 1,-1l0 0 0 -1 1 0c0,-1 -1,-1 0,-1l1 -1 0 0 0 -1c0,-1 0,-1 1,-1l0 0 0 0 1 -1c0,0 0,0 0,0l1 -1 0 -1 1 -1 0 0c0,-1 0,-1 1,-1l0 0c0,-1 -1,-1 0,0l1 -1 0 -1 0 0 1 -1 0 -1c0,0 0,0 1,0l0 -1c0,0 0,0 0,0l1 -1 0 -1 1 0 0 -1 1 0c-1,-1 -1,-1 0,-1l0 0c0,-1 0,-1 0,-1l1 0 0 -1 0 0c0,-1 0,-1 1,-1l0 -1 1 0 0 -1c0,-1 0,-1 1,-1l0 0 0 0 0 -1c0,-1 0,0 1,0l0 -1 1 -1 0 -1c0,0 0,0 1,0l0 -1 0 0c0,-1 0,-1 1,0l0 -1 1 -1 0 0 1 -1 0 -1c0,0 0,0 0,0l0 -1c0,0 0,0 1,0l0 -1 1 -1 0 0 1 -1 0 0c0,-1 0,-1 1,-1l0 0c0,-1 -1,-1 0,-1l1 0 0 -1 0 0c0,-1 0,-1 0,-1l1 -1 0 0c0,-1 0,-1 1,-1l0 0c0,-1 -1,-1 0,-1l1 0 0 0 0 -1c0,-1 0,0 1,0l0 -1 1 -1 0 -1c0,0 0,0 0,0l1 -1 0 0 0 0c0,-1 0,-1 1,-1l0 -1 1 0 0 -1 1 -1c0,-1 -1,0 0,0l0 -1c0,0 0,0 1,0l0 -1 0 -1 1 0 0 -1 1 0c0,-1 0,-1 0,-1l0 0c0,-1 0,-1 1,-1l0 0 1 -1 0 -1 0 -1 1 0c0,-1 0,-1 0,-1l0 0c0,-1 0,-1 1,-1l0 0 0 0 1 -1c0,-1 0,0 0,0l1 -1 0 -1 0 -1c0,-1 0,0 1,0l0 -1 1 0 0 -1c0,0 0,0 0,0l1 -1 0 0 1 -1c0,-1 -1,-1 0,-1l1 0 0 -1c0,0 -1,0 0,0l1 -1 0 -1 1 0 0 -1 0 -1c0,0 0,0 1,0l0 0c0,-1 0,-1 0,-1l1 0 0 -1 1 -1 0 -1 1 0c0,-1 -1,-1 0,-1l0 0c0,-1 0,-1 0,-1l1 0 0 -1 1 -1 0 0 1 -1c0,-1 0,0 0,0l0 -1c0,-1 0,0 1,0l0 -1 0 0 1 -1c-1,0 -1,0 0,0l0 -1 1 0 0 -1c0,-1 0,-1 1,-1l0 0 0 -1 1 0c0,-1 -1,-1 0,-1l1 -1 0 0 1 -1 0 -1c0,0 0,0 0,0l0 0c0,-1 0,-1 1,-1l0 0 1 -1 0 -1 1 -1 0 0c0,-1 0,-1 1,-1l0 0c0,-1 -1,-1 0,-1l1 0 0 -1 0 -1 1 0 0 -1c0,-1 0,0 1,0l0 -1c0,-1 0,0 0,0l1 -1 0 0 0 -1c0,0 0,0 1,0l0 -1 1 -1 0 0c0,-1 0,-1 0,-1l1 0 0 -1 0 0c0,-1 0,-1 1,-1l0 -1 1 0 0 -1c0,-1 0,-1 1,-1l0 0 0 0c0,-1 0,-1 1,-1l0 0 0 -1 1 -1 0 -1 1 0c0,-1 0,-1 0,-1l0 0c0,-1 0,-1 1,-1l0 0 1 -1 0 -1 1 0 0 -1c0,-1 0,0 0,0l0 -1c0,0 0,0 1,0l0 -1 1 -1 0 0 1 -1 0 -1c0,0 0,0 1,0l0 0c0,-1 -1,-1 0,-1l1 0 0 -1 0 0c0,-1 0,-1 0,-1l1 -1 0 0 1 -1c0,-1 0,-1 0,-1l1 0 0 0 0 -1c0,-1 0,-1 1,-1l0 0 1 -1 0 -1c0,-1 0,0 0,0l0 -1 1 0c-1,0 -1,0 -1,-1l-1 0 0 0 0 -1c-1,0 -1,1 -1,0l-1 -1 0 0 -1 0c-1,0 -1,0 -1,-1l0 0 0 0 -1 -1c-1,0 0,0 0,0l-1 -1 -1 0 -1 -1c0,0 0,1 0,0l-1 -1 0 0 -1 0c0,0 0,0 0,-1l-1 0 0 -1 -1 0c-1,0 -1,0 -1,0l0 -1 -1 0c0,0 0,0 0,0l0 -1 -1 0 0 0c-1,0 -1,0 -1,-1l-1 0 0 -1 -1 0c-1,0 -1,0 -1,-1l0 0 0 0 -1 -1c-1,0 0,1 0,0l-1 1z"/>
  </g>
  <path class="fil2 str1" d="M545 70c26,0 46,5 60,14 15,10 22,25 22,45 0,11 -2,20 -6,28 -4,7 -9,14 -16,18 -8,5 -16,9 -27,11 -10,2 -22,3 -35,3l-16 0 0 64 -33 0 0 -178c7,-2 16,-3 25,-4 10,-1 18,-1 26,-1zm2 29c-8,0 -15,0 -20,0l0 62 16 0c15,0 28,-2 36,-7 9,-4 13,-12 13,-25 0,-6 -1,-11 -3,-15 -3,-4 -6,-7 -10,-9 -4,-2 -9,-4 -14,-5 -6,-1 -11,-1 -18,-1zm227 86c0,10 -2,20 -5,29 -3,9 -7,17 -13,23 -6,6 -13,11 -21,15 -8,3 -17,5 -27,5 -9,0 -18,-2 -26,-5 -8,-4 -15,-9 -21,-15 -6,-6 -10,-14 -13,-23 -4,-9 -5,-19 -5,-29 0,-11 1,-21 5,-30 3,-9 7,-16 13,-22 6,-7 13,-12 21,-15 8,-3 17,-5 26,-5 10,0 19,2 27,5 8,3 15,8 21,15 5,6 10,13 13,22 3,9 5,19 5,30zm-32 0c0,-14 -3,-25 -9,-33 -6,-8 -14,-12 -25,-12 -10,0 -18,4 -24,12 -6,8 -9,19 -9,33 0,13 3,24 9,32 6,8 14,12 24,12 11,0 19,-4 25,-12 6,-8 9,-19 9,-32zm144 -18c-4,15 -9,30 -13,45 -5,15 -10,28 -14,41l-26 0c-4,-8 -7,-17 -11,-27 -4,-11 -8,-22 -12,-33 -3,-12 -7,-24 -11,-37 -4,-13 -8,-26 -11,-40l33 0c2,8 4,16 6,24 2,8 4,17 6,26 2,9 5,17 7,26 3,8 5,16 8,23 2,-8 5,-17 7,-25 3,-9 5,-17 8,-26 2,-8 4,-17 6,-25 2,-8 4,-15 5,-23l25 0c1,8 3,15 5,23 2,8 4,17 6,25 2,9 5,17 7,26 3,8 5,17 8,25 2,-7 4,-15 7,-23 2,-9 5,-17 7,-26 2,-9 5,-18 7,-26 2,-8 4,-16 5,-24l33 0c-4,14 -7,27 -11,40 -4,13 -8,25 -12,37 -4,11 -7,22 -11,33 -4,10 -8,19 -12,27l-25 0c-5,-13 -9,-26 -14,-41 -5,-15 -9,-30 -13,-45zm114 18c0,-12 2,-22 6,-31 3,-9 8,-17 14,-23 6,-6 13,-10 20,-13 8,-4 16,-5 24,-5 19,0 33,6 44,17 10,12 16,30 16,53 0,2 0,4 0,6 -1,2 -1,4 -1,6l-90 0c1,11 5,19 12,25 6,6 16,9 30,9 7,0 14,-1 21,-2 6,-1 11,-3 15,-4l4 25c-2,1 -4,2 -7,3 -3,1 -7,2 -11,3 -4,1 -8,1 -13,2 -4,0 -9,1 -13,1 -12,0 -23,-2 -32,-6 -9,-3 -16,-8 -22,-15 -6,-6 -10,-14 -13,-22 -2,-9 -4,-18 -4,-29zm92 -14c0,-4 -1,-8 -2,-12 -1,-4 -3,-7 -5,-10 -3,-3 -5,-5 -9,-7 -3,-2 -7,-3 -12,-3 -5,0 -9,1 -13,3 -3,2 -7,4 -9,7 -3,3 -5,7 -6,11 -1,3 -2,7 -3,11l59 0zm143 -26c-3,-1 -6,-2 -11,-3 -4,-1 -10,-1 -16,-1 -3,0 -7,0 -11,1 -4,0 -7,1 -8,2l0 109 -32 0 0 -130c6,-2 14,-4 23,-6 9,-3 19,-4 31,-4 2,0 4,1 7,1 3,0 5,0 8,1 3,0 6,1 8,2 3,0 5,1 7,1l-6 27zm20 40c0,-12 2,-22 5,-31 4,-9 9,-17 15,-23 6,-6 12,-10 20,-13 8,-4 15,-5 24,-5 18,0 33,6 44,17 10,12 15,30 15,53 0,2 0,4 0,6 0,2 0,4 0,6l-90 0c1,11 4,19 11,25 7,6 17,9 30,9 8,0 15,-1 21,-2 7,-1 12,-3 15,-4l5 25c-2,1 -5,2 -8,3 -3,1 -6,2 -10,3 -4,1 -8,1 -13,2 -4,0 -9,1 -14,1 -12,0 -22,-2 -31,-6 -9,-3 -16,-8 -22,-15 -6,-6 -10,-14 -13,-22 -3,-9 -4,-18 -4,-29zm92 -14c0,-4 -1,-8 -2,-12 -1,-4 -3,-7 -5,-10 -3,-3 -6,-5 -9,-7 -3,-2 -8,-3 -12,-3 -5,0 -9,1 -13,3 -4,2 -7,4 -9,7 -3,3 -5,7 -6,11 -2,3 -3,7 -3,11l59 0zm90 13c0,14 3,25 10,33 6,8 15,12 27,12 5,0 9,0 13,-1 4,0 7,0 9,-1l0 -78c-3,-2 -7,-4 -11,-6 -5,-1 -10,-2 -15,-2 -12,0 -20,4 -25,11 -6,8 -8,19 -8,32zm90 65c-6,2 -14,4 -23,5 -10,2 -20,3 -30,3 -11,0 -21,-2 -29,-5 -9,-4 -16,-8 -22,-15 -6,-6 -11,-13 -14,-22 -3,-9 -5,-19 -5,-30 0,-11 2,-20 4,-29 3,-9 7,-17 12,-23 5,-6 12,-11 19,-14 8,-4 16,-6 26,-6 7,0 13,1 18,3 5,1 9,3 13,5l0 -66 31 -5 0 199z"/>
 </g>
</svg>
