<svg data-name="Layer 1" xmlns="http://www.w3.org/2000/svg" viewBox="0 0 999.98883392 965.77392148">
  <path d="M94.02571623 0H906.4328295c51.63496446 0 93.55600441 41.92103995 93.55600441 93.55600441v492.87820263H.46971182V93.55600441C.46971181 41.92103995 42.39075175 0 94.02571621 0Z" fill="#67ea94"/>
  <path d="M0 586.43420704h999.98883392v285.72276127c0 51.668603-41.94835017 93.61695317-93.61695317 93.61695317H93.61695317C41.94835017 965.77392148 0 923.82557131 0 872.15696831V586.43420704ZM612.62755713 191.7422323c-7.47519669 10.63141124-14.37213864 20.39566228-21.22348673 30.19166518-62.6856144 89.62731187-125.36335514 179.2601826-188.0448496 268.89037685-.5725784.81873174-1.1363676 1.64597335-1.7520679 2.43185517-3.82484925 4.88178237-4.32372671 5.02750244-9.70059848 1.46763212-12.7034764-8.41072436-25.36593663-16.88376292-38.01347357-25.37853367-7.79142402-5.2331576-7.90586646-5.83520795-2.57486321-13.44742294 31.9441793-45.61376662 63.9012677-91.2186116 95.86540576-136.818401 43.14433988-61.54963994 86.2792497-123.1060283 129.48346587-184.61366792 3.86000598-5.49531647 7.38144545-11.22594683 12.24112897-16.03868947 13.2567369-13.12876038 37.28378861-12.53571173 48.96103682 3.28860682 10.08430107 13.66569422 19.83342315 27.56114347 29.65121069 41.40786685 68.8963595 97.16911456 137.69860156 194.40500413 206.52803514 291.62151774 7.83225708 11.06260082 7.13772884 9.79202249-3.1567801 16.92859986-11.69922116 8.11049984-23.55600665 15.9940241-35.34989459 23.96800002-7.23495912 4.8915733-7.32898503 4.9470247-12.23224823-2.06030331-17.75313436-25.3709846-35.44804041-50.78268845-53.15219341-76.18789552-50.82690627-72.93611905-101.64621355-145.8775682-152.47815528-218.8102101-1.42256523-2.04108748-2.9539881-4.00640968-5.05167215-6.84099669Zm-246.8792472-90.16255289c7.8711675 5.45210373 15.4218962 10.68623356 22.97692793 15.91418689 7.19046391 4.97563113 14.41223927 9.90645963 21.56910288 14.92977577 5.07044071 3.55890953 5.07218024 3.68873078 1.57060797 8.70378868-17.01859704 24.37443777-34.04497617 48.74345392-51.0864617 73.10192424-41.67233552 59.56523917-83.36050988 119.11952074-125.03041922 178.68658999-23.19793916 33.16163231-46.37161652 66.34023861-69.55733323 99.51042655-.42938801.61431188-.85552586 1.23205516-1.31201384 1.82605316-3.28417742 4.2733725-3.36080808 4.38148444-7.68128462 1.46950795-13.24726107-8.9286368-26.47836287-17.88298623-39.62010802-26.96553271-5.65972769-3.91147431-5.6700275-4.55451844-1.435337-10.61153201 37.3595495-53.436578 74.73933242-106.85906437 112.11650606-160.2833122 41.67293062-59.56420975 83.3465479-119.1278476 125.02858813-178.68567495 3.99706223-5.71127727 8.05619804-11.37929604 12.46122466-17.59620136Z" fill="#2c2d3c"/>
  <path d="M164.27447803 662.08526373c28.94261912 0 51.16252343 5.24207473 66.66411164 15.72030541 15.49767824 10.483163 23.24871672 27.64568017 23.24871672 51.48656504 0 24.04015078-7.84292291 41.39206922-23.52876874 52.06364703-15.68535708 10.67256427-38.09391772 16.00835318-67.2242157 16.00835318h-11.95562924c-.97719257 0-1.76936366.7921711-1.76936366 1.76936366v63.38009536c0 .97719256-.7921711 1.76936366-1.76936367 1.76936366h-40.15720837c-.97719257 0-1.76936367-.7921711-1.76936367-1.76936366l-6.1e-7-193.77466142c0-.84808024.59575008-1.58188972 1.42822527-1.7438315 9.10204498-1.77062496 18.70935606-3.0236436 28.82277016-3.75567277 10.6439319-.76648327 19.97899937-1.154164 28.01008987-1.154164Zm2.80100899 38.36362183c-3.17734417 0-6.30239241.0986465-9.38345342.28804776-2.368063.14860407-4.4878307.29779086-6.3594978.44487279-.92089897.07236735-1.62322276.83552177-1.62322132 1.75925979.00001287 8.2826054.00001437 45.7042024.00001454 54.29764327 2e-8 .97719257.79217112 1.76278985 1.76936369 1.76278985h11.95562925c15.12525303 0 26.5135466-2.11300792 34.1722119-6.34494255 7.65475532-4.22798876 11.48457671-12.11477603 11.48457671-23.65247006 0-5.57549988-.98042646-10.19018291-2.94127937-13.84503554-1.96085292-3.65090678-4.7618619-6.58465353-8.40302696-8.79729441-3.64116506-2.20869502-8.07947646-3.75053973-13.3046705-4.6156695-5.23008152-.86512975-11.02026709-1.2972014-17.36664672-1.2972014Zm247.59974972-15.97488552c.79019089-3.6e-7 1.47638773.51464852 1.69324684 1.27449966 2.16265522 7.57771258 4.5356748 16.05837674 7.12239867 25.4436226 2.73271845 9.919888 5.6511077 20.17366585 8.75961198 30.76232143 3.10406004 10.5916191 6.26145105 21.18422603 9.46279072 31.77189377 3.20232901 10.59261264 6.3093535 20.4137215 9.32551445 29.4623348 2.46309803-9.82012195 4.9755799-20.50756375 7.53546708-32.0613415 2.55593617-11.55377513 4.97360686-23.49083213 7.2470864-35.81709804 2.27347954-12.32033887 4.501529-24.59622495 6.68217315-36.8266704 2.0849294-11.70043627 4.04142648-23.00372554 5.86947109-33.91413485.14278154-.85217017.87680312-1.46931994 1.74085206-1.46931813 6.73464008.00001412 34.26963245.00001594 42.2106509.00001617 1.11717085 3e-8 1.95093281 1.0198326 1.73253988 2.11544897-6.54222416 32.82051271-14.04403285 66.10386833-22.49801084 99.84543163-8.5221075 34.0183565-17.73863976 66.34450147-27.64200431 96.98317978-.2364853.7316298-.91778815 1.22390955-1.6866883 1.22390956l-37.83988758 2e-7c-.74981342 1e-8-1.41810066-.46783966-1.66924698-1.1743421-6.44592967-18.1331147-12.70923846-37.13909679-18.79039006-57.02720834-6.21750335-20.3139423-12.33723322-40.67727661-18.35968108-61.09098907-6.0451626 20.41371472-12.08983373 40.7770479-18.13450487 61.09098907-5.91686994 19.88831567-12.10485214 38.89448377-18.56394738 57.02776669-.2515263.70613567-.91997995 1.17378375-1.66957522 1.17378375l-37.80840252-2.1e-7c-.76905755 0-1.45047897-.492482-1.68684828-1.22431468-9.89572509-30.63855816-19.09418962-62.9645681-27.59871642-96.98277465-8.4414472-33.74171528-15.92503751-67.02521874-22.4591077-99.8458751-.21809415-1.0954876.62274355-2.11500563 1.73972973-2.1150058l44.17100409-.00000677c.8638485-1.4e-7 1.59903669.61681833 1.74172654 1.46880063 1.82730472 10.91059503 3.83221259 22.21403997 6.01168485 33.91464325 2.27298574 12.23044545 4.64325112 24.50633153 7.11030233 36.8266704 2.46310078 12.3262659 4.97459447 24.26332291 7.53497488 35.81709804 2.56038343 11.55378874 5.1691599 22.24123986 7.82238111 32.06132914 3.40034057-9.4329082 6.7078438-19.4476161 9.92251189-30.03922092 3.21072197-10.58865558 6.332559-21.18027468 9.35711638-31.77288161 3.02455739-10.58865558 5.81011301-20.79699281 8.36160493-30.6180968 2.4088973-9.27130167 4.6087218-17.59781516 6.59613963-24.98282383.20791191-.77257599.90026415-1.30163264 1.70032728-1.30163165 5.86792097.00000728 29.12858421-.00000249 34.95570468-.0000051Zm192.85336232-22.81344239c28.87398402 0 50.9899385 5.35919463 66.35561457 16.07659327 15.3608316 10.71640803 23.0431852 27.37151695 23.0431852 49.96433614 0 14.09834711-3.1014269 25.53988093-9.30040512 34.32460143-5.83667123 8.26855562-14.08407166 14.86675558-24.75027984 19.79869017-1.03541393.47876374-1.37351505 1.77433311-.68502107 2.68387848 3.4740729 4.58947647 7.09204671 9.7424787 10.85927274 15.46171803 4.2553786 6.47164852 8.46812591 13.22859243 12.63242856 20.27578477 4.16430266 7.05115477 8.1900536 14.38760494 12.0772528 22.01331293 3.4458973 6.76437527 6.6732758 13.41120388 9.68213322 19.94393507.5397315 1.1718471-.32558885 2.50425637-1.61575772 2.5042569l-44.5981094.0000182c-.65123315 2.8e-7-1.24782233-.35378787-1.55638565-.92728006-3.36963756-6.26276913-6.78220582-12.6155899-10.23348727-19.05926678-3.6226914-6.7569439-7.33645875-13.32369089-11.14517762-19.6962785-3.80871888-6.37159702-7.57383756-12.40539636-11.2876049-18.10337926-3.54038193-5.4215804-7.08076385-10.36701164-10.61779854-14.82944712-.33661795-.4246879-.84749572-.6666501-1.38941034-.66665007l-18.75013857 7.2e-7c-.97719258 4e-8-1.76936366.79217115-1.76936366 1.76936373v69.74355378c0 .97719257-.7921711 1.76936367-1.76936367 1.76936367h-39.77273315c-.97719257 0-1.76936366-.7921711-1.76936367-1.76936367l-4.7e-7-194.60674013c0-.84607218.59562024-1.57891678 1.4256572-1.74285817 8.99615154-1.77683855 18.28197896-3.03434634 27.86495134-3.76913101 10.08617744-.76970319 19.10947911-1.15901252 27.06990503-1.15901252Zm2.49877537 38.52478355c-3.14987155 0-5.96935055.0990609-8.46812592.28925782-1.90062311.14768185-3.72108774.29593681-5.460952.44214881-.91599437.0769769-1.61876168.8437779-1.61876148 1.763001l.00001104 51.05975947c2e-7 .97719263.79217141 1.76936366 1.76936404 1.76936366h10.44644086c16.28515565 0 27.9457844-2.12287506 34.98285518-6.37258762 7.0312574-4.24575012 10.55027724-11.48710183 10.55027724-21.7240551 0-9.84863457-3.5664956-16.84530585-10.68979785-20.99991994-7.12717783-4.14966106-17.6299793-6.2269681-31.51131111-6.2269681Zm294.65879521 62.71199685c0 17.22991152-2.61425781 32.26090765-7.83496094 45.08414949-5.22460937 12.82815232-12.640625 23.45346085-22.24707031 31.87494349-9.61035156 8.42737522-21.31542969 14.74422377-35.11914063 18.95349194-13.80761718 4.20828607-29.29101562 6.31783065-46.45214843 6.31783065-7.8359375 0-16.97851563-.33685931-27.42382813-1.00566744-9.95945743-.64114501-19.74417628-1.926332-29.36176404-3.87171594-.826726-.16722483-1.42046276-.89954612-1.42046276-1.74301515l-6.2e-7-190.90715158c0-.85557874.60783961-1.5938026 1.44942748-1.74789618 9.63030813-1.76329615 19.64126275-2.9656352 30.0320187-3.60617272 10.9140625-.66880812 20.28808593-1.00566743 28.12304687-1.00566743 16.60253906 0 31.66503906 1.91607145 45.19335937 5.74330385 13.52441406 3.83214288 25.13769531 9.86320117 34.83984375 18.09219278 9.69824219 8.23292 17.16210938 18.7639472 22.38671875 31.58718904 5.22070313 12.82815233 7.83496094 28.24118422 7.83496094 46.2341852Zm-126.20509599 61.54774277c-1.3e-7.9273746.70839244 1.6958465 1.63311853 1.7658845 1.65237157.1251493 3.48672748.22263731 5.50264152.29287353 2.70214844.09820971 5.91992188.14338618 9.65429688.14338618 21.82714843 0 38.00976562-5.64411204 48.5517578-16.94215708 10.53710938-11.29411666 15.81054688-26.8947291 15.81054688-46.8077299 0-20.8646529-5.03710937-36.65873847-15.11132812-47.38225671-10.07421875-10.71958985-26.02441406-16.08085792-47.8515625-16.08085792-2.98632813 0-6.06445313.04910485-9.234375.14338617-2.59596381.0803038-5.0633014.2538484-7.40628311.52331888-.88674998.1019867-1.54879554.8645799-1.54879567 1.75717544l-.0000172 122.5869769Z" fill="#fff"/>
</svg>
