<?xml version="1.0" encoding="utf-8"?>
<!-- Generator: Fusion 360, Shaper Origin Export Add-In, Version 1.6.3  -->
<svg xmlns="http://www.w3.org/2000/svg" xmlns:xlink="http://www.w3.org/1999/xlink" xmlns:shaper="http://www.shapertools.com/namespaces/shaper" shaper:fusionaddin="version:1.6.3" width="2.4889103cm" height="2.4063027cm" version="1.1" x="0cm" y="0cm" viewBox="0 0 2.4889103 2.4063027" enable-background="new 0 0 2.4889103 2.4063027" xml:space="preserve"><path d="M2.0889103,0 L0,0 0,-0.5989692 A0.15,0.15 180 0,1 0.15,-0.7489692 L1.9389103,-0.7489692 A0.15,0.15 270 0,1 2.0889103,-0.5989692 L2.0889103,0z" transform="matrix(1,0,0,-1,0.2,1.4573335)" fill="rgb(0,0,0)" shaper:cutDepth="0" stroke-linecap="round" stroke-linejoin="round" /><path d="M0.3512734,-0.2318182 L0.3512734,-0.2318182 0.3427886,-0.2277611 0.3340987,-0.2243003 0.3158838,-0.2198052 0.3158838,-0.2198052 0.2940465,-0.2170731 0.2720526,-0.2162338 0.2720526,-0.2162338 0.2463792,-0.2166132 0.2207539,-0.2181818 0.2207539,-0.3714286 0.2603643,-0.3714286 0.2603643,-0.3714286 0.2837828,-0.3707883 0.2953836,-0.3699193 0.3068543,-0.3683917 0.3181535,-0.3659958 0.3292869,-0.36276 0.3512734,-0.3548702 0.3512734,-0.3548702 0.3657201,-0.3426939 0.3717675,-0.3359737 0.3764082,-0.3284975 0.3794871,-0.3201818 0.3813591,-0.3112175 0.3830916,-0.2922078 0.3830916,-0.2922078 0.3826002,-0.2825707 0.3812648,-0.2731337 0.3784386,-0.2640502 0.37465,-0.2551948 0.37465,-0.2551948 0.3699219,-0.2482346 0.3645851,-0.2418832 0.3582336,-0.2365463 0.3512734,-0.2318182z" transform="matrix(1,0,0,-1,0.2,1.4573335)" fill="rgb(0,0,0)" shaper:cutDepth="0" stroke-linecap="round" stroke-linejoin="round" /><path d="M1.7019225,-0.2162338 L1.7019225,-0.2162338 1.6759187,-0.2165108 1.6499747,-0.2181818 1.6499747,-0.5324675 1.6499747,-0.5324675 1.6688057,-0.5334416 1.6688057,-0.5334416 1.7006238,-0.5337662 1.7006238,-0.5337662 1.7344465,-0.5317298 1.7508689,-0.5293639 1.7667047,-0.5253809 1.7817751,-0.5192877 1.7961376,-0.5112432 1.8100254,-0.5018903 1.823676,-0.4918831 1.823676,-0.4918831 1.8331218,-0.4788161 1.84198,-0.4655362 1.8496629,-0.4518306 1.855587,-0.4374879 1.8595393,-0.422431 1.8619625,-0.4068201 1.8642603,-0.3746753 1.8642603,-0.3746753 1.8621556,-0.3425216 1.8598461,-0.3268913 1.8560281,-0.3117971 1.850254,-0.2973979 1.8427075,-0.2836285 1.8339752,-0.2702803 1.8246499,-0.2571429 1.8246499,-0.2571429 1.8110067,-0.2472805 1.7971292,-0.2380738 1.7827828,-0.2301782 1.7677385,-0.2242349 1.7519488,-0.2203765 1.7355897,-0.2181108 1.7019225,-0.2162338z" transform="matrix(1,0,0,-1,0.2,1.4573335)" fill="rgb(0,0,0)" shaper:cutDepth="0" stroke-linecap="round" stroke-linejoin="round" /><path d="M1.3613382,-0.2318182 L1.3613382,-0.2318182 1.3530231,-0.2277597 1.3444987,-0.2242984 1.326598,-0.2198052 1.326598,-0.2198052 1.3046,-0.2170535 1.2824422,-0.2162338 1.2824422,-0.2162338 1.2583944,-0.2166818 1.2343901,-0.2181818 1.2343901,-0.3636364 1.2701045,-0.3636364 1.2701045,-0.3636364 1.2964621,-0.3629334 1.3227018,-0.3603896 1.3227018,-0.3603896 1.3325625,-0.3586244 1.342234,-0.3562577 1.3515702,-0.3528252 1.3606888,-0.3487013 1.3606888,-0.3487013 1.3675843,-0.3441621 1.3738701,-0.3390077 1.3791217,-0.3328099 1.3837408,-0.325974 1.3837408,-0.325974 1.3872829,-0.3172413 1.3899013,-0.308301 1.3911117,-0.2990444 1.391533,-0.2896104 1.391533,-0.2896104 1.3910742,-0.2805007 1.3898379,-0.2715702 1.3872307,-0.2629561 1.3837408,-0.2545455 1.3837408,-0.2545455 1.3792411,-0.2477813 1.3741367,-0.2416117 1.3680341,-0.2364234 1.3613382,-0.2318182z" transform="matrix(1,0,0,-1,0.2,1.4573335)" fill="rgb(0,0,0)" shaper:cutDepth="0" stroke-linecap="round" stroke-linejoin="round" /><path d="M0.1,1.4573335 A0.3,0.3 90 0,1 -0.2,1.1573335 L-0.2,-0.6489692 A0.3,0.3 180 0,1 0.1,-0.9489692 L1.9889103,-0.9489692 A0.3,0.3 270 0,1 2.2889103,-0.6489692 L2.2889103,1.1573335 A0.3,0.3 0 0,1 1.9889103,1.4573335 L0.1,1.4573335z" transform="matrix(1,0,0,-1,0.2,1.4573335)" fill="rgb(0,0,0)" shaper:cutDepth="0" stroke-linecap="round" stroke-linejoin="round" /><path d="M2.0889103,0.1 L2.0889103,1.1073335 A0.15,0.15 0 0,1 1.9389103,1.2573335 L0.15,1.2573335 A0.15,0.15 90 0,1 -0,1.1073335 L0,0.1 2.0889103,0.1z" transform="matrix(1,0,0,-1,0.2,1.4573335)" fill="rgb(0,0,0)" shaper:cutDepth="0" stroke-linecap="round" stroke-linejoin="round" /><path d="M0.1389357,-0.1564935 L0.1389357,-0.1564935 0.1704169,-0.1508646 0.2022474,-0.1477273 0.2022474,-0.1477273 0.2342099,-0.1460719 0.2662084,-0.1454546 0.2662084,-0.1454546 0.3056824,-0.146981 0.3251203,-0.1489138 0.3441993,-0.1522501 0.3628069,-0.15743 0.3809668,-0.1643608 0.3988253,-0.1724702 0.4165331,-0.1811689 0.4165331,-0.1811689 0.4284945,-0.1924951 0.4397357,-0.2041709 0.4495365,-0.216546 0.4536718,-0.2231051 0.4571791,-0.2299689 0.4600456,-0.2371439 0.4623469,-0.2445933 0.4655766,-0.2601585 0.4675142,-0.276351 0.4688059,-0.2928572 0.4688059,-0.2928572 0.4679646,-0.3103854 0.4657364,-0.3276184 0.461071,-0.3443325 0.4548448,-0.3607143 0.4548448,-0.3607143 0.4468143,-0.3741003 0.437626,-0.3864684 0.4265168,-0.3971476 0.4142604,-0.4068182 0.4142604,-0.4068182 0.398897,-0.4155125 0.3830401,-0.4230047 0.3664054,-0.428603 0.3493253,-0.4331169 0.3493253,-0.4331169 0.3275737,-0.4368758 0.3057286,-0.4396954 0.2837374,-0.4410456 0.261663,-0.4415584 0.2207539,-0.4415584 0.2207539,-0.6 0.1389357,-0.6 0.1389357,-0.1564935z" transform="matrix(1,0,0,-1,0.2,1.4573335)" fill="rgb(255,255,255)" stroke="rgb(0,0,0)" stroke-width="0.0010cm" stroke-linecap="round" stroke-linejoin="round" shaper:cutDepth="0" /><path d="M1.8801692,-0.2003247 L1.8801692,-0.2003247 1.8960272,-0.2160387 1.9034464,-0.2242659 1.9102538,-0.2329371 1.9163275,-0.242141 1.9218106,-0.2517736 1.9317928,-0.2717533 1.9317928,-0.2717533 1.9399246,-0.2968272 1.9433493,-0.3094816 1.9460057,-0.3222766 1.9477904,-0.3352312 1.9488959,-0.3483102 1.9499746,-0.3746753 1.9499746,-0.3746753 1.9488647,-0.400716 1.9477467,-0.4136322 1.945953,-0.4264237 1.9432953,-0.4390555 1.9398816,-0.4515476 1.9317928,-0.4762987 1.9317928,-0.4762987 1.9217677,-0.4963892 1.9162695,-0.5060853 1.9101883,-0.5153623 1.9033845,-0.5241198 1.8959799,-0.5324454 1.8801692,-0.5483766 1.8801692,-0.5483766 1.861643,-0.5620827 1.8521009,-0.5684153 1.8422242,-0.5741235 1.8319504,-0.579091 1.8213597,-0.5834672 1.7996498,-0.5912338 1.7996498,-0.5912338 1.7739523,-0.5973385 1.748054,-0.6019756 1.7218345,-0.6042648 1.6954292,-0.6051948 1.6954292,-0.6051948 1.6645669,-0.6045611 1.6337408,-0.602922 1.6337408,-0.602922 1.6007599,-0.5995215 1.5681563,-0.5935065 1.5681563,-0.1564935 1.5681563,-0.1564935 1.6010788,-0.150542 1.6343902,-0.1474026 1.6343902,-0.1474026 1.6655461,-0.146002 1.6967278,-0.1454546 1.6967278,-0.1454546 1.7228606,-0.1463428 1.7488229,-0.1485266 1.7744907,-0.1529475 1.7999745,-0.1587663 1.7999745,-0.1587663 1.8215544,-0.166222 1.8320883,-0.1704405 1.842315,-0.1752476 1.8521569,-0.1807919 1.8616746,-0.1869576 1.8801692,-0.2003247z" transform="matrix(1,0,0,-1,0.2,1.4573335)" fill="rgb(255,255,255)" stroke="rgb(0,0,0)" stroke-width="0.0010cm" stroke-linecap="round" stroke-linejoin="round" shaper:cutDepth="0" /><path d="M1.2863382,-0.4298702 L1.2343901,-0.4298702 1.2343901,-0.6 1.152572,-0.6 1.152572,-0.1564935 1.152572,-0.1564935 1.1842282,-0.150943 1.2162083,-0.1477273 1.2162083,-0.1477273 1.2463847,-0.1460897 1.2765978,-0.1454546 1.2765978,-0.1454546 1.3157665,-0.1469739 1.3350488,-0.1489039 1.3539687,-0.1522382 1.3724124,-0.1574175 1.3904036,-0.1643506 1.40809,-0.1724645 1.425624,-0.1811689 1.425624,-0.1811689 1.4373434,-0.1922346 1.4483681,-0.2036395 1.4580032,-0.2157226 1.4620825,-0.2221245 1.4655553,-0.2288224 1.4684018,-0.2358261 1.4706944,-0.2431001 1.4739339,-0.2583049 1.4759072,-0.2741278 1.4772473,-0.2902598 1.4772473,-0.2902598 1.4740356,-0.3115696 1.4697824,-0.3321302 1.4669399,-0.3418955 1.4634466,-0.3511924 1.4591722,-0.3599275 1.4539868,-0.368007 1.4478204,-0.3753808 1.4407706,-0.382119 1.4329636,-0.3883125 1.4245256,-0.3940519 1.4062614,-0.404532 1.3869875,-0.4142857 1.3869875,-0.4142857 1.4012228,-0.4322565 1.4149097,-0.4506493 1.4149097,-0.4506493 1.4311246,-0.4736538 1.4467278,-0.4970779 1.4467278,-0.4970779 1.4626933,-0.5224957 1.4778965,-0.5483766 1.4778965,-0.5483766 1.4917505,-0.573909 1.50452,-0.6 1.4129616,-0.6 1.4129616,-0.6 1.3999841,-0.5762721 1.3863381,-0.5529221 1.3863381,-0.5529221 1.357442,-0.5068182 1.357442,-0.5068182 1.3432415,-0.4855447 1.3285459,-0.4646104 1.3285459,-0.4646104 1.3019226,-0.4292208 1.3019226,-0.4292208 1.2863382,-0.4298702z" transform="matrix(1,0,0,-1,0.2,1.4573335)" fill="rgb(255,255,255)" stroke="rgb(0,0,0)" stroke-width="0.0010cm" stroke-linecap="round" stroke-linejoin="round" shaper:cutDepth="0" /><path d="M0.740559,-0.2733766 L0.740559,-0.2733766 0.7616629,-0.2006494 0.8317927,-0.2006494 0.8317927,-0.2006494 0.8538707,-0.2737013 0.8538707,-0.2737013 0.8782213,-0.3496754 0.8782213,-0.3496754 0.903546,-0.4243506 0.903546,-0.4243506 0.9278966,-0.4935065 0.9278966,-0.4935065 0.9378243,-0.4554838 0.9467278,-0.4172078 0.9467278,-0.4172078 0.9649096,-0.3314935 0.9649096,-0.3314935 0.9827667,-0.2409091 0.9827667,-0.2409091 0.9993251,-0.15 1.0837408,-0.15 1.0837408,-0.15 1.0722758,-0.2089396 1.0601751,-0.2677419 1.0469975,-0.326312 1.0331624,-0.3847403 1.0331624,-0.3847403 1.019084,-0.4389846 1.0042067,-0.4929977 0.9879751,-0.5466186 0.9709161,-0.6 0.8921824,-0.6 0.8921824,-0.6 0.8660569,-0.529014 0.8409258,-0.4576892 0.81739,-0.3858205 0.7947798,-0.3136364 0.7947798,-0.3136364 0.7711203,-0.3885475 0.7460176,-0.462987 0.7460176,-0.462987 0.7216746,-0.5316243 0.6966061,-0.6 0.618542,-0.6 0.618542,-0.6 0.6012608,-0.5466656 0.5848923,-0.4930658 0.5700184,-0.4390313 0.5560268,-0.3847403 0.5560268,-0.3847403 0.5423404,-0.3262981 0.5292806,-0.2677218 0.5172469,-0.2089258 0.5058188,-0.15 0.5934812,-0.15 0.5934812,-0.15 0.6100396,-0.2402598 0.6100396,-0.2402598 0.6282214,-0.3308442 0.6282214,-0.3308442 0.6473772,-0.4168831 0.6473772,-0.4168831 0.6567296,-0.4552936 0.6668577,-0.4935065 0.6668577,-0.4935065 0.6918577,-0.4237013 0.6918577,-0.4237013 0.7168577,-0.349026 0.7168577,-0.349026 0.740559,-0.2733766z" transform="matrix(1,0,0,-1,0.2,1.4573335)" fill="rgb(255,255,255)" stroke="rgb(0,0,0)" stroke-width="0.0010cm" stroke-linecap="round" stroke-linejoin="round" shaper:cutDepth="0" /><path d="M0.15,1.3573335 L1.9389103,1.3573335 A0.25,0.25 90 0,0 2.1889103,1.1073335 L2.1889103,-0.5989692 A0.25,0.25 0 0,0 1.9389103,-0.8489692 L0.15,-0.8489692 A0.25,0.25 270 0,0 -0.1,-0.5989692 L-0.1,1.1073335 A0.25,0.25 180 0,0 0.15,1.3573335z" transform="matrix(1,0,0,-1,0.2,1.4573335)" fill="rgb(255,255,255)" stroke="rgb(0,0,0)" stroke-width="0.0010cm" stroke-linecap="round" stroke-linejoin="round" shaper:cutDepth="0" /><path d="M0.2898468,0.2390712 L0.1748035,0.3193667 0.7563476,1.1525732 0.8713909,1.0722777 0.2898468,0.2390712z" transform="matrix(1,0,0,-1,0.2,1.4573335)" fill="rgb(255,255,255)" stroke="rgb(0,0,0)" stroke-width="0.0010cm" stroke-linecap="round" stroke-linejoin="round" shaper:cutDepth="0" /><path d="M1.3962292,1.1033805 L1.942044,0.3200667 1.8189746,0.2343117 1.3225036,0.9468108 0.8275572,0.233144 0.7042987,0.3186269 1.2484324,1.1032173 A0.09,0.09 145.2576902 0,0 1.3962292,1.1033805z" transform="matrix(1,0,0,-1,0.2,1.4573335)" fill="rgb(255,255,255)" stroke="rgb(0,0,0)" stroke-width="0.0010cm" stroke-linecap="round" stroke-linejoin="round" shaper:cutDepth="0" /></svg>