<?xml version="1.0" encoding="UTF-8"?>
<svg id="Layer_1" data-name="Layer 1" xmlns="http://www.w3.org/2000/svg" viewBox="0 0 999.988833921388505 965.773921479686578">
  <defs>
    <style>
      .cls-1 {
        fill: #2c2d3c;
      }

      .cls-1, .cls-2, .cls-3 {
        stroke-width: 0px;
      }

      .cls-2 {
        fill: #67ea94;
      }

      .cls-3 {
        fill: #fff;
      }
    </style>
  </defs>
  <g>
    <path class="cls-2" d="M94.025716228034071,0h812.407113278915858c51.63496446795466,0,93.556004414436757,41.921039946482125,93.556004414436757,93.556004414436757v492.878202627135579H.469711813595495V93.556004414438576C.469711813595495,41.921039946482935,42.39075176007843,0,94.025716228034071,0Z"/>
    <path class="cls-1" d="M0,586.434207041572336h999.988833921388505v285.722761271097625c0,51.668603000227677-41.948350166788941,93.616953167016618-93.616953167016618,93.616953167016618H93.616953167015751c-51.668603000227151,0-93.616953167015751-41.9483501667886-93.616953167015751-93.616953167015708v-285.722761271098534h0Z"/>
    <g>
      <path class="cls-1" d="M612.62755713153274,191.742232293422603c-7.475196687213611,10.631411249400117-14.372138643429935,20.395662282181547-21.223486733902973,30.191665191416178-62.685614390860792,89.62731186691417-125.363355142257205,179.260182599808104-188.044849605490526,268.89037684167306-.572578386265377.818731742230739-1.136367593593604,1.645973353366571-1.752067889026875,2.431855171545976-3.824849255361187,4.88178237651482-4.323726714068471,5.027502443517733-9.700598483657814,1.46763212222686-12.703476400372892-8.410724357054278-25.365936632366356-16.883762915444095-38.013473570954375-25.378533665931172-7.79142402110574-5.233157608723559-7.905866455201249-5.835207957759849-2.574863213198114-13.447422949226166,31.944179298115159-45.61376661846225,63.901267702794939-91.218611600166696,95.865405761416696-136.818400987711357,43.144339884211149-61.549639942648355,86.279249711853481-123.106028302841878,129.483465877583512-184.61366792476656,3.860005971115243-5.495316473376079,7.381445445204008-11.225946835169452,12.241128966628821-16.038689468794473,13.25673690376243-13.128760385124224,37.283788611161071-12.535711738813006,48.961036816514024,3.28860681194692,10.084301076694828,13.665694223843275,19.833423152409523,27.561143470124989,29.651210688582069,41.40786685412877,68.896359512240451,97.169114555992564,137.698601566684374,194.405004131697751,206.528035143466695,291.621517742452852,7.832257081590797,11.062600816578197,7.137728837553368,9.792022486681162-3.156780102086486,16.928599859136739-11.699221152699465,8.11049984224519-23.556006648661423,15.994024095038185-35.349894582845081,23.968000018936436-7.234959129560593,4.891573300956225-7.328985033413119,4.947024704788419-12.232248233742212-2.060303314676275-17.75313436239594-25.370984588676947-35.448040414325078-50.782688442544895-53.15219341492957-76.187895514774937-50.82690626200565-72.936119049432818-101.646213546388026-145.877568204927229-152.478155275493918-218.81021010362565-1.422565232778652-2.041087481664363-2.953988108869453-4.006409678884665-5.051672148863872-6.840996683957201Z"/>
      <path class="cls-1" d="M365.748309927358605,101.579679411172947c7.871167509184488,5.452103725092456,15.421896202900825,10.686233563461428,22.976927932139915,15.914186884075207,7.190463911183542,4.975631132383569,14.412239272338411,9.906459635061765,21.569102884872336,14.929775772102403,5.070440708053866,3.558909529639095,5.072180233053587,3.68873078242359,1.570607965524687,8.703788686468215-17.018597043399495,24.374437763116475-34.044976172316638,48.743453916204999-51.086461702535416,73.101924237129424-41.672335519902845,59.565239168367953-83.360509872684815,119.119520736720915-125.030419212986089,178.686589984420607-23.197939160863825,33.161632315252064-46.371616525700119,66.340238616328861-69.557333234602993,99.510426552467834-.429388012725212.614311880577588-.855525860322814,1.23205515990594-1.312013841442422,1.826053159871663-3.284177419721345,4.273372501793347-3.360808073592125,4.381484438472398-7.681284622532985,1.469507953546781-13.247261070220702-8.928636808692318-26.478362868747354-17.882986232032636-39.620108014732068-26.965532712747518-5.659727689699139-3.911474313412327-5.670027508766907-4.554518439539606-1.43533700842363-10.611532012628231,37.3595495025329-53.43657798933782,74.739332427414411-106.859064367798965,112.116506064798159-160.283312197618216,41.672930620560692-59.564209748741632,83.346547895725962-119.127847597691471,125.028588134040547-178.685674944754282,3.997062230188021-5.711277272832376,8.056198036629212-11.379296045397496,12.46122465587996-17.596201362333886Z"/>
    </g>
  </g>
  <g>
    <path class="cls-3" d="M164.274478030059981,662.085263727679376c28.94261912454931,0,51.162523431675254,5.242074734207563,66.664111644267905,15.720305412933158,15.497678236690263,10.48316300346778,23.248716716480885,27.645680170526248,23.248716716480885,51.486565036226239,0,24.040150785214792-7.842922913499933,41.392069222309146-23.5287687404998,52.063647030863649-15.685357080012182,10.672564273501848-38.093917724434505,16.00835317777819-67.224215692305734,16.00835317777819h-11.955629247807337c-.977192568570899,0-1.769363664070625.792171095499725-1.769363664070625,1.769363664070625v63.380095356173115c0,.977192568570899-.792171095499725,1.769363664070625-1.769363664070625,1.769363664070625h-40.157208370653279c-.977192569474028,0-1.769363666570825-.792171094595687-1.769363669655831-1.769363664070625l-.00000061162882-193.774661418201504c-.000000002676643-.848080234489316.595750075995966-1.581889722359847,1.428225267588459-1.743831500521992,9.102044978379126-1.770624955062885,18.709356066507098-3.023643587730476,28.822770160561049-3.75567277004302,10.64393190067949-.766483264675117,19.978999367985125-1.154163989278459,28.010089871793753-1.154163989278459ZM167.075487017239539,700.448885559318114c-3.177344167797855,0-6.302392407900697.098646494810964-9.383453419099169.288047764846851-2.368062989260579.148604062223967-4.48783070708123.297790854696359-6.359497804256534.444872784206382-.920898959859187.072367354272501-1.623222751340109.835521770910418-1.623221315606315,1.759259790173019.000012873366359,8.282605406911898.00001437075116,45.704202399096175.000014544922124,54.297643269974287.000000019806066.977192567441307.792171119554951,1.762789850270565,1.769363686996257,1.762789850270565h11.955629247807337c15.125253031973443,0,26.513546595097978-2.113007918831499,34.172211894190696-6.344942546184029,7.654755323190329-4.227988767559509,11.484576719724828-12.114776027625339,11.484576719724828-23.652470060613268,0-5.575499886665057-.980426457561407-10.190182913880562-2.941279372682402-13.845035546593863-1.960852915122814-3.65090677292028-4.761861902301462-6.584653528572744-8.403026961538671-8.797294407162553-3.64116505923721-2.208695018798608-8.079476455603071-3.750539732680409-13.304670502355293-4.61566949216467-5.23008151662998-.865129759484262-11.020267081298698-1.29720140675272-17.366646718102857-1.29720140675272Z"/>
    <path class="cls-3" d="M414.675236739395586,684.474000037414044c.790190886738856-.000000353369614,1.476387725881978.514648521850177,1.693246840866777,1.274499666307747,2.162655219271073,7.577712578709907,4.535674800908964,16.058376732180477,7.122398664894718,25.443622602069809,2.73271845934778,9.91988798505372,5.651107706682524,20.173665846521544,8.759611989587029,30.762321424275797,3.10406003531989,10.591619097365765,6.261451041657892,21.184226034602034,9.46279071855588,31.771893772483963,3.202329010956419,10.592612638127321,6.309353498892051,20.413721506531147,9.325514445697081,29.462334799673044,2.46309803589611-9.820121955932336,4.975579896237832-20.507563748225948,7.535467085650453-32.061341500397248,2.555936166530955-11.553775131766088,4.973606852647208-23.49083213349877,7.247086394901999-35.817098044422892,2.27347954225479-12.320338871699278,4.501528998087451-24.596224949200405,6.682173146349669-36.826670392632877,2.084929397966334-11.700436276689288,4.041426483259784-23.003725542112079,5.869471093255925-33.914134852124334.142781544838726-.852170175490755.876803121844205-1.4693199415251,1.740852065790023-1.469318129957173,6.734640079852397.000014119870684,34.269632443581941.00001593572415,42.210650891058322.000016164553017,1.117170852177878.000000032192474,1.95093281847403,1.01983260081397,1.73253988866054,2.115448975810068-6.542224168873872,32.820512708261958-14.044032852101736,66.103868322305061-22.498010840095958,99.845431630674284-8.522107513555966,34.018356493123065-17.738639769166184,66.344501463847337-27.642004319000989,96.983179779201237-.236485286597599.731629799744042-.917788141452547,1.223909548281881-1.686688300542301,1.223909552554687l-37.839887572029511.000000210273356c-.749813418205122.000000004167305-1.418100664081976-.467839669854584-1.669246982354707-1.174342103635354-6.445929666516349-18.133114706526612-12.709238463564361-37.139096791450356-18.790390065616521-57.027208340730795-6.217503348788341-20.313942302540454-12.3372332199624-40.677276614169386-18.359681075787194-61.090989076110418-6.045162597862145,20.413714721828001-12.089833733539308,40.777047900770413-18.13450486921829,61.090989076110418-5.916869943894199,19.888315669542862-12.104852135208603,38.894483767284328-18.563947379634556,57.027766684801463-.251526299303805.706135669763171-.919979950926972,1.173783756470584-1.669575217288184,1.173783752303279l-37.80840252566486-.000000210160579c-.769057547278862-.000000004274625-1.450478963975002-.492482006231512-1.686848276519413-1.22431467775823-9.895725090827909-30.638558161181209-19.094189616123913-62.964568101828263-27.598716420528035-96.982774646849066-8.441447193608838-33.741715280331846-15.925037511959999-67.025218738797776-22.459107704018606-99.845875107102984-.218094141861002-1.095487601993227.622743548748076-2.115005625422782,1.739729735249057-2.115005796684272l44.17100408398619-.000006772499546c.863848499826418-.000000132449713,1.599036689887726.616818336540746,1.741726548920269,1.468800633763749,1.827304711839133,10.91059502527969,3.83221258364847,22.214039964874246,6.011684849700941,33.914643253567192,2.272985736967712,12.230445443432473,4.643251115513522,24.5063315209336,7.110302330349441,36.826670392632877,2.463100772538382,12.326265910924121,4.974594463222274,24.263322912656804,7.534974877338755,35.817098044422892,2.560383428273781,11.553788733219335,5.169159888631839,22.241239859777124,7.822381111108371,32.061329133422987,3.400340562818201-9.43290819116919,6.707843795494227-19.447616089135408,9.92251188431419-30.039220917389684,3.210721977355206-10.588655577752434,6.332559003014467-21.180274675120017,9.35711638709563-31.772881612356286,3.024557384081163-10.588655577752434,5.810113009159977-20.796992805153423,8.361604928106317-30.618096803102162,2.408897296171745-9.271301659089659,4.608721800205785-17.597815147440997,6.596139624287389-24.98282382398429.207911912846612-.772575983630304.900264149766372-1.301632638756928,1.700327281017053-1.301631645861562,5.86792097032685.000007282225852,29.128584213464819-.000002489283361,34.955704681557108-.000005095142114Z"/>
    <path class="cls-3" d="M607.528599056966414,661.660557652229727c28.873984022540753,0,50.989938497172261,5.3591946252036,66.355614568898091,16.076593266623604,15.360831606098145,10.716408032430991,23.043185195399928,27.371516948056524,23.043185195399928,49.964336137894861,0,14.09834711754047-3.101426893601456,25.539880929203719-9.300405108298946,34.324601434989745-5.836671230241336,8.268555618209575-14.084071666891759,14.866755574026683-24.750279842273812,19.798690166864617-1.035413927063928.478763744416938-1.373515047342153,1.7743331159636-.685021071703886,2.683878479778286,3.474072899998646,4.589476468287103,7.092046713672971,9.742478702331937,10.859272739249718,15.461718030584962,4.255378605650549,6.471648518750953,8.468125913794211,13.228592426055911,12.632428565682858,20.275784766850848,4.164302651885009,7.051154776745534,8.190053586877184,14.387604942041435,12.077252804971067,22.013312931841938,3.445897300045544,6.764375269160155,6.673275786828526,13.411203883699272,9.682133210708344,19.943935068909923.539731507809847,1.171847102070387-.325588845065795,2.504256369327777-1.615757722056514,2.50425689630174l-44.598109393884442.000018216271201c-.65123315400524.000000265998096-1.247822331100906-.35378787836089-1.556385652542303-.927280073196016-3.369637564614095-6.2627691253183-6.78220582353606-12.615589903520231-10.233487272740604-19.059266773050695-3.622691394928552-6.756943907303139-7.336458743620824-13.323690888904821-11.145177618580419-19.696278508856267-3.808718874957776-6.371597010962432-7.573837559282765-12.405396357011341-11.287604907976856-18.103379256117478-3.540381921036897-5.421580393511249-7.080763842075612-10.367011634882147-10.617798535831753-14.829447121333942-.336617941748045-.424687903479935-.84749571764587-.666650090779513-1.389410336447327-.666650069875686l-18.750138567998874.000000723312041c-.977192579612165.000000037696736-1.769363664070625.792171152714218-1.769363664070625,1.769363732326383v69.743553778824207c0,.977192568570899-.792171095499725,1.769363664070625-1.769363664070625,1.769363664070625h-39.772733152232831c-.977192569260296,0-1.769363665978744-.792171094810328-1.769363668332517-1.769363664070625l-.000000468682629-194.606740135608561c-.000000002037268-.846072174810615.595620234627859-1.578916771546574,1.425657187537581-1.742858168970997,8.9961515485993-1.77683855055875,18.281978969966076-3.034346338572504,27.864951351761192-3.769131008377371,10.086177432793193-.769703183694219,19.109479107297375-1.159012515987342,27.069905023516185-1.159012515987342ZM610.027374426721508,700.185341196437548c-3.149871549854652,0-5.969350544035478.099060898801326-8.468125913794211.289257824502783-1.90062311537622.147681850594381-3.721087747204365.295936813639855-5.460951998249584.442148810394428-.915994371074703.076976905487754-1.618761679705131.843777894660889-1.618761481104229,1.763001007850107l.000011031619579,51.059759456280517c.000000211126462.977192630407444.792171415940174,1.769363664070625,1.769364046347619,1.769363664070625h10.446440857798734c16.285155647488864,0,27.945784408648251-2.122875061331797,34.982855176598605-6.372587619949627,7.031257409200407-4.245750122665413,10.550277239739444-11.487101825112404,10.550277239739444-21.724055107342792,0-9.848634558920821-3.56649559366997-16.84530584132699-10.689797849759998-20.999919937094091-7.127177828589993-4.149661050829309-17.629979305196684-6.22696809871195-31.511311109195958-6.22696809871195Z"/>
    <path class="cls-3" d="M904.686169638722276,762.89733804541811c0,17.229911529557285-2.6142578125,32.260907651299931-7.8349609375,45.084149491325661-5.224609375,12.828152325528208-12.640625,23.453460854841978-22.2470703125,31.874943490840451-9.6103515625,8.427375218599991-21.3154296875,14.74422376842449-35.119140625,18.953491940772437-13.8076171875,4.208286075247088-29.291015625,6.317830646923539-46.4521484375,6.317830646923539-7.8359375,0-16.978515625-.336859305440157-27.423828125-1.005667430817994-9.959457433587886-.641145019078976-19.744176282296394-1.926332010176338-29.361764044253505-3.871715948054771-.826725992754291-.167224828837789-1.420462753034371-.899546114496843-1.420462755759218-1.743015147998449l-.000000616537363-190.907151579162019c-.000000002764864-.855578740234705.607839606553171-1.593802597864851,1.449427480316444-1.747896178127121,9.630308126716045-1.76329615069335,19.641262744791675-2.965635204920545,30.032018686233641-3.606172718105881,10.9140625-.668808125377836,20.2880859375-1.005667430817994,28.123046875-1.005667430817994,16.6025390625,0,31.6650390625,1.916071442896282,45.193359375,5.743303843184549,13.5244140625,3.832142885792564,25.1376953125,9.863201179397947,34.83984375,18.092192783715291,9.6982421875,8.232919992718962,17.162109375,18.763947200393886,22.38671875,31.587189040419617,5.220703125,12.828152325528208,7.8349609375,28.241184219330535,7.8349609375,46.234185195902683ZM778.481073650971666,824.44508081917138c-.000000130197805.927374602013515.708392441789329,1.69584649708122,1.633118525604004,1.765884503727648,1.652371576437872.125149288509419,3.486727478686589.222637311899234,5.502641524646606.292873527538177,2.7021484375.098209710042283,5.919921875.143386176659988,9.654296875.143386176659988,21.8271484375,0,38.009765625-5.644112036043225,48.5517578125-16.94215707913645,10.537109375-11.294116654691607,15.810546875-26.894729094670765,15.810546875-46.807729902542633,0-20.864652898164422-5.037109375-36.65873846692557-15.111328125-47.382256706279804-10.07421875-10.719589850952616-26.0244140625-16.080857922079304-47.8515625-16.080857922079304-2.986328125,0-6.064453125.049104855021142-9.234375.143386176659988-2.59596381045958.080303791317419-5.063301399612101.25384838779064-7.406283109918149.523318881128944-.886749977556974.101986691945058-1.548795541973959.864579893781411-1.548795667289596,1.757175439386629l-.000017210542865,122.586976904936819Z"/>
  </g>
</svg>