<?xml version="1.0" encoding="UTF-8" standalone="no"?>
<!-- Generator: Fusion 360, Shaper Origin Export Add-In, Version 1.6.3  -->

<svg
   xmlns:shaper="http://www.shapertools.com/namespaces/shaper"
   xmlns:dc="http://purl.org/dc/elements/1.1/"
   xmlns:cc="http://creativecommons.org/ns#"
   xmlns:rdf="http://www.w3.org/1999/02/22-rdf-syntax-ns#"
   xmlns:svg="http://www.w3.org/2000/svg"
   xmlns="http://www.w3.org/2000/svg"
   xmlns:sodipodi="http://sodipodi.sourceforge.net/DTD/sodipodi-0.dtd"
   xmlns:inkscape="http://www.inkscape.org/namespaces/inkscape"
   shaper:fusionaddin="version:1.6.3"
   width="23.700001mm"
   height="23.700001mm"
   version="1.1"
   x="0cm"
   y="0cm"
   viewBox="0 0 2.3700001 2.3700001"
   enable-background="new 0 0 2.4889103 2.4063027"
   xml:space="preserve"
   id="svg5890"
   sodipodi:docname="M-PWRD_BW_Border_square.svg"
   inkscape:version="0.92.4 (5da689c313, 2019-01-14)"><metadata
     id="metadata5896"><rdf:RDF><cc:Work
         rdf:about=""><dc:format>image/svg+xml</dc:format><dc:type
           rdf:resource="http://purl.org/dc/dcmitype/StillImage" /><dc:title></dc:title></cc:Work></rdf:RDF></metadata><defs
     id="defs5894" /><sodipodi:namedview
     pagecolor="#ffffff"
     bordercolor="#666666"
     borderopacity="1"
     objecttolerance="10"
     gridtolerance="10"
     guidetolerance="10"
     inkscape:pageopacity="1"
     inkscape:pageshadow="2"
     inkscape:window-width="1202"
     inkscape:window-height="906"
     id="namedview5892"
     showgrid="false"
     inkscape:zoom="5.1898431"
     inkscape:cx="45.029931"
     inkscape:cy="36.976128"
     inkscape:window-x="748"
     inkscape:window-y="225"
     inkscape:window-maximized="0"
     inkscape:current-layer="svg5890"
     fit-margin-top="0"
     fit-margin-left="0"
     fit-margin-right="0"
     fit-margin-bottom="0"
     inkscape:pagecheckerboard="true"
     units="mm"
     inkscape:document-units="px" /><rect
     style="opacity:1;fill:#ffffff;fill-opacity:1;stroke:none;stroke-width:0.02645833;stroke-linecap:butt;stroke-linejoin:round;stroke-miterlimit:4;stroke-dasharray:none;stroke-opacity:1"
     id="rect6455"
     width="2.3700001"
     height="2.3700001"
     x="0"
     y="-8.6736174e-19" /><g
     id="g6453"
     transform="translate(0.02549044,-0.04526699)"><path
       inkscape:connector-curvature="0"
       style="fill:#050000;fill-opacity:1;stroke:#000000;stroke-width:0.001cm;stroke-linecap:round;stroke-linejoin:round"
       id="path5884"
       shaper:cutDepth="0"
       d="M 0.27154347,0.13156985 H 2.0604537 a 0.25,0.25 0 0 1 0.25,0.25 V 2.0878726 a 0.25,0.25 0 0 1 -0.25,0.2499997 H 0.27154347 a 0.25,0.25 0 0 1 -0.25,-0.2499997 V 0.38156985 a 0.25,0.25 0 0 1 0.25,-0.25 z" /><path
       inkscape:connector-curvature="0"
       style="fill:#ffffff;fill-opacity:1;stroke-linecap:round;stroke-linejoin:round"
       id="path5864"
       shaper:cutDepth="0"
       d="M 2.2104537,1.4889028 H 0.12154347 v 0.5989698 a 0.15,0.15 0 0 0 0.15,0.1499997 H 2.0604537 a 0.15,0.15 0 0 0 0.15,-0.1499997 z" /><path
       inkscape:connector-curvature="0"
       style="fill:#000000;fill-opacity:1;stroke:none;stroke-width:0.001cm;stroke-linecap:round;stroke-linejoin:round"
       id="path5876"
       shaper:cutDepth="0"
       d="m 0.26047917,1.6453967 v 0 l 0.0314812,-0.0056 0.0318305,-0.0031 v 0 l 0.0319625,-0.0016 0.0319985,-6.17e-4 v 0 l 0.039474,0.0015 0.0194379,0.0019 0.019079,0.0033 0.0186076,0.0052 0.0181599,0.0069 0.0178585,0.0081 0.0177078,0.0087 v 0 l 0.0119614,0.01133 0.0112412,0.01168 0.009801,0.01238 0.004135,0.0066 0.003507,0.0069 0.002866,0.0072 0.002301,0.0075 0.00323,0.01556 0.001938,0.01619 0.001292,0.01651 v 0 l -8.413e-4,0.01753 -0.002228,0.01723 -0.004665,0.01671 -0.006226,0.01638 v 0 l -0.00803,0.01339 -0.009188,0.01237 -0.0111092,0.01068 -0.0122564,0.0097 v 0 l -0.0153648,0.0087 -0.0158569,0.0075 -0.0166347,0.0056 -0.0170801,0.0045 v 0 l -0.0217516,0.0038 -0.0218451,0.0028 -0.0219912,0.0014 -0.0220744,5.12e-4 h -0.0409091 v 0.1584419 h -0.0818182 z" /><path
       inkscape:connector-curvature="0"
       style="fill:#000000;fill-opacity:1;stroke:none;stroke-width:0.001cm;stroke-linecap:round;stroke-linejoin:round"
       id="path5878"
       shaper:cutDepth="0"
       d="m 2.0017126,1.6892277 v 0 l 0.015858,0.01571 0.00742,0.0082 0.00681,0.0087 0.00607,0.0092 0.00548,0.0096 0.00998,0.01998 v 0 l 0.00813,0.02507 0.00342,0.01265 0.00266,0.01279 0.00178,0.01296 0.00111,0.01308 0.00108,0.02637 v 0 l -0.00111,0.02604 -0.00112,0.01292 -0.00179,0.01279 -0.00266,0.01263 -0.00341,0.01249 -0.00809,0.02475 v 0 l -0.010025,0.02009 -0.0055,0.0097 -0.00608,0.0093 -0.0068,0.0088 -0.0074,0.0083 -0.015811,0.01593 v 0 l -0.018526,0.01371 -0.00954,0.0063 -0.00988,0.0057 -0.010274,0.005 -0.010591,0.0044 -0.02171,0.0078 v 0 l -0.025698,0.0061 -0.025898,0.0046 -0.02622,0.0023 -0.026405,9.3e-4 v 0 l -0.030862,-6.61e-4 -0.030826,-0.0016 v 0 l -0.032981,-0.0034 -0.032604,-0.006 v -0.437013 0 l 0.032922,-0.006 0.033311,-0.0031 v 0 l 0.031156,-0.0014 0.031182,-5.47e-4 v 0 l 0.026133,8.88e-4 0.025962,0.0022 0.025668,0.0044 0.025484,0.0058 v 0 l 0.02158,0.0075 0.010534,0.0042 0.010227,0.0048 0.00984,0.0055 0.00952,0.0062 z" /><path
       inkscape:connector-curvature="0"
       style="fill:#ffffff;fill-opacity:1;stroke-linecap:round;stroke-linejoin:round"
       id="path5866"
       shaper:cutDepth="0"
       d="m 0.47281687,1.7207217 v 0 l -0.008485,-0.0041 -0.00869,-0.0035 -0.0182149,-0.0045 v 0 l -0.0218373,-0.0027 -0.0219939,-8.4e-4 v 0 l -0.0256734,3.8e-4 -0.0256253,0.0016 v 0.153247 h 0.0396104 v 0 l 0.0234185,-6.41e-4 0.0116008,-8.69e-4 0.0114707,-0.0015 0.0112992,-0.0024 0.0111334,-0.0032 0.0219865,-0.0079 v 0 l 0.0144467,-0.01218 0.006047,-0.0067 0.004641,-0.0075 0.003079,-0.0083 0.001872,-0.009 0.001732,-0.01901 v 0 l -4.914e-4,-0.0096 -0.001335,-0.0094 -0.002826,-0.0091 -0.003789,-0.0089 v 0 l -0.004728,-0.007 -0.005337,-0.0063 -0.006352,-0.0053 z" /><path
       inkscape:connector-curvature="0"
       style="fill:#ffffff;fill-opacity:1;stroke-linecap:round;stroke-linejoin:round"
       id="path5868"
       shaper:cutDepth="0"
       d="m 1.8234659,1.7051367 v 0 l -0.026004,2.77e-4 -0.025944,0.0017 v 0.3142859 0 l 0.018831,9.74e-4 v 0 l 0.031818,3.25e-4 v 0 l 0.033823,-0.002 0.016422,-0.0024 0.015836,-0.004 0.01507,-0.0061 0.014363,-0.008 0.013888,-0.0093 0.013651,-0.01001 v 0 l 0.00945,-0.01307 0.00886,-0.01328 0.00768,-0.01371 0.00592,-0.01434 0.00395,-0.01506 0.00242,-0.01561 0.0023,-0.03214 v 0 l -0.0021,-0.03215 -0.00231,-0.01563 -0.00382,-0.01509 -0.00577,-0.0144 -0.00755,-0.01377 -0.00873,-0.01335 -0.00933,-0.01314 v 0 l -0.013643,-0.0099 -0.013877,-0.0092 -0.014346,-0.0079 -0.015044,-0.0059 -0.01579,-0.0039 -0.016359,-0.0023 z" /><path
       inkscape:connector-curvature="0"
       style="fill:#000000;fill-opacity:1;stroke:none;stroke-width:0.02645833;stroke-linecap:round;stroke-linejoin:round;stroke-miterlimit:4;stroke-dasharray:none;stroke-opacity:1"
       id="path5880"
       shaper:cutDepth="0"
       d="m 1.4078816,1.9187737 h -0.051948 v 0.1701289 h -0.081818 v -0.4435059 0 l 0.031656,-0.0055 0.03198,-0.0032 v 0 l 0.030176,-0.0016 0.030213,-6.35e-4 v 0 l 0.039169,0.0015 0.019282,0.0019 0.01892,0.0033 0.018444,0.0052 0.017991,0.0069 0.017686,0.0081 0.017534,0.0087 v 0 l 0.011719,0.01107 0.011025,0.0114 0.00964,0.01208 0.00408,0.0064 0.00347,0.0067 0.00285,0.007 0.00229,0.0073 0.00324,0.01521 0.00197,0.01582 0.00134,0.01613 v 0 l -0.00321,0.02131 -0.00425,0.02056 -0.00284,0.0098 -0.00349,0.0093 -0.00427,0.0087 -0.00519,0.0081 -0.00617,0.0074 -0.00705,0.0067 -0.00781,0.0062 -0.00844,0.0057 -0.018264,0.01048 -0.019274,0.0097 v 0 l 0.014235,0.01797 0.013687,0.01839 v 0 l 0.016215,0.023 0.015603,0.02342 v 0 l 0.015966,0.02542 0.015203,0.02588 v 0 l 0.013852,0.02554 0.01277,0.02609 h -0.091558 v 0 l -0.012978,-0.02373 -0.013646,-0.02335 v 0 l -0.028896,-0.0461 v 0 l -0.014201,-0.02127 -0.014696,-0.02093 v 0 l -0.026623,-0.03539 v 0 z" /><path
       inkscape:connector-curvature="0"
       style="fill:#ffffff;fill-opacity:1;stroke:none;stroke-linecap:round;stroke-linejoin:round;stroke-opacity:1"
       id="path5870"
       shaper:cutDepth="0"
       d="m 1.4828816,1.7207217 v 0 l -0.00832,-0.0041 -0.00852,-0.0035 -0.017901,-0.0045 v 0 l -0.021998,-0.0027 -0.022158,-8.2e-4 v 0 l -0.024048,4.48e-4 -0.024004,0.0015 v 0.145455 h 0.035714 v 0 l 0.026358,-7.03e-4 0.02624,-0.0025 v 0 l 0.00986,-0.0018 0.00967,-0.0024 0.00934,-0.0034 0.00912,-0.0041 v 0 l 0.0069,-0.0045 0.00629,-0.0051 0.00525,-0.0062 0.00462,-0.0068 v 0 l 0.00354,-0.0087 0.00262,-0.0089 0.00121,-0.0093 4.213e-4,-0.0094 v 0 l -4.588e-4,-0.0091 -0.00124,-0.0089 -0.00261,-0.0086 -0.00349,-0.0084 v 0 l -0.0045,-0.0068 -0.0051,-0.0062 -0.0061,-0.0052 z" /><path
       inkscape:connector-curvature="0"
       style="fill:#ffffff;fill-opacity:1;stroke-linecap:round;stroke-linejoin:round"
       id="path5874"
       shaper:cutDepth="0"
       d="M 2.2104537,1.3889028 V 0.38156985 a 0.15,0.15 0 0 0 -0.15,-0.15 H 0.27154347 a 0.15,0.15 0 0 0 -0.15,0.15 V 1.3889028 Z" /><path
       inkscape:connector-curvature="0"
       style="fill:#000000;fill-opacity:1;stroke:none;stroke-width:0.001cm;stroke-linecap:round;stroke-linejoin:round"
       id="path5882"
       shaper:cutDepth="0"
       d="m 0.86210247,1.7622797 v 0 l 0.0211039,-0.07273 h 0.0701298 v 0 l 0.022078,0.07305 v 0 l 0.0243506,0.07597 v 0 l 0.025325,0.07467 v 0 l 0.024351,0.06916 v 0 l 0.00993,-0.03802 0.0089,-0.03828 v 0 l 0.018182,-0.08571 v 0 l 0.017857,-0.09058 v 0 l 0.016559,-0.09091 h 0.084416 v 0 l -0.011465,0.05894 -0.012101,0.0588 -0.013178,0.05857 -0.013835,0.05843 v 0 l -0.014078,0.05424 -0.014877,0.05401 -0.016232,0.05362 -0.017059,0.05338 h -0.078734 v 0 l -0.0261255,-0.070973 -0.0251311,-0.071325 -0.0235358,-0.071869 -0.0226102,-0.072184 v 0 l -0.0236595,0.07491 -0.0251027,0.07444 v 0 l -0.024343,0.06864 -0.0250685,0.06838 h -0.0780641 v 0 l -0.0172812,-0.05333 -0.0163685,-0.0536 -0.0148739,-0.05403 -0.0139916,-0.05429 v 0 l -0.0136864,-0.058458 -0.0130598,-0.058576 -0.0120337,-0.058796 -0.0114281,-0.058926 h 0.0876624 v 0 l 0.0165584,0.09026 v 0 l 0.0181818,0.09058 v 0 l 0.0191558,0.08604 v 0 l 0.009352,0.03841 0.0101281,0.03821 v 0 l 0.025,-0.06981 v 0 l 0.025,-0.07467 v 0 z" /><path
       inkscape:connector-curvature="0"
       style="fill:#000000;fill-opacity:1;stroke:none;stroke-width:0.001cm;stroke-linecap:round;stroke-linejoin:round"
       id="path5886"
       shaper:cutDepth="0"
       d="m 0.41139027,1.2498318 -0.1150433,-0.0803 0.5815441,-0.83320595 0.11504326,0.08029 z" /><path
       inkscape:connector-curvature="0"
       style="fill:#000000;fill-opacity:1;stroke:none;stroke-width:0.001cm;stroke-linecap:round;stroke-linejoin:round"
       id="path5888"
       shaper:cutDepth="0"
       d="M 1.5177726,0.38552285 2.0635874,1.1688368 1.940518,1.2545918 1.444047,0.54209285 0.94910067,1.2557588 0.82584217,1.1702768 1.3699758,0.38568585 a 0.09,0.09 0 0 1 0.1477968,-1.63e-4 z" /></g></svg>