<?xml version="1.0" encoding="UTF-8" standalone="no"?>
<svg
   xmlns:dc="http://purl.org/dc/elements/1.1/"
   xmlns:cc="http://creativecommons.org/ns#"
   xmlns:rdf="http://www.w3.org/1999/02/22-rdf-syntax-ns#"
   xmlns:svg="http://www.w3.org/2000/svg"
   xmlns="http://www.w3.org/2000/svg"
   xmlns:sodipodi="http://sodipodi.sourceforge.net/DTD/sodipodi-0.dtd"
   xmlns:inkscape="http://www.inkscape.org/namespaces/inkscape"
   id="Layer_1"
   data-name="Layer 1"
   viewBox="0 0 800 800"
   version="1.1"
   sodipodi:docname="M-PWRD_BW_NoBorder_square.svg"
   inkscape:version="0.92.4 (5da689c313, 2019-01-14)"
   width="800"
   height="800">
  <metadata
     id="metadata4638">
    <rdf:RDF>
      <cc:Work
         rdf:about="">
        <dc:format>image/svg+xml</dc:format>
        <dc:type
           rdf:resource="http://purl.org/dc/dcmitype/StillImage" />
        <dc:title></dc:title>
      </cc:Work>
    </rdf:RDF>
  </metadata>
  <sodipodi:namedview
     pagecolor="#ffffff"
     bordercolor="#666666"
     borderopacity="1"
     objecttolerance="10"
     gridtolerance="10"
     guidetolerance="10"
     inkscape:pageopacity="0"
     inkscape:pageshadow="2"
     inkscape:window-width="3440"
     inkscape:window-height="1377"
     id="namedview4636"
     showgrid="false"
     inkscape:zoom="0.97745443"
     inkscape:cx="574.41336"
     inkscape:cy="527.03277"
     inkscape:window-x="-8"
     inkscape:window-y="-8"
     inkscape:window-maximized="1"
     inkscape:current-layer="Layer_1"
     fit-margin-top="20.7"
     fit-margin-bottom="16.6"
     fit-margin-left="0"
     fit-margin-right="0"
     inkscape:pagecheckerboard="true" />
  <defs
     id="defs4611">
    <style
       id="style4609">
      .cls-1 {
        fill: #2c2d3c;
      }

      .cls-1, .cls-2 {
        stroke-width: 0px;
      }

      .cls-2 {
        fill: #67ea94;
      }
    </style>
  </defs>
  <path
     class="cls-1"
     d="m 506.61417,110.01447 c -7.4752,10.63141 -14.37214,20.39566 -21.22349,30.19167 -62.68561,89.62731 -125.36335,179.26018 -188.04485,268.89037 -0.57258,0.81874 -1.13637,1.64598 -1.75207,2.43186 -3.82485,4.88178 -4.32372,5.0275 -9.7006,1.46763 -12.70347,-8.41072 -25.36593,-16.88376 -38.01347,-25.37853 -7.79142,-5.23316 -7.90587,-5.83521 -2.57486,-13.44742 31.94418,-45.61377 63.90127,-91.21862 95.8654,-136.81841 43.14434,-61.54964 86.27925,-123.10602 129.48347,-184.613669 3.86001,-5.49532 7.38144,-11.22595 12.24113,-16.03869 13.25674,-13.12876 37.28379,-12.53572 48.96104,3.2886 10.0843,13.6657 19.83342,27.56115 29.65121,41.40787 68.89636,97.169119 137.6986,194.405009 206.52803,291.621529 7.83226,11.0626 7.13773,9.79202 -3.15678,16.9286 -11.69922,8.1105 -23.55601,15.99402 -35.34989,23.968 -7.23496,4.89157 -7.32899,4.94702 -12.23225,-2.06031 -17.75314,-25.37098 -35.44804,-50.78268 -53.1522,-76.18789 -50.8269,-72.93612 -101.64621,-145.87757 -152.47815,-218.81021 -1.42257,-2.04109 -2.95399,-4.00641 -5.05167,-6.841 z"
     id="path4617"
     inkscape:connector-curvature="0"
     style="fill:#000000;fill-opacity:1;stroke-width:0px" />
  <path
     class="cls-1"
     d="m 259.73492,19.851911 c 7.87117,5.4521 15.4219,10.68623 22.97693,15.91419 7.19046,4.97563 14.41224,9.90646 21.5691,14.92977 5.07044,3.55891 5.07218,3.68873 1.57061,8.70379 -17.0186,24.37444 -34.04498,48.743459 -51.08646,73.101929 -41.67234,59.56524 -83.36051,119.11953 -125.03042,178.68659 -23.19794,33.16164 -46.37162,66.34024 -69.55734,99.51043 -0.42938,0.61431 -0.85552,1.23206 -1.31201,1.82605 -3.28418,4.27338 -3.36081,4.38149 -7.68128,1.46951 C 37.93679,405.06554 24.70568,396.11119 11.56394,387.02864 5.90421,383.11717 5.89391,382.47412 10.1286,376.41711 47.48815,322.98053 84.86793,269.55804 122.24511,216.1338 163.91804,156.56959 205.59166,97.005941 247.2737,37.448111 c 3.99706,-5.71128 8.05619,-11.3793 12.46122,-17.5962 z"
     id="path4619"
     inkscape:connector-curvature="0"
     style="fill:#000000;fill-opacity:1;stroke-width:0px" />
  <g
     id="g4633"
     style="fill:#000000;fill-opacity:1"
     transform="translate(-106.01339,-81.727769)">
    <path
       class="cls-2"
       d="m 164.27448,662.08526 c 28.94262,0 51.16252,5.24208 66.66411,15.72031 15.49768,10.48316 23.24872,27.64568 23.24872,51.48656 0,24.04015 -7.84293,41.39207 -23.52877,52.06365 -15.68536,10.67257 -38.09392,16.00835 -67.22422,16.00835 h -11.95563 c -0.97719,0 -1.76936,0.79218 -1.76936,1.76937 v 63.38009 c 0,0.9772 -0.79217,1.76937 -1.76936,1.76937 h -40.15721 c -0.9772,0 -1.76937,-0.79217 -1.76937,-1.76937 V 668.73893 c 0,-0.84808 0.59575,-1.58189 1.42823,-1.74383 9.10204,-1.77062 18.70935,-3.02364 28.82277,-3.75567 10.64393,-0.76649 19.979,-1.15417 28.01009,-1.15417 z m 2.80101,38.36363 c -3.17735,0 -6.3024,0.0986 -9.38346,0.28804 -2.36806,0.14861 -4.48783,0.29779 -6.35949,0.44488 -0.9209,0.0724 -1.62323,0.83552 -1.62323,1.75926 2e-5,8.2826 2e-5,45.7042 2e-5,54.29764 0,0.97719 0.79217,1.76279 1.76936,1.76279 h 11.95563 c 15.12525,0 26.51355,-2.11301 34.17221,-6.34494 7.65476,-4.22799 11.48458,-12.11478 11.48458,-23.65247 0,-5.5755 -0.98043,-10.19019 -2.94128,-13.84504 -1.96085,-3.65091 -4.76186,-6.58465 -8.40303,-8.79729 -3.64116,-2.2087 -8.07947,-3.75054 -13.30467,-4.61567 -5.23008,-0.86513 -11.02026,-1.2972 -17.36664,-1.2972 z"
       id="path4625"
       style="fill:#000000;fill-opacity:1;stroke-width:0px"
       inkscape:connector-curvature="0" />
    <path
       class="cls-2"
       d="m 414.67524,684.474 c 0.79019,0 1.47638,0.51465 1.69324,1.2745 2.16266,7.57771 4.53568,16.05838 7.1224,25.44362 2.73272,9.91989 5.65111,20.17367 8.75961,30.76232 3.10406,10.59162 6.26146,21.18423 9.46279,31.7719 3.20233,10.59261 6.30936,20.41372 9.32552,29.46233 2.4631,-9.82012 4.97558,-20.50756 7.53547,-32.06134 2.55593,-11.55377 4.9736,-23.49083 7.24708,-35.8171 2.27348,-12.32034 4.50153,-24.59622 6.68218,-36.82667 2.08493,-11.70043 4.04142,-23.00372 5.86947,-33.91413 0.14278,-0.85217 0.8768,-1.46932 1.74085,-1.46932 6.73464,10e-6 34.26963,2e-5 42.21065,2e-5 1.11717,0 1.95093,1.01983 1.73254,2.11544 -6.54222,32.82052 -14.04403,66.10387 -22.49801,99.84544 -8.52211,34.01835 -17.73864,66.3445 -27.64201,96.98318 -0.23648,0.73163 -0.91778,1.22391 -1.68668,1.22391 h -37.83989 c -0.74981,0 -1.4181,-0.46784 -1.66925,-1.17435 -6.44593,-18.13311 -12.70924,-37.13909 -18.79039,-57.0272 -6.2175,-20.31395 -12.33723,-40.67728 -18.35968,-61.09099 -6.04516,20.41371 -12.08983,40.77704 -18.1345,61.09099 -5.91687,19.88831 -12.10486,38.89448 -18.56395,57.02776 -0.25153,0.70614 -0.91998,1.17379 -1.66958,1.17379 h -37.8084 c -0.76906,0 -1.45048,-0.49249 -1.68685,-1.22432 -9.89572,-30.63856 -19.09419,-62.96457 -27.59871,-96.98277 -8.44145,-33.74172 -15.92504,-67.02522 -22.45911,-99.84588 -0.2181,-1.09549 0.62274,-2.115 1.73973,-2.115 l 44.171,-1e-5 c 0.86385,0 1.59904,0.61682 1.74173,1.4688 1.8273,10.91059 3.83221,22.21404 6.01168,33.91464 2.27299,12.23045 4.64325,24.50633 7.11031,36.82667 2.4631,12.32627 4.97459,24.26333 7.53497,35.8171 2.56038,11.55379 5.16916,22.24124 7.82238,32.06133 3.40034,-9.43291 6.70785,-19.44762 9.92251,-30.03922 3.21073,-10.58866 6.33256,-21.18028 9.35712,-31.77288 3.02456,-10.58866 5.81011,-20.797 8.36161,-30.6181 2.40889,-9.2713 4.60872,-17.59781 6.59613,-24.98282 0.20792,-0.77258 0.90027,-1.30164 1.70033,-1.30163 5.86792,0 29.12859,-10e-6 34.95571,-10e-6 z"
       id="path4627"
       style="fill:#000000;fill-opacity:1;stroke-width:0px"
       inkscape:connector-curvature="0" />
    <path
       class="cls-2"
       d="m 607.5286,661.66056 c 28.87398,0 50.98994,5.35919 66.35561,16.07659 15.36084,10.71641 23.04319,27.37152 23.04319,49.96434 0,14.09834 -3.10143,25.53988 -9.30041,34.3246 -5.83667,8.26855 -14.08407,14.86675 -24.75028,19.79869 -1.03541,0.47876 -1.37351,1.77433 -0.68502,2.68388 3.47408,4.58947 7.09205,9.74248 10.85928,15.46172 4.25537,6.47164 8.46812,13.22859 12.63242,20.27578 4.16431,7.05115 8.19006,14.3876 12.07726,22.01331 3.44589,6.76438 6.67327,13.41121 9.68213,19.94394 0.53973,1.17185 -0.32559,2.50425 -1.61576,2.50425 l -44.59811,2e-5 c -0.65123,0 -1.24782,-0.35378 -1.55638,-0.92728 -3.36964,-6.26277 -6.78221,-12.61559 -10.23349,-19.05926 -3.62269,-6.75695 -7.33646,-13.32369 -11.14518,-19.69628 -3.80872,-6.3716 -7.57384,-12.4054 -11.2876,-18.10338 -3.54038,-5.42158 -7.08077,-10.36701 -10.6178,-14.82945 -0.33662,-0.42469 -0.8475,-0.66665 -1.38941,-0.66665 h -18.75014 c -0.97719,0 -1.76936,0.79217 -1.76936,1.76937 v 69.74355 c 0,0.97719 -0.79217,1.76936 -1.76937,1.76936 h -39.77273 c -0.97719,0 -1.76936,-0.79217 -1.76936,-1.76936 V 668.33156 c 0,-0.84607 0.59562,-1.57892 1.42565,-1.74286 8.99615,-1.77684 18.28198,-3.03435 27.86495,-3.76913 10.08618,-0.7697 19.10948,-1.15901 27.06991,-1.15901 z m 2.49877,38.52478 c -3.14987,0 -5.96935,0.0991 -8.46812,0.28926 -1.90062,0.14768 -3.72109,0.29594 -5.46095,0.44215 -0.916,0.077 -1.61877,0.84378 -1.61876,1.763 l 10e-6,51.05976 c 0,0.97719 0.79217,1.76936 1.76936,1.76936 h 10.44644 c 16.28516,0 27.94579,-2.12287 34.98286,-6.37259 7.03125,-4.24575 10.55027,-11.4871 10.55027,-21.72405 0,-9.84864 -3.56649,-16.84531 -10.68979,-20.99992 -7.12718,-4.14966 -17.62998,-6.22697 -31.51132,-6.22697 z"
       id="path4629"
       style="fill:#000000;fill-opacity:1;stroke-width:0px"
       inkscape:connector-curvature="0" />
    <path
       class="cls-2"
       d="m 904.68617,762.89734 c 0,17.22991 -2.61426,32.26091 -7.83496,45.08415 -5.22461,12.82815 -12.64063,23.45346 -22.24707,31.87494 -9.61035,8.42738 -21.31543,14.74422 -35.11914,18.95349 -13.80762,4.20829 -29.29102,6.31783 -46.45215,6.31783 -7.83594,0 -16.97852,-0.33686 -27.42383,-1.00566 -9.95946,-0.64115 -19.74418,-1.92634 -29.36176,-3.87172 -0.82673,-0.16722 -1.42047,-0.89955 -1.42047,-1.74301 V 667.6002 c 0,-0.85558 0.60784,-1.5938 1.44943,-1.74789 9.63031,-1.7633 19.64126,-2.96564 30.03202,-3.60618 10.91406,-0.6688 20.28809,-1.00566 28.12305,-1.00566 16.60254,0 31.66504,1.91607 45.19336,5.7433 13.52441,3.83214 25.13769,9.8632 34.83984,18.09219 9.69824,8.23292 17.16211,18.76395 22.38672,31.58719 5.2207,12.82816 7.83496,28.24119 7.83496,46.23419 z m -126.2051,61.54774 c 0,0.92738 0.7084,1.69585 1.63312,1.76589 1.65237,0.12514 3.48673,0.22263 5.50264,0.29287 2.70215,0.0982 5.91993,0.14339 9.6543,0.14339 21.82715,0 38.00977,-5.64412 48.55176,-16.94216 10.53711,-11.29412 15.81055,-26.89473 15.81055,-46.80773 0,-20.86465 -5.03711,-36.65874 -15.11133,-47.38226 -10.07422,-10.71959 -26.02442,-16.08086 -47.85157,-16.08086 -2.98632,0 -6.06445,0.0491 -9.23437,0.14339 -2.59596,0.0803 -5.0633,0.25385 -7.40628,0.52332 -0.88675,0.10199 -1.5488,0.86458 -1.5488,1.75717 z"
       id="path4631"
       style="fill:#000000;fill-opacity:1;stroke-width:0px"
       inkscape:connector-curvature="0" />
  </g>
</svg>
